<?xml version="1.0" encoding="UTF-8"?>
<svg version="1.1" xmlns="http://www.w3.org/2000/svg" width="588" height="424">
<path d="M0 0 C1.03342529 0.11754639 2.06685059 0.23509277 3.1315918 0.35620117 C27.29394403 3.36567839 50.24383736 12.53477649 69.3125 27.6875 C69.83344238 28.1009668 70.35438477 28.51443359 70.89111328 28.94042969 C74.0680556 31.47998232 77.19190668 34.07939436 80.3125 36.6875 C81.19164062 37.38875 82.07078125 38.09 82.9765625 38.8125 C85.26802566 40.65180153 87.34652265 42.50308073 89.3125 44.6875 C89.3125 45.3475 89.3125 46.0075 89.3125 46.6875 C90.3025 47.0175 91.2925 47.3475 92.3125 47.6875 C93.84301758 49.38647461 93.84301758 49.38647461 95.45703125 51.58984375 C96.05193359 52.39873047 96.64683594 53.20761719 97.25976562 54.04101562 C98.18305664 55.32008789 98.18305664 55.32008789 99.125 56.625 C99.72892578 57.44291016 100.33285156 58.26082031 100.95507812 59.10351562 C106.92159064 67.27937186 112.11981598 75.75039593 116.375 84.9375 C116.71297607 85.66493408 117.05095215 86.39236816 117.39916992 87.1418457 C133.46787562 122.29046119 133.71509804 164.27670967 120.27587891 200.38696289 C105.01912748 239.71086786 74.53494718 268.80852791 36.453125 285.9765625 C30.54949398 288.43954232 24.53440303 290.22119164 18.3125 291.6875 C17.18714844 291.95691406 16.06179688 292.22632813 14.90234375 292.50390625 C-25.39325703 301.1297484 -67.07066716 294.0212123 -101.6875 271.6875 C-106.53023414 268.23983088 -111.10281593 264.4667666 -115.6875 260.6875 C-116.47640625 260.12804687 -117.2653125 259.56859375 -118.078125 258.9921875 C-118.60921875 258.56164062 -119.1403125 258.13109375 -119.6875 257.6875 C-119.6875 257.0275 -119.6875 256.3675 -119.6875 255.6875 C-120.285625 255.419375 -120.88375 255.15125 -121.5 254.875 C-123.68597854 253.68832594 -125.10082594 252.59150887 -126.6875 250.6875 C-126.6875 250.0275 -126.6875 249.3675 -126.6875 248.6875 C-127.6775 248.3575 -128.6675 248.0275 -129.6875 247.6875 C-131.17041016 246.08374023 -131.17041016 246.08374023 -132.7265625 243.99609375 C-133.30269287 243.22434814 -133.87882324 242.45260254 -134.47241211 241.6574707 C-135.07964111 240.82175537 -135.68687012 239.98604004 -136.3125 239.125 C-136.93842041 238.26672607 -137.56434082 237.40845215 -138.20922852 236.52416992 C-161.87348037 203.56118025 -172.17174683 164.26594101 -165.95922852 123.9921875 C-161.78220433 98.6012179 -151.89529858 76.03639652 -136.375 55.5 C-135.9421167 54.92241943 -135.5092334 54.34483887 -135.06323242 53.74975586 C-133.98747066 52.35603495 -132.84282221 51.01601493 -131.6875 49.6875 C-131.0275 49.6875 -130.3675 49.6875 -129.6875 49.6875 C-129.4503125 49.12546875 -129.213125 48.5634375 -128.96875 47.984375 C-127.39802303 45.16855958 -125.47278536 43.20794584 -123.1875 40.9375 C-122.3934375 40.13828125 -121.599375 39.3390625 -120.78125 38.515625 C-118.6875 36.6875 -118.6875 36.6875 -116.6875 36.6875 C-116.3575 35.6975 -116.0275 34.7075 -115.6875 33.6875 C-113.7265625 31.86328125 -113.7265625 31.86328125 -111.3125 30 C-110.52101562 29.37738281 -109.72953125 28.75476563 -108.9140625 28.11328125 C-106.6875 26.6875 -106.6875 26.6875 -103.6875 26.6875 C-103.6875 26.0275 -103.6875 25.3675 -103.6875 24.6875 C-101.42278305 23.1505121 -99.17514574 21.74662289 -96.8125 20.375 C-96.12357666 19.97055664 -95.43465332 19.56611328 -94.72485352 19.14941406 C-86.01428487 14.07766943 -77.44117711 10.08546066 -67.88671875 6.80078125 C-65.93759322 6.12251412 -63.99951077 5.40961846 -62.0859375 4.63671875 C-42.86289928 -2.97109605 -20.15225825 -2.31551714 0 0 Z " fill="#5764F0" transform="translate(312.6875,64.3125)"/>
<path d="M0 0 C1.765625 1.53515625 1.765625 1.53515625 4.765625 8.53515625 C19.285625 8.53515625 33.805625 8.53515625 48.765625 8.53515625 C50.085625 5.56515625 51.405625 2.59515625 52.765625 -0.46484375 C59.10511994 0.12214652 64.72361852 1.56658271 70.765625 3.53515625 C72.24214475 3.99883406 73.71871118 4.46236325 75.1953125 4.92578125 C76.8024066 5.44039782 78.40917545 5.95603115 80.015625 6.47265625 C81.16877197 6.83363403 81.16877197 6.83363403 82.34521484 7.2019043 C88.18512583 9.11239852 93.97002268 11.34972346 97.203125 16.91015625 C97.60144531 17.59335938 97.99976563 18.2765625 98.41015625 18.98046875 C100.75003407 23.39049784 102.94786075 27.86757242 105.1171875 32.36328125 C106.50171819 35.02735453 107.96018694 37.16458107 109.765625 39.53515625 C115.04389558 50.25225317 117.59919265 62.20948706 119.953125 73.84765625 C120.12005859 74.67120605 120.28699219 75.49475586 120.45898438 76.34326172 C122.3213152 85.87908529 122.92651861 95.06995289 122.890625 104.78515625 C122.89449219 105.84734375 122.89835938 106.90953125 122.90234375 108.00390625 C122.90041016 109.54304688 122.90041016 109.54304688 122.8984375 111.11328125 C122.89730957 112.0352832 122.89618164 112.95728516 122.89501953 113.90722656 C122.76386832 116.57083335 122.46581929 118.96113239 121.765625 121.53515625 C119.75390625 123.2734375 119.75390625 123.2734375 117.078125 124.84765625 C116.08039063 125.440625 115.08265625 126.03359375 114.0546875 126.64453125 C112.96929687 127.2684375 111.88390625 127.89234375 110.765625 128.53515625 C109.10660156 129.53289062 109.10660156 129.53289062 107.4140625 130.55078125 C96.47950112 137.06829601 85.12242353 142.28936124 72.765625 145.53515625 C68.88920585 141.21145796 62.765625 133.57707182 62.765625 127.53515625 C63.69246094 127.20902344 64.61929688 126.88289063 65.57421875 126.546875 C66.77175781 126.10988281 67.96929687 125.67289062 69.203125 125.22265625 C70.39808594 124.79339844 71.59304688 124.36414063 72.82421875 123.921875 C73.79488281 123.46425781 74.76554688 123.00664062 75.765625 122.53515625 C76.095625 121.54515625 76.425625 120.55515625 76.765625 119.53515625 C70.84262067 120.46890046 65.40083176 121.97882138 59.765625 124.03515625 C40.67112565 130.7594325 15.86424934 131.16286583 -3.234375 124.53515625 C-4.9978125 124.31859375 -4.9978125 124.31859375 -6.796875 124.09765625 C-10.234375 123.53515625 -10.234375 123.53515625 -12.609375 122.03515625 C-16.33497531 119.90624179 -20.00741893 119.80221883 -24.234375 119.53515625 C-22.85483121 122.29424384 -21.16951295 122.7499861 -18.421875 124.09765625 C-17.54917969 124.53207031 -16.67648438 124.96648437 -15.77734375 125.4140625 C-13.58019747 126.38269688 -11.57710736 127.04913485 -9.234375 127.53515625 C-10.53691426 131.90935525 -12.22382513 135.49921656 -14.671875 139.34765625 C-15.26871094 140.30285156 -15.86554688 141.25804687 -16.48046875 142.2421875 C-18.234375 144.53515625 -18.234375 144.53515625 -21.234375 145.53515625 C-23.61938477 144.82592773 -23.61938477 144.82592773 -26.42578125 143.65625 C-27.45380859 143.22892578 -28.48183594 142.80160156 -29.54101562 142.36132812 C-30.61544922 141.90306641 -31.68988281 141.44480469 -32.796875 140.97265625 C-33.84423828 140.54146484 -34.89160156 140.11027344 -35.97070312 139.66601562 C-42.76901902 136.80556823 -49.01775993 133.49500215 -55.234375 129.53515625 C-56.3275 128.8596875 -57.420625 128.18421875 -58.546875 127.48828125 C-59.43375 126.92625 -60.320625 126.36421875 -61.234375 125.78515625 C-62.595625 124.92664063 -62.595625 124.92664063 -63.984375 124.05078125 C-66.78208736 122.16621112 -68.05863406 121.28205523 -68.84375 117.9453125 C-71.66150048 93.34635082 -66.60547731 67.26167308 -57.234375 44.53515625 C-56.7497558 43.16206852 -56.2698347 41.7873036 -55.796875 40.41015625 C-53.82693642 35.16793079 -51.01979461 30.37827322 -48.234375 25.53515625 C-47.60015625 24.395625 -46.9659375 23.25609375 -46.3125 22.08203125 C-45.64235478 20.919574 -44.97050503 19.75809757 -44.296875 18.59765625 C-43.68972656 17.53675781 -43.08257812 16.47585937 -42.45703125 15.3828125 C-38.16751905 9.88711058 -32.24034229 7.9393616 -25.734375 6.03515625 C-25.05020508 5.83011475 -24.36603516 5.62507324 -23.66113281 5.41381836 C-22.23711677 4.99089017 -20.8116362 4.5728632 -19.38476562 4.15966797 C-17.95421228 3.74420981 -16.52577924 3.32137816 -15.09960938 2.89111328 C-13.06543326 2.277549 -11.02638344 1.68455659 -8.984375 1.09765625 C-7.78296875 0.74832031 -6.5815625 0.39898437 -5.34375 0.0390625 C-2.234375 -0.46484375 -2.234375 -0.46484375 0 0 Z " fill="#FCFDFD" transform="translate(267.234375,139.46484375)"/>
<path d="M0 0 C1.2375 0.7425 1.2375 0.7425 2.5 1.5 C2.5 2.16 2.5 2.82 2.5 3.5 C3.12261719 3.7475 3.74523437 3.995 4.38671875 4.25 C7.61265545 6.15813261 8.00045409 8.44854096 9.03125 11.921875 C10.07486912 17.66178018 9.46884396 24.41055322 6.5 29.5 C3.15874274 33.4173361 0.61955426 36.16732026 -4.734375 36.73828125 C-11.81834079 36.94728024 -15.68142709 35.71768073 -21.0390625 31.203125 C-25.56074522 26.30253032 -25.05990452 20.47328684 -25.06640625 14.12109375 C-23.99082868 7.24481506 -19.82194641 3.46315158 -14.5 -0.5 C-9.24461396 -2.25179535 -5.01111219 -2.14761951 0 0 Z " fill="#5763EC" transform="translate(333.5,201.5)"/>
<path d="M0 0 C4.65058062 3.98621196 7.32553471 7.69560355 8.125 13.875 C8.44690024 19.75862098 7.06271692 24.74068406 4.1875 29.875 C3.5275 29.875 2.8675 29.875 2.1875 29.875 C1.8471875 30.803125 1.8471875 30.803125 1.5 31.75 C-0.29797882 34.66101333 -1.4979279 35.02872627 -4.8125 35.875 C-9.71405291 36.30199553 -14.52916241 36.53761526 -18.8125 33.875 C-24.18397882 28.54292078 -25.96841244 24.80603184 -26.125 17.125 C-26.10622634 11.07988232 -25.45975132 7.66201735 -21.8125 2.875 C-21.1525 2.875 -20.4925 2.875 -19.8125 2.875 C-19.8125 2.215 -19.8125 1.555 -19.8125 0.875 C-13.10033254 -2.7729171 -7.13062237 -2.85224895 0 0 Z " fill="#5763EE" transform="translate(271.8125,202.125)"/>
<path d="M0 0 C1.03342529 0.11754639 2.06685059 0.23509277 3.1315918 0.35620117 C20.05965825 2.46463125 35.30210441 7.78261711 50.3125 15.6875 C49.6525 16.3475 48.9925 17.0075 48.3125 17.6875 C48.3125 17.0275 48.3125 16.3675 48.3125 15.6875 C47.26449219 15.70490234 47.26449219 15.70490234 46.1953125 15.72265625 C44.83019531 15.73619141 44.83019531 15.73619141 43.4375 15.75 C42.08011719 15.76740234 42.08011719 15.76740234 40.6953125 15.78515625 C38.3125 15.6875 38.3125 15.6875 36.3125 14.6875 C36.3125 13.6975 36.3125 12.7075 36.3125 11.6875 C34.9925 11.6875 33.6725 11.6875 32.3125 11.6875 C32.3125 11.0275 32.3125 10.3675 32.3125 9.6875 C31.69375 9.543125 31.075 9.39875 30.4375 9.25 C28.3125 8.6875 28.3125 8.6875 26.3125 7.6875 C24.394375 7.501875 24.394375 7.501875 22.4375 7.3125 C18.71077085 6.93804396 15.24342832 6.21394543 11.625 5.25 C-6.02718098 0.71467894 -23.66666227 1.04122445 -41.6875 2.6875 C-41.6875 3.3475 -41.6875 4.0075 -41.6875 4.6875 C-45.6475 4.3575 -49.6075 4.0275 -53.6875 3.6875 C-40.10024234 -5.37067177 -15.36931376 -1.76595144 0 0 Z " fill="#7C82DC" transform="translate(312.6875,64.3125)"/>
<path d="M0 0 C12.84785257 24.77800139 10.12253989 60.49070493 4 87 C3.67 87 3.34 87 3 87 C2.97307516 84.70839681 2.95363876 82.41670454 2.9375 80.125 C2.92589844 78.84882813 2.91429687 77.57265625 2.90234375 76.2578125 C3 73 3 73 4 71 C4.0946495 69.53089692 4.12794207 68.05759741 4.12939453 66.58544922 C4.13412277 65.2129451 4.13412277 65.2129451 4.13894653 63.81271362 C4.13591019 62.32374069 4.13591019 62.32374069 4.1328125 60.8046875 C4.13376923 59.78327667 4.13472595 58.76186584 4.13571167 57.70950317 C4.13639334 55.54233743 4.13453995 53.37516965 4.13037109 51.20800781 C4.12505553 47.90945765 4.13029942 44.61104572 4.13671875 41.3125 C4.13605732 39.20572887 4.13477482 37.09895782 4.1328125 34.9921875 C4.13483673 34.01168427 4.13686096 33.03118103 4.13894653 32.02096558 C4.12060799 26.58765978 3.79785495 21.37581516 3 16 C2.34 16 1.68 16 1 16 C1.020625 15.195625 1.04125 14.39125 1.0625 13.5625 C1.29633621 11.06645115 1.29633621 11.06645115 0 10 C-0.07205511 8.31391034 -0.08386068 6.62499341 -0.0625 4.9375 C-0.05347656 4.01839844 -0.04445313 3.09929687 -0.03515625 2.15234375 C-0.02355469 1.44207031 -0.01195312 0.73179687 0 0 Z " fill="#676CD4" transform="translate(434,163)"/>
<path d="M0 0 C0.33 1.32 0.66 2.64 1 4 C0.01 4.495 0.01 4.495 -1 5 C-0.979375 5.721875 -0.95875 6.44375 -0.9375 7.1875 C-0.99820559 9.91925138 -1.39258535 12.34256091 -2 15 C-2.99 14.67 -3.98 14.34 -5 14 C-5.33 15.98 -5.66 17.96 -6 20 C-5.34 19.67 -4.68 19.34 -4 19 C-4 19.99 -4 20.98 -4 22 C-5.32 22.33 -6.64 22.66 -8 23 C-7.67 23.99 -7.34 24.98 -7 26 C-10.26760563 31.63380282 -10.26760563 31.63380282 -13 33 C-13.37238718 35.32741989 -13.69836866 37.66235715 -14 40 C-14.61757973 42.34680297 -15.2833793 44.68152126 -16 47 C-16.309375 48.11375 -16.61875 49.2275 -16.9375 50.375 C-17.288125 51.24125 -17.63875 52.1075 -18 53 C-19.485 53.495 -19.485 53.495 -21 54 C-19.30583826 34.74187575 -10.5513771 15.98693501 0 0 Z " fill="#545EE6" transform="translate(169,130)"/>
<path d="M0 0 C-0.9992545 2.55723195 -1.66381944 3.7897249 -4.0234375 5.265625 C-4.79945313 5.59046875 -5.57546875 5.9153125 -6.375 6.25 C-7.53128906 6.75273437 -7.53128906 6.75273437 -8.7109375 7.265625 C-11 8 -11 8 -15 8 C-15.33 8.66 -15.66 9.32 -16 10 C-16.66 10.33 -17.32 10.66 -18 11 C-18.33 11.66 -18.66 12.32 -19 13 C-19.66 13 -20.32 13 -21 13 C-21.66 11.35 -22.32 9.7 -23 8 C-25.64 8 -28.28 8 -31 8 C-31 8.66 -31 9.32 -31 10 C-35.05676492 10.04954711 -39.11341194 10.085789 -43.17041016 10.10986328 C-44.54967315 10.11990253 -45.92891496 10.13353677 -47.30810547 10.15087891 C-49.2938514 10.17521754 -51.2797545 10.18543255 -53.265625 10.1953125 C-55.05661621 10.21102295 -55.05661621 10.21102295 -56.88378906 10.22705078 C-59.85798164 10.01034762 -61.50318379 9.56186122 -64 8 C-62.76507813 8.02320313 -61.53015625 8.04640625 -60.2578125 8.0703125 C-44.32702937 8.28107488 -29.39269327 7.76296677 -14.33203125 2.21875 C-3.94825475 -1.5793019 -3.94825475 -1.5793019 0 0 Z " fill="#5760CF" transform="translate(345,259)"/>
<path d="M0 0 C1.09151457 3.27454372 0.98796171 3.77235251 -0.1171875 6.8515625 C-0.38974365 7.61210937 -0.6622998 8.37265625 -0.94311523 9.15625 C-1.40439819 10.37828125 -1.40439819 10.37828125 -1.875 11.625 C-2.19090088 12.46804688 -2.50680176 13.31109375 -2.83227539 14.1796875 C-7.84753675 27.16808427 -14.34328386 39.07885675 -23 50 C-24.4783226 47.04335481 -24.06032783 44.25770263 -24 41 C-21.525 40.505 -21.525 40.505 -19 40 C-18.34 38.02 -17.68 36.04 -17 34 C-16.34 34 -15.68 34 -15 34 C-14.855625 33.38125 -14.71125 32.7625 -14.5625 32.125 C-14 30 -14 30 -13 28 C-12.34 28 -11.68 28 -11 28 C-11.33 25.36 -11.66 22.72 -12 20 C-11.01 20 -10.02 20 -9 20 C-6.58883496 14.02716478 -4.23713768 8.04027175 -2 2 C-1.34 2 -0.68 2 0 2 C0 1.34 0 0.68 0 0 Z " fill="#656CDB" transform="translate(436,250)"/>
<path d="M0 0 C1.12148438 0.00483398 1.12148438 0.00483398 2.265625 0.00976562 C3.02617187 0.01814453 3.78671875 0.02652344 4.5703125 0.03515625 C5.3540625 0.03966797 6.1378125 0.04417969 6.9453125 0.04882812 C8.86201264 0.06051532 10.77867298 0.07844717 12.6953125 0.09765625 C12.6953125 0.42765625 12.6953125 0.75765625 12.6953125 1.09765625 C-7.08268604 5.72221767 -27.14474082 5.54720994 -47.3046875 4.09765625 C-47.3046875 3.76765625 -47.3046875 3.43765625 -47.3046875 3.09765625 C-38.19798471 2.02259563 -29.10120745 1.75955467 -19.94140625 1.4921875 C-18.78769531 1.45480469 -17.63398438 1.41742188 -16.4453125 1.37890625 C-14.89118652 1.3334668 -14.89118652 1.3334668 -13.30566406 1.28710938 C-8.81785253 1.00379163 -4.51042016 -0.03469554 0 0 Z " fill="#6E76D7" transform="translate(318.3046875,354.90234375)"/>
<path d="M0 0 C-5.31263569 11.71830169 -20.49246713 21.32422547 -31 28 C-33.31640625 28.71875 -33.31640625 28.71875 -35 29 C-34.67 27.68 -34.34 26.36 -34 25 C-32.02 24.67 -30.04 24.34 -28 24 C-28 23.34 -28 22.68 -28 22 C-27.34 22 -26.68 22 -26 22 C-26 21.34 -26 20.68 -26 20 C-25.34 20 -24.68 20 -24 20 C-24 19.34 -24 18.68 -24 18 C-23.34 17.34 -22.68 16.68 -22 16 C-20.68 16 -19.36 16 -18 16 C-18 15.01 -18 14.02 -18 13 C-17.34 13 -16.68 13 -16 13 C-15.34 11.68 -14.68 10.36 -14 9 C-13.01 9 -12.02 9 -11 9 C-10.67 7.68 -10.34 6.36 -10 5 C-8.68 5.33 -7.36 5.66 -6 6 C-5.896875 5.38125 -5.79375 4.7625 -5.6875 4.125 C-4.72223986 1.14146864 -3.16449578 0 0 0 Z " fill="#6D72D8" transform="translate(403,311)"/>
<path d="M0 0 C0.33 0 0.66 0 1 0 C1.04898438 1.29035156 1.09796875 2.58070313 1.1484375 3.91015625 C1.22351803 5.62762347 1.29906354 7.34507041 1.375 9.0625 C1.4059375 9.91005859 1.436875 10.75761719 1.46875 11.63085938 C1.68032245 20.22917444 1.68032245 20.22917444 5.48046875 27.63671875 C6.04378906 27.98347656 6.60710937 28.33023437 7.1875 28.6875 C7.80238281 29.079375 8.41726562 29.47125 9.05078125 29.875 C10.98545797 30.991607 12.92670026 32.0948453 14.875 33.1875 C18 35 18 35 19 37 C17.3743193 36.69106068 15.74947252 36.3777305 14.125 36.0625 C13.22007812 35.88847656 12.31515625 35.71445312 11.3828125 35.53515625 C9 35 9 35 7 34 C7.33 33.34 7.66 32.68 8 32 C7.29875 32.268125 6.5975 32.53625 5.875 32.8125 C2.53988725 33.03000735 2.13449613 32.63169388 -0.3125 30.5625 C-1.199375 29.716875 -2.08625 28.87125 -3 28 C-2.01 27.67 -1.02 27.34 0 27 C0 18.09 0 9.18 0 0 Z " fill="#5C66DE" transform="translate(197,235)"/>
<path d="M0 0 C4.02212077 3.46047327 5.98508021 7.43577717 8.25 12.125 C8.61351562 12.85332031 8.97703125 13.58164063 9.3515625 14.33203125 C12 19.71851504 12 19.71851504 12 22 C11.01 21.67 10.02 21.34 9 21 C9 20.01 9 19.02 9 18 C8.01 18 7.02 18 6 18 C5.34 19.32 4.68 20.64 4 22 C3.34 22 2.68 22 2 22 C2 19.03 2 16.06 2 13 C2.66 12.67 3.32 12.34 4 12 C4 11.34 4 10.68 4 10 C2.02 10 0.04 10 -2 10 C-1.34 9.67 -0.68 9.34 0 9 C0 6.03 0 3.06 0 0 Z " fill="#5662EB" transform="translate(418,131)"/>
<path d="M0 0 C-2.93482424 1.67038749 -5.08065694 2.20196271 -8.4375 2.3125 C-12.00369394 2.65381889 -13.00021383 3.00015274 -16.0625 5.1875 C-18.30793205 8.44699813 -18.45063661 10.12452513 -18 14 C-18.99 14.33 -19.98 14.66 -21 15 C-20.7451971 16.96048352 -20.47063056 18.91840673 -20.1875 20.875 C-19.96126953 22.51082031 -19.96126953 22.51082031 -19.73046875 24.1796875 C-19.25334259 27.31238846 -19.25334259 27.31238846 -16 29 C-16 29.99 -16 30.98 -16 32 C-18.67220225 31.02019251 -19.78464124 30.41782633 -21.109375 27.84765625 C-22.96979083 21.89922142 -23.24769638 14.42845267 -21.1015625 8.53125 C-20 6.625 -20 6.625 -18 4 C-17.34 4 -16.68 4 -16 4 C-16 3.34 -16 2.68 -16 2 C-10.23826317 -1.06475363 -6.37259801 -1.19937786 0 0 Z " fill="#6268C5" transform="translate(268,201)"/>
<path d="M0 0 C0.66 0.33 1.32 0.66 2 1 C1.34 1.66 0.68 2.32 0 3 C-0.24360073 6.12814514 -0.24360073 6.12814514 -0.125 9.625 C-0.10695313 10.81351563 -0.08890625 12.00203125 -0.0703125 13.2265625 C-0.04710937 14.14179688 -0.02390625 15.05703125 0 16 C-0.66 16 -1.32 16 -2 16 C-1.67 17.65 -1.34 19.3 -1 21 C-0.67 21 -0.34 21 0 21 C0.309375 22.11375 0.61875 23.2275 0.9375 24.375 C1.82326483 27.7945155 1.82326483 27.7945155 3 30 C-0.40142464 28.86619179 -1.95711501 27.43959146 -3.9765625 24.49609375 C-6.21602234 19.03420506 -5.89903104 12.74759843 -5 7 C-3.49551477 4.40513538 -2.12359189 2.12359189 0 0 Z " fill="#5861E2" transform="translate(314,205)"/>
<path d="M0 0 C1.17369141 0.25716797 1.17369141 0.25716797 2.37109375 0.51953125 C4.5625 1.1875 4.5625 1.1875 7.5625 3.1875 C9.83788323 3.85363335 9.83788323 3.85363335 12.25 4.3125 C13.05824219 4.48007812 13.86648438 4.64765625 14.69921875 4.8203125 C15.31410156 4.94148438 15.92898438 5.06265625 16.5625 5.1875 C16.5625 5.5175 16.5625 5.8475 16.5625 6.1875 C12.15187864 7.2132259 9.63619424 7.22434712 5.5625 5.1875 C5.5625 4.5275 5.5625 3.8675 5.5625 3.1875 C4.9025 3.1875 4.2425 3.1875 3.5625 3.1875 C4.95445915 5.9714183 6.71825779 6.16648997 9.5625 7.1875 C9.2325 8.8375 8.9025 10.4875 8.5625 12.1875 C8.2325 11.5275 7.9025 10.8675 7.5625 10.1875 C7.8925 9.5275 8.2225 8.8675 8.5625 8.1875 C7.758125 8.125625 6.95375 8.06375 6.125 8 C1.3989549 6.92213007 -2.31263427 4.67158581 -6.4375 2.1875 C-6.4375 1.5275 -6.4375 0.8675 -6.4375 0.1875 C-3.85880631 -1.10184684 -2.77750765 -0.63394674 0 0 Z " fill="#565ECA" transform="translate(249.4375,258.8125)"/>
<path d="M0 0 C3.63 0 7.26 0 11 0 C11 0.99 11 1.98 11 3 C15.455 3.99 15.455 3.99 20 5 C20.33 4.01 20.66 3.02 21 2 C22.32 2 23.64 2 25 2 C24.67 3.32 24.34 4.64 24 6 C24.66 6.33 25.32 6.66 26 7 C25.67 7.66 25.34 8.32 25 9 C16.14308783 7.83461682 8.02604757 4.8191579 0 1 C0 0.67 0 0.34 0 0 Z " fill="#6B73DC" transform="translate(231,346)"/>
<path d="M0 0 C0.99 0.33 1.98 0.66 3 1 C2.125 7.875 2.125 7.875 1 9 C0.83989519 11.73701178 0.74053172 14.4516759 0.68359375 17.19140625 C0.66281265 18.01124496 0.64203156 18.83108368 0.62062073 19.67576599 C0.55503506 22.30458901 0.49619874 24.93351504 0.4375 27.5625 C0.39432333 29.34050561 0.35070933 31.11850065 0.30664062 32.89648438 C0.19934457 37.26421634 0.09810296 41.63205227 0 46 C-0.33 46 -0.66 46 -1 46 C-1.77472847 39.80217227 -2.19246183 33.74446778 -2.1875 27.5 C-2.18814453 26.6450293 -2.18878906 25.79005859 -2.18945312 24.90917969 C-2.12123505 16.51525596 -1.20388356 8.29819739 0 0 Z " fill="#8B8FDB" transform="translate(147,185)"/>
<path d="M0 0 C5.30267192 10.22658156 7.71583218 21.49366053 7 33 C6.34 33 5.68 33 5 33 C4.34 27.39 3.68 21.78 3 16 C2.34 16 1.68 16 1 16 C1.020625 15.195625 1.04125 14.39125 1.0625 13.5625 C1.29633621 11.06645115 1.29633621 11.06645115 0 10 C-0.07205511 8.31391034 -0.08386068 6.62499341 -0.0625 4.9375 C-0.05347656 4.01839844 -0.04445313 3.09929687 -0.03515625 2.15234375 C-0.02355469 1.44207031 -0.01195312 0.73179687 0 0 Z " fill="#8085D6" transform="translate(434,163)"/>
<path d="M0 0 C2 3 2 3 3 5 C2.01 6.485 2.01 6.485 1 8 C0.236875 7.814375 -0.52625 7.62875 -1.3125 7.4375 C-4.08967375 6.77180827 -4.08967375 6.77180827 -7 8 C-7.35412344 9.32796291 -7.68521554 10.66216607 -8 12 C-10.01826806 14.49880808 -12.166596 15.583298 -15 17 C-15.33 17.66 -15.66 18.32 -16 19 C-16.66 19 -17.32 19 -18 19 C-16.46781315 15.36938333 -14.2816856 13.0136227 -11.5 10.25 C-10.7059375 9.45078125 -9.911875 8.6515625 -9.09375 7.828125 C-7 6 -7 6 -5 6 C-4.67 5.01 -4.34 4.02 -4 3 C-1.9375 1.3125 -1.9375 1.3125 0 0 Z " fill="#7479E0" transform="translate(201,95)"/>
<path d="M0 0 C3.875 3.75 3.875 3.75 5 6 C5.99 6.33 6.98 6.66 8 7 C8 7.66 8 8.32 8 9 C10.97 9.495 10.97 9.495 14 10 C14.33 12.64 14.66 15.28 15 18 C13.68 17.34 12.36 16.68 11 16 C11 15.34 11 14.68 11 14 C10.401875 13.731875 9.80375 13.46375 9.1875 13.1875 C7.00152146 12.00082594 5.58667406 10.90400887 4 9 C4 8.34 4 7.68 4 7 C3.01 6.67 2.02 6.34 1 6 C-0.6875 3.4375 -0.6875 3.4375 -2 1 C-1.34 0.67 -0.68 0.34 0 0 Z " fill="#7A7FDA" transform="translate(182,306)"/>
<path d="M0 0 C-0.95113906 2.37784765 -1.56396976 3.73012225 -3.7734375 5.09765625 C-6.22427349 6.09088978 -8.24259748 6.36978517 -10.875 6.5625 C-14.62770582 6.87337504 -18.29277694 7.31709049 -22 8 C-20.25163085 4.5032617 -16.17661903 3.74312481 -12.6875 2.3125 C-11.91470703 1.97927734 -11.14191406 1.64605469 -10.34570312 1.30273438 C-9.59611328 0.99271484 -8.84652344 0.68269531 -8.07421875 0.36328125 C-7.04687622 -0.06537231 -7.04687622 -0.06537231 -5.9987793 -0.50268555 C-3.6515841 -1.08668904 -2.26793195 -0.76041864 0 0 Z " fill="#8185DE" transform="translate(248,72)"/>
<path d="M0 0 C0.99 0 1.98 0 3 0 C3 0.66 3 1.32 3 2 C3.66 2.33 4.32 2.66 5 3 C4.67 4.65 4.34 6.3 4 8 C4.66 8 5.32 8 6 8 C7.04892238 9.63631892 8.04906703 11.30485863 9 13 C9.33 13.33 9.66 13.66 10 14 C10.04092937 16.33297433 10.04241723 18.66705225 10 21 C10.66 21 11.32 21 12 21 C11.67 22.32 11.34 23.64 11 25 C9.53041303 22.33901948 8.07435684 19.67197381 6.625 17 C6.2125 16.25621094 5.8 15.51242187 5.375 14.74609375 C2.7489451 9.87518547 1.12148958 5.42258697 0 0 Z " fill="#7077D8" transform="translate(155,263)"/>
<path d="M0 0 C0.33 0 0.66 0 1 0 C1.22016692 6.07905324 1.01445836 11.18045363 -1 17 C-1.4640625 18.670625 -1.4640625 18.670625 -1.9375 20.375 C-2.288125 21.24125 -2.63875 22.1075 -3 23 C-3.99 23.33 -4.98 23.66 -6 24 C-4.97493351 15.51622606 -3.26431995 7.90726045 0 0 Z " fill="#767DD9" transform="translate(154,160)"/>
<path d="M0 0 C-2.85793316 2.85793316 -5.14665584 2.40799941 -9.125 2.625 C-10.40632813 2.69976562 -11.68765625 2.77453125 -13.0078125 2.8515625 C-13.99523437 2.90054688 -14.98265625 2.94953125 -16 3 C-16 3.66 -16 4.32 -16 5 C-19.96 4.67 -23.92 4.34 -28 4 C-20.08609189 -1.27593874 -9.17820573 -0.15977534 0 0 Z " fill="#666FD5" transform="translate(287,64)"/>
<path d="M0 0 C0 3.81711232 -1.27143795 5.44116184 -3.25 8.6875 C-6.05983778 13.37816225 -8.63168898 18.07391307 -11 23 C-11.33 23 -11.66 23 -12 23 C-12.19622241 18.78121808 -11.80230168 15.82989106 -10 12 C-9.01 12 -8.02 12 -7 12 C-7.061875 11.236875 -7.12375 10.47375 -7.1875 9.6875 C-6.96666486 6.52219632 -6.30301466 6.01513783 -4 4 C-4 3.34 -4 2.68 -4 2 C-2.68 1.34 -1.36 0.68 0 0 Z " fill="#5A61D0" transform="translate(224,155)"/>
<path d="M0 0 C0.33 0.99 0.66 1.98 1 3 C0.236875 3.268125 -0.52625 3.53625 -1.3125 3.8125 C-3.99106782 4.79264168 -3.99106782 4.79264168 -5.5 6.5625 C-7.53803502 8.51561689 -9.23390676 8.71629813 -12 9 C-12.66 8.67 -13.32 8.34 -14 8 C-14.33 8.66 -14.66 9.32 -15 10 C-18.81995829 11.61287128 -21.05432816 12.20681069 -25 11 C-24.03320312 10.62488281 -23.06640625 10.24976563 -22.0703125 9.86328125 C-14.52339353 6.90663621 -7.16706291 3.8111911 0 0 Z " fill="#595FC9" transform="translate(368,273)"/>
<path d="M0 0 C5.1239751 0.46047195 8.3275701 3.0789325 12.3125 6.0625 C12.95767578 6.53494141 13.60285156 7.00738281 14.26757812 7.49414062 C15.85070051 8.65509704 17.42613569 9.82652336 19 11 C15.25 13 15.25 13 13 13 C13.33 11.68 13.66 10.36 14 9 C10.41672247 7.99782936 10.41672247 7.99782936 7 9 C7 7.68 7 6.36 7 5 C6.34 5 5.68 5 5 5 C5 4.34 5 3.68 5 3 C3.35 2.67 1.7 2.34 0 2 C0 1.34 0 0.68 0 0 Z " fill="#686DD1" transform="translate(363,81)"/>
<path d="M0 0 C1.65 0 3.3 0 5 0 C5 0.66 5 1.32 5 2 C6.98 2 8.96 2 11 2 C8.10181338 4.29158942 5.16859456 6.07862366 1.875 7.75 C1.00617188 8.19859375 0.13734375 8.6471875 -0.7578125 9.109375 C-1.49773437 9.40328125 -2.23765625 9.6971875 -3 10 C-3.66 9.67 -4.32 9.34 -5 9 C-4.175 8.2575 -3.35 7.515 -2.5 6.75 C0.44844853 4.12612615 0.44844853 4.12612615 0 0 Z " fill="#6469DE" transform="translate(355,339)"/>
<path d="M0 0 C7.23820173 0.34467627 11.91590189 2.10214991 18 6 C17.34 6.66 16.68 7.32 16 8 C16 7.34 16 6.68 16 6 C14.95199219 6.01740234 14.95199219 6.01740234 13.8828125 6.03515625 C12.97273438 6.04417969 12.06265625 6.05320312 11.125 6.0625 C10.22007812 6.07410156 9.31515625 6.08570312 8.3828125 6.09765625 C6 6 6 6 4 5 C4 4.01 4 3.02 4 2 C2.68 2 1.36 2 0 2 C0 1.34 0 0.68 0 0 Z " fill="#767CDF" transform="translate(345,74)"/>
<path d="M0 0 C2 3 2 3 1.625 5.6875 C1.41875 6.450625 1.2125 7.21375 1 8 C1.66 8 2.32 8 3 8 C4.45184478 12.53701494 5.23509196 16.18061476 5 21 C5.66 21 6.32 21 7 21 C6.67 22.65 6.34 24.3 6 26 C3.33471769 23.33471769 2.84109464 20.42333511 1.9375 16.875 C1.7619458 16.19937012 1.5863916 15.52374023 1.40551758 14.82763672 C0.23473551 10.21001449 -0.7147574 5.75404341 -1 1 C-0.67 0.67 -0.34 0.34 0 0 Z " fill="#5860C9" transform="translate(382,188)"/>
<path d="M0 0 C0.33 0 0.66 0 1 0 C1 1.65 1 3.3 1 5 C1.66 5.33 2.32 5.66 3 6 C2.67 7.32 2.34 8.64 2 10 C-1.03852705 8.59023295 -3.5939595 6.91129772 -6.25 4.875 C-6.95640625 4.33617187 -7.6628125 3.79734375 -8.390625 3.2421875 C-8.92171875 2.83226562 -9.4528125 2.42234375 -10 2 C-8 1 -8 1 -4 1 C-4 1.66 -4 2.32 -4 3 C-3.01 2.67 -2.02 2.34 -1 2 C-0.67 1.34 -0.34 0.68 0 0 Z " fill="#6973D9" transform="translate(207,323)"/>
<path d="M0 0 C3 1 3 1 5 3 C5.309375 3.94875 5.61875 4.8975 5.9375 5.875 C6.79469372 8.95165565 6.79469372 8.95165565 8.5 10.9375 C10.54417916 13.74824635 11.16433831 16.65735325 12 20 C7.85963833 18.61987944 7.43334644 16.62745485 5.4375 12.8125 C4.83808594 11.68457031 4.23867188 10.55664062 3.62109375 9.39453125 C2.14268466 6.29877824 0.99954526 3.27711605 0 0 Z " fill="#5E65CC" transform="translate(366,159)"/>
<path d="M0 0 C0.66 0 1.32 0 2 0 C1.52449439 1.48034764 1.04448784 2.95925021 0.5625 4.4375 C0.29566406 5.26121094 0.02882813 6.08492187 -0.24609375 6.93359375 C-1 9 -1 9 -2 10 C-4.02408755 9.90997602 -6.04544287 9.75358962 -8.0625 9.5625 C-9.16722656 9.46066406 -10.27195312 9.35882813 -11.41015625 9.25390625 C-12.26480469 9.17011719 -13.11945313 9.08632812 -14 9 C-14 8.67 -14 8.34 -14 8 C-11.98177083 8.03255208 -9.96354167 8.06510417 -7.9453125 8.09765625 C-5.91814596 8.12649242 -5.91814596 8.12649242 -4 7 C-3.31867549 5.33927151 -2.65257873 3.672233 -2 2 C-1.34 1.34 -0.68 0.68 0 0 Z " fill="#535BCD" transform="translate(318,139)"/>
<path d="M0 0 C0.66 0 1.32 0 2 0 C2.56610454 4.83842472 0.90828272 7.04082085 -2 10.8125 C-2.7425 11.78832031 -3.485 12.76414062 -4.25 13.76953125 C-4.8275 14.50558594 -5.405 15.24164063 -6 16 C-7.4783226 13.04335481 -7.06032783 10.25770263 -7 7 C-5.35 6.67 -3.7 6.34 -2 6 C-1.34 4.02 -0.68 2.04 0 0 Z " fill="#6872D9" transform="translate(419,284)"/>
<path d="M0 0 C2.31 0 4.62 0 7 0 C6.07352464 1.65206447 5.13343426 3.2964997 4.1875 4.9375 C3.66542969 5.85402344 3.14335937 6.77054687 2.60546875 7.71484375 C1 10 1 10 -2 11 C-2.99 10.34 -3.98 9.68 -5 9 C-3.35 8.34 -1.7 7.68 0 7 C0 4.69 0 2.38 0 0 Z " fill="#E8ECF7" transform="translate(248,274)"/>
<path d="M0 0 C0.66 0.33 1.32 0.66 2 1 C1.67 1.66 1.34 2.32 1 3 C0.01 3.33 -0.98 3.66 -2 4 C-2.99 5.485 -2.99 5.485 -4 7 C-5.32520503 7.68268138 -6.65812182 8.3507041 -8 9 C-8.33 9.66 -8.66 10.32 -9 11 C-11.64860427 11.59355614 -14.29197322 11.74209269 -17 12 C-13.36743046 9.00767927 -9.61586825 6.34013291 -5.6875 3.75 C-4.08455078 2.69039063 -4.08455078 2.69039063 -2.44921875 1.609375 C-1.64097656 1.07828125 -0.83273437 0.5471875 0 0 Z " fill="#5E64CB" transform="translate(387,261)"/>
<path d="M0 0 C0.33 1.32 0.66 2.64 1 4 C0.01 4.495 0.01 4.495 -1 5 C-0.979375 5.721875 -0.95875 6.44375 -0.9375 7.1875 C-0.99820559 9.91925138 -1.39258535 12.34256091 -2 15 C-2.99 14.67 -3.98 14.34 -5 14 C-5.99 15.485 -5.99 15.485 -7 17 C-7.66 17 -8.32 17 -9 17 C-7.57997238 13.24069983 -5.87350167 9.77000304 -3.9375 6.25 C-3.14666016 4.80367187 -3.14666016 4.80367187 -2.33984375 3.328125 C-1 1 -1 1 0 0 Z " fill="#8088DF" transform="translate(169,130)"/>
<path d="M0 0 C2.07529546 1.70610544 2.92467642 2.69718908 3.58203125 5.33984375 C3.65808594 6.19707031 3.73414063 7.05429688 3.8125 7.9375 C3.90144531 8.79214844 3.99039062 9.64679688 4.08203125 10.52734375 C3.99271592 13.21956284 3.37443965 14.71280506 2 17 C1.87882812 16.14535156 1.75765625 15.29070312 1.6328125 14.41015625 C1.46523438 13.30542969 1.29765625 12.20070312 1.125 11.0625 C0.96257812 9.96035156 0.80015625 8.85820312 0.6328125 7.72265625 C0.42398437 6.82417969 0.21515625 5.92570313 0 5 C-0.66 4.67 -1.32 4.34 -2 4 C-1.34 2.68 -0.68 1.36 0 0 Z " fill="#6C72DB" transform="translate(276,208)"/>
<path d="M0 0 C1.65 0 3.3 0 5 0 C0.90328622 4.49316995 -3.71434062 7.97813973 -9 11 C-9.66 11 -10.32 11 -11 11 C-10.67 9.68 -10.34 8.36 -10 7 C-8.02 6.67 -6.04 6.34 -4 6 C-4 5.34 -4 4.68 -4 4 C-3.34 4 -2.68 4 -2 4 C-2 3.34 -2 2.68 -2 2 C-1.34 2 -0.68 2 0 2 C0 1.34 0 0.68 0 0 Z " fill="#888CD8" transform="translate(379,329)"/>
<path d="M0 0 C3.33511388 2.9901021 5.21521119 5.89498574 7 10 C7 10.66 7 11.32 7 12 C6.01 12 5.02 12 4 12 C4 11.34 4 10.68 4 10 C2.02 10 0.04 10 -2 10 C-1.34 9.67 -0.68 9.34 0 9 C0 6.03 0 3.06 0 0 Z " fill="#6067DD" transform="translate(418,131)"/>
<path d="M0 0 C0.66 0 1.32 0 2 0 C0.87204037 4.10899581 -0.33510818 8.07561214 -2 12 C-2.99 12 -3.98 12 -5 12 C-5 12.66 -5 13.32 -5 14 C-5.66 14 -6.32 14 -7 14 C-2.8 2.8 -2.8 2.8 0 0 Z " fill="#E8EEF8" transform="translate(220,164)"/>
<path d="M0 0 C0.625 3.0625 0.625 3.0625 1 6 C-0.32 4.35 -1.64 2.7 -3 1 C-3.83144531 1.2165625 -4.66289062 1.433125 -5.51953125 1.65625 C-6.60621094 1.9346875 -7.69289063 2.213125 -8.8125 2.5 C-9.89144531 2.7784375 -10.97039062 3.056875 -12.08203125 3.34375 C-15 4 -15 4 -18 4 C-18 3.01 -18 2.02 -18 1 C-4.73684211 -2.36842105 -4.73684211 -2.36842105 0 0 Z " fill="#6066CC" transform="translate(270,139)"/>
<path d="M0 0 C0.66 0.33 1.32 0.66 2 1 C1.45136137 7.7857936 0.45732062 14.35009036 -1 21 C-1.33 21 -1.66 21 -2 21 C-2.3690205 6.21867882 -2.3690205 6.21867882 0 0 Z " fill="#7A80D6" transform="translate(439,229)"/>
<path d="M0 0 C0.66 0.33 1.32 0.66 2 1 C2 2.32 2 3.64 2 5 C1.01 5 0.02 5 -1 5 C-1 5.66 -1 6.32 -1 7 C-1.66 7 -2.32 7 -3 7 C-3.2475 7.804375 -3.495 8.60875 -3.75 9.4375 C-5 12 -5 12 -7.125 12.8125 C-7.74375 12.874375 -8.3625 12.93625 -9 13 C-6.38888348 8.16459904 -3.62542917 4.12896099 0 0 Z " fill="#898DDF" transform="translate(181,114)"/>
<path d="M0 0 C0.33 0.99 0.66 1.98 1 3 C-3.84060277 6.06242216 -7.29290936 7.53411505 -13 8 C-9.81692689 4.43495812 -5.03655764 0 0 0 Z " fill="#7C81DF" transform="translate(226,80)"/>
<path d="M0 0 C2 1 4 2 6 3 C6.73075648 5.3140622 7.40138258 7.64828869 8 10 C8.66 10 9.32 10 10 10 C9.67 10.99 9.34 11.98 9 13 C5.41193683 9.61127367 2.54315201 6.23858668 0 2 C0 1.34 0 0.68 0 0 Z " fill="#7379D5" transform="translate(167,288)"/>
<path d="M0 0 C0.33 0.99 0.66 1.98 1 3 C0.01 3.33 -0.98 3.66 -2 4 C-1.7451971 5.96048352 -1.47063056 7.91840673 -1.1875 9.875 C-1.03667969 10.96554688 -0.88585937 12.05609375 -0.73046875 13.1796875 C-0.25334259 16.31238846 -0.25334259 16.31238846 3 18 C3 18.99 3 19.98 3 21 C0.29802267 20.00927498 -0.79013327 19.41384246 -2.11328125 16.8046875 C-3.10092237 13.680783 -3.30030638 11.08445348 -3.3125 7.8125 C-3.32925781 6.76707031 -3.34601563 5.72164062 -3.36328125 4.64453125 C-3.18345703 3.33548828 -3.18345703 3.33548828 -3 2 C-2.01 1.34 -1.02 0.68 0 0 Z " fill="#6269CB" transform="translate(249,212)"/>
<path d="M0 0 C1.32 0.33 2.64 0.66 4 1 C0.94627964 3.57725335 -1.7054171 4.69567868 -5.5625 5.6875 C-6.98755859 6.06455078 -6.98755859 6.06455078 -8.44140625 6.44921875 C-11 7 -11 7 -14 7 C-13.67 6.01 -13.34 5.02 -13 4 C-11.1746875 3.7834375 -11.1746875 3.7834375 -9.3125 3.5625 C-6.17329623 3.17219047 -3.0924866 2.67648144 0 2 C0 1.34 0 0.68 0 0 Z " fill="#8A8FD5" transform="translate(345,348)"/>
<path d="M0 0 C0.33 0.99 0.66 1.98 1 3 C1.99 3 2.98 3 4 3 C2.33248852 6.94139078 -0.22710649 9.7892812 -3 13 C-3.33 12.01 -3.66 11.02 -4 10 C-3.01 9.01 -2.02 8.02 -1 7 C-1.99 6.34 -2.98 5.68 -4 5 C-3.01 5 -2.02 5 -1 5 C-0.67 3.35 -0.34 1.7 0 0 Z " fill="#5D67D7" transform="translate(408,297)"/>
<path d="M0 0 C0.66 0 1.32 0 2 0 C2.33 1.65 2.66 3.3 3 5 C3.99 5.33 4.98 5.66 6 6 C5.34 7.98 4.68 9.96 4 12 C2 11 2 11 0.875 8.8125 C-0.08328236 5.73230669 -0.14915816 3.20690052 0 0 Z " fill="#5961DD" transform="translate(377,177)"/>
<path d="M0 0 C2 0 2 0 4.125 2 C4.74375 2.66 5.3625 3.32 6 4 C5.67 4.99 5.34 5.98 5 7 C1.71303767 7.79953138 0.28976808 8.09658936 -3 7 C-3 6.34 -3 5.68 -3 5 C-2.34 4.67 -1.68 4.34 -1 4 C-0.34786708 1.97536745 -0.34786708 1.97536745 0 0 Z " fill="#6673DD" transform="translate(396,105)"/>
<path d="M0 0 C6.93998648 2.16163513 13.43117569 4.8936214 20 8 C20 8.33 20 8.66 20 9 C18.35 9 16.7 9 15 9 C15 8.34 15 7.68 15 7 C13.2365625 6.9071875 13.2365625 6.9071875 11.4375 6.8125 C6.50211051 6.22306846 3.77706712 4.14755593 0 1 C0 0.67 0 0.34 0 0 Z " fill="#565DC5" transform="translate(220,274)"/>
<path d="M0 0 C1.3274855 3.98245651 -0.00092171 6.44789543 -1.4375 10.1875 C-1.80198242 11.16879883 -1.80198242 11.16879883 -2.17382812 12.16992188 C-2.7743293 13.78303286 -3.38609203 15.3919435 -4 17 C-4.33 17 -4.66 17 -5 17 C-5.36263859 11.1977825 -4.25684543 7.36000789 -2 2 C-1.34 2 -0.68 2 0 2 C0 1.34 0 0.68 0 0 Z " fill="#8289DA" transform="translate(436,250)"/>
<path d="M0 0 C0.33 0.99 0.66 1.98 1 3 C1.66 3 2.32 3 3 3 C4.44207941 5.88415883 4.09394887 8.41721528 4.0625 11.625 C4.05347656 12.81351563 4.04445312 14.00203125 4.03515625 15.2265625 C4.02355469 16.14179688 4.01195312 17.05703125 4 18 C3.67 18 3.34 18 3 18 C2.49309416 15.93918639 1.99475381 13.87626474 1.5 11.8125 C1.2215625 10.66394531 0.943125 9.51539063 0.65625 8.33203125 C0.08504615 5.43181171 -0.13283779 2.93903615 0 0 Z " fill="#7D85DA" transform="translate(147,234)"/>
<path d="M0 0 C0.99 0.33 1.98 0.66 3 1 C3.02696365 2.79158489 3.04637917 4.58328473 3.0625 6.375 C3.07410156 7.37273437 3.08570313 8.37046875 3.09765625 9.3984375 C3 12 3 12 2 14 C1.34 14 0.68 14 0 14 C0.33 12.35 0.66 10.7 1 9 C0.01 8.67 -0.98 8.34 -2 8 C-2 7.34 -2 6.68 -2 6 C-1.01 6 -0.02 6 1 6 C0.67 4.02 0.34 2.04 0 0 Z " fill="#555EE1" transform="translate(434,238)"/>
<path d="M0 0 C0.66 0.33 1.32 0.66 2 1 C3.86135649 7.26983237 2.95618636 13.24258866 0 19 C-2.1875 21.0625 -2.1875 21.0625 -4 22 C-4 21.01 -4 20.02 -4 19 C-3.01 18.34 -2.02 17.68 -1 17 C-0.30378052 14.68993053 -0.30378052 14.68993053 0 12 C0.20625 11.030625 0.4125 10.06125 0.625 9.0625 C1.02518149 5.79435118 0.68675928 3.20487665 0 0 Z " fill="#565CBD" transform="translate(340,212)"/>
<path d="M0 0 C3.63 0 7.26 0 11 0 C11.33 1.32 11.66 2.64 12 4 C12.66 4.66 13.32 5.32 14 6 C8.93001981 5.34580901 4.58009223 3.1453591 0 1 C0 0.67 0 0.34 0 0 Z " fill="#8086DE" transform="translate(231,346)"/>
<path d="M0 0 C0 0.99 0 1.98 0 3 C-4.41062136 4.0257259 -6.92630576 4.03684712 -11 2 C-7.06425135 -0.62383243 -4.54354105 -1.51451368 0 0 Z " fill="#656BE0" transform="translate(335,262)"/>
<path d="M0 0 C0.99 0.99 1.98 1.98 3 3 C3.66 2.67 4.32 2.34 5 2 C5 4.31 5 6.62 5 9 C3.02 9.99 3.02 9.99 1 11 C-0.28317892 7.15046324 -0.06643637 4.05261865 0 0 Z " fill="#535ED8" transform="translate(147,226)"/>
<path d="M0 0 C3.84516615 3.54938414 7.15122083 7.61288008 10 12 C10 12.66 10 13.32 10 14 C9.01 14 8.02 14 7 14 C6.7525 13.21625 6.505 12.4325 6.25 11.625 C5.28554779 8.85211633 5.28554779 8.85211633 2.9375 8.125 C2.298125 7.75375 1.65875 7.3825 1 7 C0.25 3.375 0.25 3.375 0 0 Z " fill="#858EDE" transform="translate(408,117)"/>
<path d="M0 0 C3.49844386 0.63389235 5.84086876 2.05177694 8.75 4.0625 C9.94882813 4.88427734 9.94882813 4.88427734 11.171875 5.72265625 C12.07679688 6.35494141 12.07679688 6.35494141 13 7 C12.01 7.495 12.01 7.495 11 8 C10.236875 7.690625 9.47375 7.38125 8.6875 7.0625 C5.89416395 5.95815784 3.96891528 5.8303477 1 6 C1.33 4.35 1.66 2.7 2 1 C1.34 0.67 0.68 0.34 0 0 Z " fill="#5C61CD" transform="translate(203,264)"/>
<path d="M0 0 C2.9375 0.125 2.9375 0.125 6 1 C7.875 3.0625 7.875 3.0625 9 5 C6 6 6 6 3.95703125 5.22265625 C3.24933594 4.83980469 2.54164063 4.45695312 1.8125 4.0625 C1.09707031 3.68222656 0.38164062 3.30195313 -0.35546875 2.91015625 C-0.89816406 2.60980469 -1.44085938 2.30945313 -2 2 C-1.34 1.34 -0.68 0.68 0 0 Z " fill="#EAEDF8" transform="translate(218,270)"/>
<path d="M0 0 C3.98381075 2.16264012 6.88983545 4.71211176 10 8 C6 8 6 8 4 7 C4 6.34 4 5.68 4 5 C2.68 4.67 1.36 4.34 0 4 C0 2.68 0 1.36 0 0 Z " fill="#7A80D9" transform="translate(382,93)"/>
<path d="M0 0 C0.66 0.33 1.32 0.66 2 1 C1.34 1.66 0.68 2.32 0 3 C-0.165 3.680625 -0.33 4.36125 -0.5 5.0625 C-0.665 5.701875 -0.83 6.34125 -1 7 C-1.99 7.495 -1.99 7.495 -3 8 C-3.46898963 10.8159849 -3.46898963 10.8159849 -3.625 14.0625 C-3.69976562 15.16722656 -3.77453125 16.27195313 -3.8515625 17.41015625 C-3.90054687 18.26480469 -3.94953125 19.11945313 -4 20 C-4.33 20 -4.66 20 -5 20 C-5.68903554 7.09972357 -5.68903554 7.09972357 -3.0625 3.25 C-1 1 -1 1 0 0 Z " fill="#7177CC" transform="translate(314,205)"/>
<path d="M0 0 C-0.99766109 2.49415272 -1.68616685 3.78740335 -3.9375 5.3125 C-6 6 -6 6 -9 5 C-8.34 5 -7.68 5 -7 5 C-7 3.35 -7 1.7 -7 0 C-3.86650268 -1.04449911 -3.01031744 -0.93423645 0 0 Z " fill="#6F7AE3" transform="translate(248,72)"/>
<path d="M0 0 C0.66 0 1.32 0 2 0 C3.39151652 4.79300133 2.68662689 9.15135782 2 14 C1.34 13.67 0.68 13.34 0 13 C0 8.71 0 4.42 0 0 Z " fill="#5F66D9" transform="translate(197,221)"/>
<path d="M0 0 C0.33 0 0.66 0 1 0 C0.93999894 1.6260287 0.8512115 3.25101549 0.75 4.875 C0.70359375 5.77992188 0.6571875 6.68484375 0.609375 7.6171875 C0 10 0 10 -2.046875 11.3203125 C-2.69140625 11.54460937 -3.3359375 11.76890625 -4 12 C-3.45660208 7.43545749 -2.20536179 4.0271824 0 0 Z " fill="#7F84DB" transform="translate(159,148)"/>
<path d="M0 0 C0 0.99 0 1.98 0 3 C-4.20504758 4.20144217 -7.79495242 4.20144217 -12 3 C-8.2391768 -0.7608232 -5.0273023 -0.25136512 0 0 Z " fill="#737BE3" transform="translate(214,91)"/>
<path d="M0 0 C2.97 0.33 5.94 0.66 9 1 C9 1.66 9 2.32 9 3 C9.66 3.33 10.32 3.66 11 4 C10.67 4.66 10.34 5.32 10 6 C6.40992874 4.66654496 3.20429093 3.1056769 0 1 C0 0.67 0 0.34 0 0 Z " fill="#8185DC" transform="translate(220,340)"/>
<path d="M0 0 C2.64 0.99 5.28 1.98 8 3 C7.34 4.98 6.68 6.96 6 9 C4.68 8.34 3.36 7.68 2 7 C2.33 6.01 2.66 5.02 3 4 C2.01 3.34 1.02 2.68 0 2 C0 1.34 0 0.68 0 0 Z " fill="#EBEFFB" transform="translate(250,264)"/>
<path d="M0 0 C0.66 0.33 1.32 0.66 2 1 C1.67 1.66 1.34 2.32 1 3 C0.34 3 -0.32 3 -1 3 C-1.33 3.99 -1.66 4.98 -2 6 C-7.875 3.25 -7.875 3.25 -9 1 C-7.88625 1.020625 -6.7725 1.04125 -5.625 1.0625 C-2.16784079 1.26380718 -2.16784079 1.26380718 0 0 Z " fill="#7178DD" transform="translate(218,332)"/>
<path d="M0 0 C0 0.33 0 0.66 0 1 C-2.31 1.33 -4.62 1.66 -7 2 C-6.67 2.66 -6.34 3.32 -6 4 C-8.31 4.33 -10.62 4.66 -13 5 C-13 4.01 -13 3.02 -13 2 C-8.50343896 -0.24828052 -4.92127034 -0.16682272 0 0 Z " fill="#7479E4" transform="translate(330,200)"/>
<path d="M0 0 C0.80824219 0.10183594 1.61648438 0.20367187 2.44921875 0.30859375 C3.06410156 0.39238281 3.67898438 0.47617188 4.3125 0.5625 C0.97938525 2.3449918 -1.93230943 3.05042856 -5.6875 3.5625 C-6.3475 2.5725 -7.0075 1.5825 -7.6875 0.5625 C-4.59271121 -0.46909626 -3.16118607 -0.41232862 0 0 Z " fill="#6E73D9" transform="translate(263.6875,200.4375)"/>
<path d="M0 0 C2.24973447 -0.054138 4.49984383 -0.09285491 6.75 -0.125 C8.00296875 -0.14820313 9.2559375 -0.17140625 10.546875 -0.1953125 C13.72820492 -0.01537302 15.36521896 0.31001418 18 2 C13.90274731 3.04167441 10.38504776 2.94409525 6.1875 2.5625 C5.02605469 2.46066406 3.86460937 2.35882813 2.66796875 2.25390625 C1.78753906 2.17011719 0.90710938 2.08632812 0 2 C0 1.34 0 0.68 0 0 Z " fill="#5D65E6" transform="translate(288,145)"/>
<path d="M0 0 C6.4 0.49230769 6.4 0.49230769 9.4375 3.0625 C10.2109375 4.0215625 10.2109375 4.0215625 11 5 C9.68 5.33 8.36 5.66 7 6 C6.67 4.68 6.34 3.36 6 2 C5.01 2 4.02 2 3 2 C2.67 2.99 2.34 3.98 2 5 C1.34 4.67 0.68 4.34 0 4 C0 2.68 0 1.36 0 0 Z " fill="#5660E4" transform="translate(354,79)"/>
<path d="M0 0 C2.475 0.495 2.475 0.495 5 1 C5.309375 2.11375 5.61875 3.2275 5.9375 4.375 C6.82326483 7.7945155 6.82326483 7.7945155 8 10 C4.69713914 8.89904638 4.21489099 8.3103981 2.3125 5.5625 C1.65701172 4.63630859 1.65701172 4.63630859 0.98828125 3.69140625 C0 2 0 2 0 0 Z " fill="#585DC4" transform="translate(309,225)"/>
<path d="M0 0 C-1.5830577 4.2742558 -4.50568404 6.26531794 -8 9 C-8 8.01 -8 7.02 -8 6 C-7.34 6 -6.68 6 -6 6 C-5.896875 5.38125 -5.79375 4.7625 -5.6875 4.125 C-4.72223986 1.14146864 -3.16449578 0 0 0 Z " fill="#838BDA" transform="translate(403,311)"/>
<path d="M0 0 C0.99 0 1.98 0 3 0 C4.04127245 3.3131396 4.18574123 4.60198308 2.6875 7.8125 C2.130625 8.534375 1.57375 9.25625 1 10 C0.34 10 -0.32 10 -1 10 C-0.835 9.0925 -0.67 8.185 -0.5 7.25 C0.10137146 3.88912497 0.10137146 3.88912497 0 0 Z " fill="#5C63CC" transform="translate(275,222)"/>
<path d="M0 0 C0.99 0.66 1.98 1.32 3 2 C1.07423885 4.43929746 -0.80090595 6.80090595 -3 9 C-3.1875 5.625 -3.1875 5.625 -3 2 C-2.01 1.34 -1.02 0.68 0 0 Z " fill="#EDF1FB" transform="translate(312,203)"/>
<path d="M0 0 C0.99 0 1.98 0 3 0 C1.90931332 3.77545388 1.0916909 6.47043472 -2 9 C-2.25 3.375 -2.25 3.375 0 0 Z " fill="#787DD9" transform="translate(423,278)"/>
<path d="M0 0 C3.8665284 3.222107 4.88059018 6.14922412 6 11 C2.48389346 8.65592898 1.64205038 6.83145088 0 3 C0 2.01 0 1.02 0 0 Z " fill="#E9EFFB" transform="translate(367,164)"/>
<path d="M0 0 C-1.39253532 3.48133831 -2.63176216 4.47886033 -6 6 C-6.33 6.66 -6.66 7.32 -7 8 C-7.66 8 -8.32 8 -9 8 C-7.13554727 3.64961029 -5.02378599 0 0 0 Z " fill="#6E73D1" transform="translate(192,106)"/>
<path d="M0 0 C0.66 0.66 1.32 1.32 2 2 C2.66 2.33 3.32 2.66 4 3 C4.40729228 5.32156597 4.74438677 7.6568787 5 10 C4.01 9.67 3.02 9.34 2 9 C2 7.68 2 6.36 2 5 C1.34 5 0.68 5 0 5 C0 3.35 0 1.7 0 0 Z " fill="#525ADE" transform="translate(165,279)"/>
<path d="M0 0 C1.65 0.33 3.3 0.66 5 1 C4.67 2.32 4.34 3.64 4 5 C2.35 5 0.7 5 -1 5 C-0.67 3.35 -0.34 1.7 0 0 Z " fill="#565FE4" transform="translate(336,347)"/>
<path d="M0 0 C2.0625 0.4375 2.0625 0.4375 4 1 C4.66 0.67 5.32 0.34 6 0 C6.66 0.66 7.32 1.32 8 2 C4.37 2.66 0.74 3.32 -3 4 C-3 3.34 -3 2.68 -3 2 C-2.01 1.34 -1.02 0.68 0 0 Z " fill="#DAE2F7" transform="translate(314,263)"/>
<path d="M0 0 C2.02045442 0.60183749 4.02111039 1.27306096 6 2 C6.33 2.66 6.66 3.32 7 4 C3.7 3.67 0.4 3.34 -3 3 C-2.01 2.01 -1.02 1.02 0 0 Z " fill="#E7EDF6" transform="translate(273,263)"/>
<path d="M0 0 C1.46015291 0.28241641 2.91809793 0.57626614 4.375 0.875 C5.18710937 1.03742188 5.99921875 1.19984375 6.8359375 1.3671875 C9 2 9 2 11 4 C8 4 8 4 6 3 C5.67 3.66 5.34 4.32 5 5 C4.01 4.01 3.02 3.02 2 2 C1.01 2.495 1.01 2.495 0 3 C0 2.01 0 1.02 0 0 Z " fill="#E4EAF7" transform="translate(345,146)"/>
<path d="M0 0 C2.69921875 0.6796875 2.69921875 0.6796875 5.6875 1.875 C7.17830078 2.45894531 7.17830078 2.45894531 8.69921875 3.0546875 C9.83810547 3.52261719 9.83810547 3.52261719 11 4 C11 4.33 11 4.66 11 5 C6.02906176 4.58846263 1.55491614 4.20399168 -3 2 C-2.01 1.34 -1.02 0.68 0 0 Z " fill="#4D56CB" transform="translate(322,136)"/>
<path d="M0 0 C0.721875 0.103125 1.44375 0.20625 2.1875 0.3125 C1.1875 2.3125 1.1875 2.3125 -0.87890625 3.1640625 C-2.11447266 3.54691406 -2.11447266 3.54691406 -3.375 3.9375 C-4.61443359 4.32808594 -4.61443359 4.32808594 -5.87890625 4.7265625 C-6.51699219 4.91992188 -7.15507812 5.11328125 -7.8125 5.3125 C-3.50480769 0.38942308 -3.50480769 0.38942308 0 0 Z " fill="#8E93DA" transform="translate(357.8125,343.6875)"/>
<path d="M0 0 C3.63 0 7.26 0 11 0 C10.67 0.99 10.34 1.98 10 3 C6.7 2.34 3.4 1.68 0 1 C0 0.67 0 0.34 0 0 Z " fill="#6970E4" transform="translate(216,338)"/>
<path d="M0 0 C-0.33 0.99 -0.66 1.98 -1 3 C-3.9375 2.625 -3.9375 2.625 -7 2 C-7.33 1.34 -7.66 0.68 -8 0 C-4.94736336 -0.98120464 -3.05263664 -0.98120464 0 0 Z " fill="#585AC2" transform="translate(345,259)"/>
<path d="M0 0 C4.875 4.625 4.875 4.625 6 8 C4.68 7.67 3.36 7.34 2 7 C1.67 5.68 1.34 4.36 1 3 C0.34 3 -0.32 3 -1 3 C-0.67 2.01 -0.34 1.02 0 0 Z " fill="#E8EDFC" transform="translate(309,227)"/>
<path d="M0 0 C1.32 0.33 2.64 0.66 4 1 C4 3.83967231 3.59732819 6.23735711 3 9 C2.67 9 2.34 9 2 9 C1.34 6.03 0.68 3.06 0 0 Z " fill="#F1F5FD" transform="translate(277,208)"/>
<path d="M0 0 C3.465 1.98 3.465 1.98 7 4 C6.01 4.495 6.01 4.495 5 5 C4.67 5.66 4.34 6.32 4 7 C3.67 6.01 3.34 5.02 3 4 C0.49552484 2.78130071 0.49552484 2.78130071 -2 2 C-1.34 1.34 -0.68 0.68 0 0 Z " fill="#E4EBFA" transform="translate(271,200)"/>
<path d="M0 0 C1.6266848 0.28211877 3.25132896 0.57602375 4.875 0.875 C5.77992188 1.03742188 6.68484375 1.19984375 7.6171875 1.3671875 C10 2 10 2 12 4 C7.75519536 4.33292585 5.64457375 4.43885872 2.0625 2 C1.381875 1.34 0.70125 0.68 0 0 Z " fill="#9196DE" transform="translate(337,70)"/>
<path d="M0 0 C0.70125 0.309375 1.4025 0.61875 2.125 0.9375 C5.08936657 2.03302678 7.87698108 2.56422992 11 3 C11 3.33 11 3.66 11 4 C8.98177083 3.96744792 6.96354167 3.93489583 4.9453125 3.90234375 C2.91814596 3.87350758 2.91814596 3.87350758 1 5 C0.67 3.35 0.34 1.7 0 0 Z " fill="#D9DDF8" transform="translate(316,235)"/>
<path d="M0 0 C0.33 0.99 0.66 1.98 1 3 C0.01 3.33 -0.98 3.66 -2 4 C-2 6.64 -2 9.28 -2 12 C-2.33 12 -2.66 12 -3 12 C-3.08090971 10.37581255 -3.13914995 8.75048255 -3.1875 7.125 C-3.22230469 6.22007812 -3.25710937 5.31515625 -3.29296875 4.3828125 C-3.19628906 3.59648437 -3.09960938 2.81015625 -3 2 C-2.01 1.34 -1.02 0.68 0 0 Z " fill="#4E57CB" transform="translate(249,212)"/>
<path d="M0 0 C0.66 0.66 1.32 1.32 2 2 C0.68 2.33 -0.64 2.66 -2 3 C-2 3.66 -2 4.32 -2 5 C-2.99 5.33 -3.98 5.66 -5 6 C-5.66 5.67 -6.32 5.34 -7 5 C-5.42898506 1.85797013 -3.23027335 1.07675778 0 0 Z " fill="#EDF2FA" transform="translate(254,200)"/>
<path d="M0 0 C2.64465038 3.1254959 3.84414715 6.08788267 5 10 C2 9 2 9 0.8125 6.6875 C0 4 0 4 0 0 Z " fill="#8687D9" transform="translate(425,143)"/>
<path d="M0 0 C-0.99 0.33 -1.98 0.66 -3 1 C-3 1.66 -3 2.32 -3 3 C-5.64 3 -8.28 3 -11 3 C-6.86621405 0.2441427 -4.94796454 -0.10756445 0 0 Z " fill="#868BE2" transform="translate(259,68)"/>
<path d="M0 0 C-0.33 0.66 -0.66 1.32 -1 2 C-4.47325181 3.1577506 -7.36067448 3.06866652 -11 3 C-7.11595442 0.41063628 -4.5725325 -0.12358196 0 0 Z " fill="#959CDE" transform="translate(270,65)"/>
<path d="M0 0 C0.66 0.99 1.32 1.98 2 3 C0.35 4.98 -1.3 6.96 -3 9 C-3.33 8.01 -3.66 7.02 -4 6 C-3.525625 5.566875 -3.05125 5.13375 -2.5625 4.6875 C-0.76313043 2.97690387 -0.76313043 2.97690387 0 0 Z " fill="#7D82D4" transform="translate(408,301)"/>
<path d="M0 0 C2.9719385 1.12451727 5.33440687 2.22293791 8 4 C7.34 4 6.68 4 6 4 C5.67 4.66 5.34 5.32 5 6 C3.2925002 4.71937515 1.62626404 3.38232443 0 2 C0 1.34 0 0.68 0 0 Z " fill="#EBF0FA" transform="translate(203,261)"/>
<path d="M0 0 C0.99 0.33 1.98 0.66 3 1 C2.74438677 3.3431213 2.40729228 5.67843403 2 8 C1.01 8.495 1.01 8.495 0 9 C0 6.03 0 3.06 0 0 Z " fill="#6E77CD" transform="translate(147,185)"/>
<path d="M0 0 C2.18975773 3.28463659 2.99806563 6.20696275 4 10 C2.68 9.34 1.36 8.68 0 8 C0 5.36 0 2.72 0 0 Z " fill="#8D95DE" transform="translate(430,153)"/>
<path d="M0 0 C1.485 0.99 1.485 0.99 3 2 C3 2.33 3 2.66 3 3 C3.33 3.99 3.66 4.98 4 6 C2.68 6 1.36 6 0 6 C-0.38218767 4.34385343 -0.71395102 2.67542976 -1 1 C-0.67 0.67 -0.34 0.34 0 0 Z " fill="#5C66E3" transform="translate(161,146)"/>
<path d="M0 0 C0.66 0 1.32 0 2 0 C1.25 2.4375 1.25 2.4375 0 5 C-2.125 5.8125 -2.125 5.8125 -4 6 C-1.125 1.125 -1.125 1.125 0 0 Z " fill="#7B7FD5" transform="translate(176,121)"/>
<path d="M0 0 C0.33 0 0.66 0 1 0 C1.36923077 5.53846154 1.36923077 5.53846154 -0.5 7.875 C-1.2425 8.431875 -1.2425 8.431875 -2 9 C-1.125 2.25 -1.125 2.25 0 0 Z " fill="#7478D6" transform="translate(430,264)"/>
<path d="M0 0 C2.475 0.99 2.475 0.99 5 2 C3.6875 4 3.6875 4 2 6 C1.01 6 0.02 6 -1 6 C-0.67 4.02 -0.34 2.04 0 0 Z " fill="#DFE3F5" transform="translate(344,258)"/>
<path d="M0 0 C1.125 1.75 1.125 1.75 2 4 C1.3125 6.1875 1.3125 6.1875 0 8 C-0.99 8.33 -1.98 8.66 -3 9 C-3 6 -3 6 -1 4 C-0.3574765 1.93125966 -0.3574765 1.93125966 0 0 Z " fill="#E7EBFB" transform="translate(341,226)"/>
<path d="M0 0 C1.98 0.99 3.96 1.98 6 3 C6 3.33 6 3.66 6 4 C3.36 4.33 0.72 4.66 -2 5 C-1.34 3.35 -0.68 1.7 0 0 Z " fill="#5C65D3" transform="translate(268,201)"/>
<path d="M0 0 C2.79872437 2.52788007 4.45773019 4.20411134 5 8 C3.68 7.67 2.36 7.34 1 7 C0.67 4.69 0.34 2.38 0 0 Z " fill="#8F93DE" transform="translate(418,131)"/>
<path d="M0 0 C0.99 0 1.98 0 3 0 C4.125 3.75 4.125 3.75 3 6 C1.66666667 5.33333333 0.33333333 4.66666667 -1 4 C-0.67 2.68 -0.34 1.36 0 0 Z " fill="#525DD6" transform="translate(202,95)"/>
<path d="M0 0 C2.97 1.98 2.97 1.98 6 4 C2.25 6 2.25 6 0 6 C0 4.02 0 2.04 0 0 Z " fill="#7275D7" transform="translate(376,88)"/>
<path d="M0 0 C3.68754757 0.49831724 5.60490662 1.10067643 8 4 C7.01 4.33 6.02 4.66 5 5 C5 4.34 5 3.68 5 3 C3.35 2.67 1.7 2.34 0 2 C0 1.34 0 0.68 0 0 Z " fill="#9396DD" transform="translate(363,81)"/>
</svg>
