<?xml version="1.0" encoding="UTF-8"?>
<svg version="1.1" xmlns="http://www.w3.org/2000/svg" width="500" height="500">
<path d="M0 0 C0.6909375 0.23831543 1.381875 0.47663086 2.09375 0.72216797 C12.51633139 4.31726766 22.2466141 8.88186294 32 14 C33.36445064 14.70468407 34.729034 15.40911123 36.09375 16.11328125 C42.37030213 19.3793466 48.32738588 22.74553941 54 27 C54.99 27.33 55.98 27.66 57 28 C57 28.66 57 29.32 57 30 C58.01707031 30.32484375 58.01707031 30.32484375 59.0546875 30.65625 C62.89655432 32.40903804 65.86583637 34.84463932 69.125 37.5 C70.35605456 38.49047425 71.58780055 39.48008987 72.8203125 40.46875 C73.62879639 41.12520508 73.62879639 41.12520508 74.45361328 41.79492188 C75.91615173 42.93465818 77.45722134 43.97148089 79 45 C79 45.66 79 46.32 79 47 C79.8353125 47.3403125 79.8353125 47.3403125 80.6875 47.6875 C83.67961603 49.38572802 85.61600535 51.50764196 88 54 C89.33062607 55.33603511 90.66415805 56.66918001 92 58 C92.68320312 58.68578125 93.36640625 59.3715625 94.0703125 60.078125 C95.65309545 61.65449992 97.26071453 63.20590085 98.875 64.75 C100.80167028 66.79000383 101.94947048 68.42142754 103 71 C103.66 71 104.32 71 105 71 C106.68791775 72.98666425 108.26012736 74.97381701 109.8125 77.0625 C110.26028809 77.65651611 110.70807617 78.25053223 111.16943359 78.86254883 C112.45291524 80.57020038 113.72718182 82.28439411 115 84 C115.58394531 84.77601562 116.16789062 85.55203125 116.76953125 86.3515625 C120 90.72712536 120 90.72712536 120 93 C120.66 93 121.32 93 122 93 C122.268125 93.48726563 122.53625 93.97453125 122.8125 94.4765625 C125.14531072 98.69710821 127.50770519 102.89884192 129.90869141 107.08105469 C130.94936277 108.89568525 131.98487834 110.71318225 133.01953125 112.53125 C134.21301949 114.62161993 135.41589598 116.70672539 136.63671875 118.78125 C140.75950307 125.96636493 143.55102152 133.43928987 146.34033203 141.20800781 C147.1774453 143.48203127 148.11495579 145.70753651 149.0625 147.9375 C156.93063325 167.47669757 159.66614179 188.21634036 162 209 C162.09861328 209.87640137 162.19722656 210.75280273 162.29882812 211.65576172 C166.05190729 246.81725341 159.50043029 286.7662566 145 319 C144.2915867 320.81246875 143.58325739 322.62497032 142.875 324.4375 C136.86398091 338.79610986 129.25431302 352.50289451 120.26904297 365.203125 C118.90448605 367.13524099 117.56334796 369.0825105 116.22265625 371.03125 C115.31628175 372.33415332 114.40876594 373.63626356 113.5 374.9375 C113.078396 375.54779053 112.65679199 376.15808105 112.22241211 376.78686523 C111.19895702 378.2285965 110.10553744 379.62020424 109 381 C108.34 381 107.68 381 107 381 C106.77054687 381.5465625 106.54109375 382.093125 106.3046875 382.65625 C101.90718811 390.55594951 93.77764723 397.31499256 87.4375 403.75 C86.92525879 404.27529297 86.41301758 404.80058594 85.88525391 405.34179688 C84.6289216 406.60108725 83.31870395 407.80618134 82 409 C81.34 409 80.68 409 80 409 C79.67 409.99 79.34 410.98 79 412 C77.00390625 413.82421875 77.00390625 413.82421875 74.5625 415.6875 C73.75941406 416.31011719 72.95632813 416.93273437 72.12890625 417.57421875 C70 419 70 419 68 419 C68 419.66 68 420.32 68 421 C65.9055032 422.63429751 63.82217909 424.14167234 61.625 425.625 C61.02171875 426.04523438 60.4184375 426.46546875 59.796875 426.8984375 C55.26537135 430 55.26537135 430 53 430 C53 430.66 53 431.32 53 432 C50.48046875 433.7265625 50.48046875 433.7265625 47.1875 435.625 C46.10855469 436.25664062 45.02960938 436.88828125 43.91796875 437.5390625 C41 439 41 439 38 439 C38 439.66 38 440.32 38 441 C36.96101563 441.51949219 35.92203125 442.03898437 34.8515625 442.57421875 C34.18044434 442.9101001 33.50932617 443.24598145 32.81787109 443.59204102 C31.35048509 444.32508054 29.88204997 445.05602355 28.41259766 445.78491211 C25.22005557 447.37130567 22.05175297 448.97175917 18.921875 450.6796875 C12.87063918 453.96517443 12.87063918 453.96517443 8.875 454.125 C1.13735465 451.09722573 -3.46632106 447.3497816 -7.08361816 439.7119751 C-8.15443079 436.54297169 -8.2652714 433.95232374 -8.28710938 430.60839844 C-8.30052368 429.33647644 -8.31393799 428.06455444 -8.32775879 426.75408936 C-8.33032181 426.07911156 -8.33288483 425.40413376 -8.33552551 424.70870209 C-8.34386454 422.58013811 -8.36441756 420.45199302 -8.38806152 418.32354736 C-8.43616268 413.79909444 -8.46913873 409.27459901 -8.5 404.75 C-8.53581562 399.51687824 -8.57801357 394.28396063 -8.63594055 389.05103302 C-8.65581106 386.96789184 -8.66428962 384.88491231 -8.67224121 382.80169678 C-8.74452255 375.88016137 -9.16742501 369.68179688 -11 363 C-11.27199219 362.00613281 -11.54398437 361.01226562 -11.82421875 359.98828125 C-15.24183123 349.395229 -19.76478595 339.06318137 -26.93359375 330.453125 C-28 329 -28 329 -28 327 C-28.66 327 -29.32 327 -30 327 C-30 326.01 -30 325.02 -30 324 C-28.27330078 323.5978125 -28.27330078 323.5978125 -26.51171875 323.1875 C-14.4544295 320.26231345 -3.24791785 316.22764842 8 311 C8.68223633 310.68595215 9.36447266 310.3719043 10.06738281 310.04833984 C14.89104167 307.74365107 19.10366049 304.9511782 23.375 301.75 C29.73946629 297 29.73946629 297 32 297 C32.3403125 296.1646875 32.3403125 296.1646875 32.6875 295.3125 C34.37367031 292.34162851 36.55387116 290.39177042 39 288 C55.26167585 271.35021733 61.79739846 248.84318461 62.15234375 226.00390625 C62.08603654 220.87012079 61.47055362 215.88092167 60.6875 210.8125 C60.56955078 209.96236328 60.45160156 209.11222656 60.33007812 208.23632812 C59.54448821 203.01920533 58.25483484 198.76617205 56 194 C55.566875 192.7625 55.13375 191.525 54.6875 190.25 C53.44799003 186.76597197 51.70067555 183.88549696 49.75 180.75 C45.3060891 172.74434413 47.21432538 165.81019038 49.5625 157.375 C53.51478811 141.11359571 53.13183306 122.32996211 44.66015625 107.68359375 C42.72327179 104.76943627 40.92318712 102.94879142 38 101 C19.78776878 99.30430253 2.7481285 103.35942249 -12.58203125 113.26953125 C-13.15800049 113.64118408 -13.73396973 114.01283691 -14.32739258 114.39575195 C-15.90249132 115.4356252 -17.45226973 116.51356325 -19 117.59375 C-24.5126982 120.17782728 -29.60628793 117.90924526 -35.125 116.125 C-44.56792438 113.34469571 -54.24289631 112.15287289 -64 111 C-65.26166992 110.84990479 -65.26166992 110.84990479 -66.54882812 110.69677734 C-75.01580658 109.76344825 -83.16922088 109.83318224 -91.625 110.8125 C-92.40206299 110.90160645 -93.17912598 110.99071289 -93.97973633 111.08251953 C-102.81132407 112.1482609 -111.51153601 113.72993342 -120.08984375 116.1171875 C-120.7650708 116.30490723 -121.44029785 116.49262695 -122.13598633 116.68603516 C-124.0141928 117.21858173 -125.88624629 117.77269245 -127.7578125 118.328125 C-133.90611006 119.60223004 -137.16421128 117.51076661 -142.3125 114.1875 C-156.11781797 105.46458284 -169.89155025 101.01957798 -186.3125 100.5625 C-187.62863281 100.52253906 -188.94476563 100.48257813 -190.30078125 100.44140625 C-195.12528398 101.16992145 -196.63603557 102.53425147 -200 106 C-200.495 107.485 -200.495 107.485 -201 109 C-201.66 109 -202.32 109 -203 109 C-203.103125 109.78375 -203.20625 110.5675 -203.3125 111.375 C-203.86317371 114.27855228 -204.57162686 116.74070422 -205.515625 119.515625 C-207.22998314 125.18742671 -207.49555064 130.47802257 -207.4375 136.375 C-207.43427734 137.40995605 -207.43105469 138.44491211 -207.42773438 139.51123047 C-207.2729094 148.23615159 -205.89171946 156.41564234 -203.875 164.8828125 C-202.88344789 169.23802968 -202.0623487 173.08812234 -204.1015625 177.24609375 C-204.60429687 177.96925781 -205.10703125 178.69242188 -205.625 179.4375 C-219.35464728 201.28159602 -220.35428401 227.31632466 -215 252 C-212.5964809 260.49280419 -208.53198477 268.32590305 -204.1015625 275.92578125 C-203 278 -203 278 -203 280 C-202.34 280 -201.68 280 -201 280 C-200.57074219 280.71800781 -200.14148438 281.43601562 -199.69921875 282.17578125 C-197.76604991 285.38884119 -195.5216749 287.60342409 -192.8125 290.1875 C-191.17120432 291.75365768 -189.55675401 293.34978233 -188 295 C-188 295.66 -188 296.32 -188 297 C-187.26394531 297.26554687 -186.52789062 297.53109375 -185.76953125 297.8046875 C-183.0297295 298.98716893 -181.05051515 300.32021045 -178.6875 302.125 C-163.05861264 313.26202936 -144.47652395 319.48705593 -126 324 C-126 328.86811646 -127.16669858 330.47252055 -130.1171875 334.1640625 C-136.2302623 340.12494456 -145.98458677 339.73759064 -154 340 C-154.82242188 340.02723145 -155.64484375 340.05446289 -156.4921875 340.08251953 C-159.24483692 340.1618078 -161.99650512 340.21064366 -164.75 340.25 C-165.62495117 340.27151123 -166.49990234 340.29302246 -167.40136719 340.31518555 C-175.89980859 340.35775808 -183.29036135 338.39688326 -190 333 C-192.45642607 330.43140835 -194.72701724 327.7306303 -197 325 C-199.46485374 322.22092927 -199.46485374 322.22092927 -201.93359375 319.4453125 C-203 318 -203 318 -203 316 C-203.66 316 -204.32 316 -205 316 C-205 315.34 -205 314.68 -205 314 C-205.79470703 313.64228516 -205.79470703 313.64228516 -206.60546875 313.27734375 C-210.28394517 311.31508961 -213.59257309 308.81317046 -216.95898438 306.36523438 C-223.45925247 301.75288358 -229.85053839 298.62450103 -238 300 C-242.27403857 302.22438719 -242.27403857 302.22438719 -245 306 C-245.41503281 310.0625327 -245.46204623 313.78712865 -244 317.625 C-241.56755739 320.5135256 -238.85386634 322.86226491 -235.9375 325.25390625 C-233.94883066 327.0461143 -232.43281357 328.73884108 -231 331 C-231 331.99 -231 332.98 -231 334 C-230.34 334 -229.68 334 -229 334 C-225.89811673 340.51288894 -222.94537076 346.98513843 -220.4375 353.75 C-217.07936777 362.63349356 -213.53320547 369.96225547 -205.6875 375.6875 C-205.130625 376.120625 -204.57375 376.55375 -204 377 C-204 377.66 -204 378.32 -204 379 C-202.824375 379.37125 -202.824375 379.37125 -201.625 379.75 C-198.00919818 380.99682821 -194.54691836 382.45421226 -191.05078125 384 C-181.5187899 387.12444275 -171.82750399 387.3580648 -161.875 387.5625 C-159.26800667 387.62034187 -156.66145563 387.68565924 -154.0546875 387.75390625 C-152.91499512 387.77783447 -151.77530273 387.8017627 -150.60107422 387.82641602 C-148 388 -148 388 -147 389 C-146.89154333 390.39990884 -146.85098965 391.805177 -146.83886719 393.20922852 C-146.82925964 394.10428604 -146.8196521 394.99934357 -146.80975342 395.92152405 C-146.8033786 397.38542824 -146.8033786 397.38542824 -146.796875 398.87890625 C-146.79117493 399.87953598 -146.78547485 400.88016571 -146.77960205 401.91111755 C-146.77013147 404.03716977 -146.76360995 406.16323681 -146.75976562 408.28930664 C-146.75011332 411.52451808 -146.71913148 414.75907992 -146.6875 417.99414062 C-146.68096481 420.05989206 -146.67571637 422.12564805 -146.671875 424.19140625 C-146.6595282 425.15317276 -146.6471814 426.11493927 -146.63446045 427.10585022 C-146.6579657 434.28895346 -147.5383391 440.07261947 -152.3125 445.75 C-157.73913919 450.29323281 -160.75516829 452.58822375 -168 452 C-170.76122745 451.14677654 -173.32751549 449.98398716 -175.9375 448.75 C-176.63681641 448.431521 -177.33613281 448.11304199 -178.05664062 447.78491211 C-182.75780653 445.62984596 -187.41305135 443.38903575 -192 441 C-192 440.34 -192 439.68 -192 439 C-193.06347656 438.85111328 -193.06347656 438.85111328 -194.1484375 438.69921875 C-210.69377439 434.64221148 -232.85485058 415.63116934 -244 403 C-244 402.34 -244 401.68 -244 401 C-244.99 400.67 -245.98 400.34 -247 400 C-249.1875 398.0625 -249.1875 398.0625 -251 396 C-251 395.34 -251 394.68 -251 394 C-251.99 393.67 -252.98 393.34 -254 393 C-259 387.53488372 -259 387.53488372 -259 385 C-259.66 385 -260.32 385 -261 385 C-262.81401482 382.91222838 -264.51089777 380.81933925 -266.1875 378.625 C-266.68290283 377.98377197 -267.17830566 377.34254395 -267.6887207 376.68188477 C-293.32186647 343.30743712 -309.86421938 305.61659899 -316 264 C-316.22647217 262.52176758 -316.22647217 262.52176758 -316.45751953 261.01367188 C-319.94888581 237.88854894 -319.54844684 216.09207163 -316 193 C-315.88253418 192.21931152 -315.76506836 191.43862305 -315.64404297 190.63427734 C-313.17021221 174.52016872 -309.8937145 158.39817422 -303.4453125 143.37890625 C-302.11249343 140.2629914 -300.98936565 137.13614215 -299.875 133.9375 C-291.86303087 113.1012608 -278.72476001 93.94253574 -264.9609375 76.50390625 C-262.92351195 73.96793249 -262.92351195 73.96793249 -261 71 C-260.34 71 -259.68 71 -259 71 C-258.773125 70.443125 -258.54625 69.88625 -258.3125 69.3125 C-256.61427198 66.32038397 -254.49235804 64.38399465 -252 62 C-250.66396489 60.66937393 -249.33081999 59.33584195 -248 58 C-247.31421875 57.31679687 -246.6284375 56.63359375 -245.921875 55.9296875 C-244.34550008 54.34690455 -242.79409915 52.73928547 -241.25 51.125 C-239.20999617 49.19832972 -237.57857246 48.05052952 -235 47 C-235 46.34 -235 45.68 -235 45 C-218.79310345 30 -218.79310345 30 -213 30 C-213 29.34 -213 28.68 -213 28 C-210.92368358 26.55992404 -208.86708924 25.26841808 -206.6875 24 C-206.02105469 23.60772217 -205.35460937 23.21544434 -204.66796875 22.8112793 C-191.51470845 15.15415959 -178.26251883 8.33043633 -164 3 C-162.35451172 2.34064453 -162.35451172 2.34064453 -160.67578125 1.66796875 C-110.42279401 -18.39685486 -50.72486433 -18.14443371 0 0 Z " fill="#030303" transform="translate(328,22)"/>
<path d="M0 0 C0.66 0.33 1.32 0.66 2 1 C-1.56430755 4.14985318 -4.40693504 6.5140084 -9 8 C-6.14723863 5.06799526 -3.34920216 2.35684596 0 0 Z " fill="#676767" transform="translate(110,54)"/>
<path d="M0 0 C-0.99 0.66 -1.98 1.32 -3 2 C-3.99 3.485 -3.99 3.485 -5 5 C-5 4.34 -5 3.68 -5 3 C-5.66 3 -6.32 3 -7 3 C-7 2.01 -7 1.02 -7 0 C-3.98968256 -0.93423645 -3.13349732 -1.04449911 0 0 Z " fill="#676767" transform="translate(305,346)"/>
<path d="M0 0 C0.33 0.99 0.66 1.98 1 3 C0.34 3.66 -0.32 4.32 -1 5 C-0.67 5.66 -0.34 6.32 0 7 C-1.65 7.33 -3.3 7.66 -5 8 C-3.35 5.36 -1.7 2.72 0 0 Z " fill="#424242" transform="translate(53,112)"/>
</svg>
