<?xml version="1.0" encoding="UTF-8"?>
<svg version="1.1" xmlns="http://www.w3.org/2000/svg" width="500" height="500">
<path d="M0 0 C0 0.99 0 1.98 0 3 C-2.53184488 5.35723489 -3.47190093 6 -7 6 C-7 6.66 -7 7.32 -7 8 C-11.38461538 11 -11.38461538 11 -14 11 C-14 11.66 -14 12.32 -14 13 C-14.99 13 -15.98 13 -17 13 C-17 13.66 -17 14.32 -17 15 C-19.17699873 16.68493737 -21.35511719 18.26194625 -23.625 19.8125 C-27.31830628 22.36080423 -30.9348114 24.8913936 -34.3359375 27.82421875 C-37 30 -37 30 -39 30 C-39 30.66 -39 31.32 -39 32 C-40.609375 33.5859375 -40.609375 33.5859375 -42.75 35.375 C-45.06903702 37.33757727 -47.25219284 39.2588295 -49.375 41.4375 C-51 43 -51 43 -53 43 C-53.268125 43.763125 -53.53625 44.52625 -53.8125 45.3125 C-55 48 -55 48 -56.46484375 49.4453125 C-59.63320102 52.65397966 -60.83313331 56.86039817 -61.17578125 61.25390625 C-60.68502931 71.52585205 -55.27687884 81.04003178 -50.23046875 89.77734375 C-44.8214866 99.54785437 -41.19890108 109.02503251 -43.4609375 120.296875 C-45.26661716 126.2874828 -48.20729133 132.02206988 -52 137 C-52.99 137.33 -53.98 137.66 -55 138 C-55.30292969 138.61101562 -55.60585938 139.22203125 -55.91796875 139.8515625 C-59.58970174 147.14200707 -70.36188624 150.73639262 -77.41015625 153.73828125 C-80.12030879 154.73377166 -80.12030879 154.73377166 -81 157 C-71.2073574 157.17839127 -61.68252965 156.68842392 -51.9375 155.6875 C-50.58301488 155.55290741 -49.2285226 155.41838683 -47.87402344 155.28393555 C-38.14237764 154.30031386 -28.46368218 153.0423687 -18.796875 151.55078125 C-15 151 -15 151 -12 151 C-13.97227582 155.94740374 -17.88689184 158.43001314 -21.98046875 161.625 C-24.95197906 163.89688141 -24.95197906 163.89688141 -27.36328125 166.1875 C-55.03861461 190.10333635 -122.86059472 182.65831309 -158 182 C-158.88220215 181.98598145 -159.7644043 181.97196289 -160.67333984 181.95751953 C-178.32294872 181.59518894 -199.96466591 180.02355606 -215 170 C-215 169.34 -215 168.68 -215 168 C-215.639375 167.71125 -216.27875 167.4225 -216.9375 167.125 C-219 166 -219 166 -220 164 C-220.41461477 155.43129468 -220.41461477 155.43129468 -218 152 C-208.30534753 141.41388523 -190.43608619 139.93771534 -177 138 C-175.35173218 137.74549072 -175.35173218 137.74549072 -173.67016602 137.48583984 C-167.5515826 136.67588967 -161.41329306 136.53976007 -155.25 136.3125 C-153.91015233 136.2520399 -152.57030854 136.19149374 -151.23046875 136.13085938 C-149.96332031 136.08380859 -148.69617188 136.03675781 -147.390625 135.98828125 C-146.23594727 135.94227783 -145.08126953 135.89627441 -143.89160156 135.84887695 C-141 136 -141 136 -138 138 C-143.27033833 139.97387196 -148.50357326 141.89944591 -153.9375 143.375 C-164.46073679 146.37452921 -164.46073679 146.37452921 -172.34375 153.19140625 C-172.5603125 153.78824219 -172.776875 154.38507813 -173 155 C-170.41785972 155.48644586 -167.834553 155.96417897 -165.25 156.4375 C-164.18458984 156.63956055 -164.18458984 156.63956055 -163.09765625 156.84570312 C-151.93893363 158.87007316 -140.80088215 159.14356109 -129.484375 159.09765625 C-128.13389133 159.09578536 -126.78340696 159.09436464 -125.43292236 159.09336853 C-121.92150922 159.08959606 -118.41013911 159.07981248 -114.89874268 159.06866455 C-111.29838645 159.05833545 -107.6980231 159.05384657 -104.09765625 159.04882812 C-97.06508683 159.03818407 -90.03254626 159.02117311 -83 159 C-83.33 156.69 -83.66 154.38 -84 152 C-80.25 149 -80.25 149 -78 149 C-77.87625 148.4225 -77.7525 147.845 -77.625 147.25 C-76.99351176 144.97664233 -76.11141809 143.0746471 -75 141 C-74.34 141 -73.68 141 -73 141 C-72.85691406 140.41863281 -72.71382812 139.83726562 -72.56640625 139.23828125 C-72.05399543 137.21337506 -71.49823786 135.19955939 -70.9375 133.1875 C-68.70162867 123.919728 -70.93329203 117.04868517 -75.7890625 109.0546875 C-77.00941366 107.17142954 -78.2488859 105.30035177 -79.51171875 103.4453125 C-80.86833619 101.21632952 -81.55585044 99.54645745 -82 97 C-82.66 97 -83.32 97 -84 97 C-85.12752649 94.77208002 -86.25208139 92.54274113 -87.375 90.3125 C-87.69210938 89.68666016 -88.00921875 89.06082031 -88.3359375 88.41601562 C-94.41721193 76.31681338 -95.29492542 65.89409195 -91.25 52.875 C-89.68646305 48.43546807 -87.81557182 44.59204061 -85.1484375 40.71875 C-83.9200515 38.88034918 -82.95278991 36.99299175 -82 35 C-81.34 35 -80.68 35 -80 35 C-80 34.34 -80 33.68 -80 33 C-79.34 33 -78.68 33 -78 33 C-77.79375 32.443125 -77.5875 31.88625 -77.375 31.3125 C-75.40776457 28.00396768 -73.10937286 26.2844372 -70 24 C-69.01 24 -68.02 24 -67 24 C-66.77054688 23.40058594 -66.54109375 22.80117187 -66.3046875 22.18359375 C-61.07550302 13.43175505 -43.47010807 9.25938954 -34.109375 6.62109375 C-31.87225616 6.0043603 -31.87225616 6.0043603 -29.3125 4.875 C-26.9401029 3.97733623 -24.72800108 3.64871065 -22.21875 3.3515625 C-19.26699206 2.88385438 -16.40206739 2.14970461 -13.5 1.4375 C-8.83121071 0.32819136 -4.7787855 -0.33340364 0 0 Z " fill="#1B67BF" transform="translate(341,114)"/>
<path d="M0 0 C-0.33 0.680625 -0.66 1.36125 -1 2.0625 C-2.17307315 5.50840238 -2.14180493 8.38397422 -2 12 C-1.34773438 12.19335938 -0.69546875 12.38671875 -0.0234375 12.5859375 C0.85054687 12.84632813 1.72453125 13.10671875 2.625 13.375 C3.48351562 13.63023437 4.34203125 13.88546875 5.2265625 14.1484375 C7.09649822 14.72258678 8.9521891 15.34504675 10.79125977 16.01147461 C16.18829352 17.67415358 21.701001 17.80865053 27.3125 18.1875 C29.19521606 18.31765503 29.19521606 18.31765503 31.1159668 18.45043945 C40.56652074 19.04151758 49.58224824 18.88291423 59 18 C61.60393978 17.85017013 64.20810904 17.70427128 66.8125 17.5625 C73.30471586 17.12738341 79.60891451 16.19076993 86 15 C86.94617188 14.85949219 87.89234375 14.71898437 88.8671875 14.57421875 C93.17854637 13.78398215 97.34377009 12.50930949 101.52148438 11.19726562 C104.44624124 10.35524508 106.55845613 9.88927438 109.5390625 10.63671875 C112.66719359 12.36960407 115.76720358 14.12597143 118.8125 16 C119.40998047 16.35578125 120.00746094 16.7115625 120.62304688 17.078125 C122.11890414 17.99444442 123.56477862 18.99135247 125 20 C125 20.66 125 21.32 125 22 C125.763125 22.12375 126.52625 22.2475 127.3125 22.375 C130 23 130 23 133 25 C133 25.66 133 26.32 133 27 C123.27516727 31.48105037 113.3378745 34.32761622 103 37 C101.94969604 37.28145874 101.94969604 37.28145874 100.87817383 37.56860352 C96.96559074 38.59481684 93.22121778 39.2912772 89.1875 39.5625 C86.16163542 39.77162181 83.89587133 40.03470956 81 41 C69.88771719 43.07433112 58.89797704 43.28355544 47.62597656 43.20581055 C44.84430966 43.18729572 42.06297278 43.18530338 39.28125 43.18554688 C37.49739296 43.18063897 35.71353816 43.17481386 33.9296875 43.16796875 C33.10572479 43.16685593 32.28176208 43.1657431 31.43283081 43.16459656 C27.48075879 43.13193885 23.8653727 42.9202189 20 42 C18.56371543 41.93733488 17.1249445 41.91313653 15.6875 41.9375 C14.470625 41.958125 13.25375 41.97875 12 42 C12.33 42.99 12.66 43.98 13 45 C12.34 45.66 11.68 46.32 11 47 C11.01998504 49.53398519 11.01998504 49.53398519 12 52 C19.4092373 58.12381407 31.70183662 56.60937625 40.6875 56.5 C41.55316589 56.49512573 42.41883179 56.49025146 43.31072998 56.48522949 C60.85548699 56.36921903 77.76955166 54.72387874 94.37890625 48.734375 C97.34775783 47.90256562 99.93152643 47.87383662 103 48 C103 48.66 103 49.32 103 50 C103.70511719 50.2578125 104.41023437 50.515625 105.13671875 50.78125 C108.24269315 52.10330186 110.95978065 53.69747854 113.8125 55.5 C114.78832031 56.1084375 115.76414062 56.716875 116.76953125 57.34375 C117.50558594 57.8903125 118.24164063 58.436875 119 59 C119 59.66 119 60.32 119 61 C119.598125 61.12375 120.19625 61.2475 120.8125 61.375 C123 62 123 62 126 64 C124.48841945 68.53474165 121.24895788 69.38635841 117.140625 71.51953125 C104.39141796 77.52941865 89.94489314 80.38077317 76 82 C74.27716797 82.26490234 74.27716797 82.26490234 72.51953125 82.53515625 C47.87548335 86.04089541 10.08896127 88.65241941 -11.375 73 C-13.91055866 71.06044916 -15.18584976 69.72122536 -17 67 C-17.60451744 60.85407267 -17.02693216 57.92180597 -13 53 C-9.13915011 48.64097593 -4.56893678 45.72371853 1 44 C3.3320802 43.92353835 5.66845878 43.90856701 8 44 C7.505 42.02 7.505 42.02 7 40 C5.845 39.938125 4.69 39.87625 3.5 39.8125 C-7.71587583 38.55248863 -21.36331772 34.63668228 -29.5 26.5 C-31.17680719 23.70532135 -32 22.27327604 -32 19 C-30.25361819 12.39169123 -26.10926222 9.07375531 -20.53125 5.47265625 C-13.79484363 1.55348156 -7.83040944 -0.18210255 0 0 Z " fill="#1B67BF" transform="translate(183,297)"/>
<path d="M0 0 C0.80859375 2.1953125 0.80859375 2.1953125 1 4 C0.12859375 3.96519531 -0.7428125 3.93039062 -1.640625 3.89453125 C-12.05901867 3.65774958 -21.00527897 4.51091383 -30 10 C-30.66 10 -31.32 10 -32 10 C-32 10.66 -32 11.32 -32 12 C-32.66 12 -33.32 12 -34 12 C-32.45888037 17.21029718 -32.45888037 17.21029718 -30 22 C-28.07361988 22.75243555 -28.07361988 22.75243555 -26 23 C-25.01 23.33 -24.02 23.66 -23 24 C-23 24.66 -23 25.32 -23 26 C-22.319375 25.938125 -21.63875 25.87625 -20.9375 25.8125 C-17.85874031 26.00901658 -15.78365208 26.92628982 -13.01171875 28.20703125 C-10.0234393 29.38493558 -6.97413769 29.91138228 -3.8203125 30.47265625 C-1.49139256 30.90811912 0.78882205 31.41843428 3.09375 31.9609375 C23.29279758 36.47207202 44.40318191 36.69308004 65 37 C66.07523926 37.01659668 67.15047852 37.03319336 68.25830078 37.05029297 C75.17440137 37.13973958 82.08434841 37.11337134 89 37 C90.09876465 36.98211426 91.1975293 36.96422852 92.32958984 36.94580078 C105.27680214 36.69572774 118.12726129 36.06929033 131 34.625 C132.03108887 34.51115967 133.06217773 34.39731934 134.12451172 34.2800293 C140.348442 33.52090224 146.31564537 32.29323496 152.37573242 30.68457031 C154.68057507 30.08332566 156.97475826 29.57693601 159.3125 29.125 C168.67826761 27.07035263 177.82175496 24.01846855 186 19 C186.99 19 187.98 19 189 19 C189 18.34 189 17.68 189 17 C189.928125 16.29875 190.85625 15.5975 191.8125 14.875 C195.51727821 11.88132851 197.1461181 8.67073399 198 4 C197.94274807 1.1994262 197.54344313 -1.23338043 197 -4 C203.37481091 -3.25874292 207.93614919 -1.04478032 212 4 C214.66719351 10.47746994 214.17631668 16.47104995 212 23 C211.34 23 210.68 23 210 23 C209.9175 23.5775 209.835 24.155 209.75 24.75 C208.7766189 27.6701433 207.32386725 29.01787793 205 31 C203.515 31.495 203.515 31.495 202 32 C201.319375 32.680625 201.319375 32.680625 200.625 33.375 C197.12702806 36.87297194 192.9427911 38.48391881 188.33984375 40.12109375 C185.67495041 41.12209709 183.10198743 42.28302254 180.5 43.4375 C173.96320032 46.1645584 167.29486285 47.90023381 160.40478516 49.45556641 C158.68928899 49.84394777 156.97559764 50.24033704 155.26318359 50.64208984 C144.92597813 53.0671236 134.85223616 55.38115683 124.21875 55.82421875 C120.76272185 56.01295815 117.4218029 56.48301021 114 57 C108.00807687 57.83103815 102.07358149 58.28875815 96.03125 58.55078125 C95.07939819 58.59262039 94.12754639 58.63445953 93.14685059 58.67756653 C82.97035604 59.09078076 72.79773209 59.18610248 62.61376953 59.18530273 C59.50149021 59.18749895 56.38956151 59.2057904 53.27734375 59.22460938 C39.74751688 59.26188621 26.44495617 58.50321091 13 57 C12.28353302 56.92006805 11.56706604 56.84013611 10.82888794 56.75778198 C6.53406959 56.26956977 2.2697483 55.67417078 -2 55 C-2.74443359 54.88462891 -3.48886719 54.76925781 -4.25585938 54.65039062 C-15.44013083 52.86922532 -26.22752766 50.23833967 -37.0625 46.9375 C-38.18696533 46.59702637 -39.31143066 46.25655273 -40.4699707 45.90576172 C-45.25765339 44.39987851 -49.05646129 43.15575415 -53 40 C-56.33758089 38.08398134 -59.66296637 36.17883417 -63.0625 34.375 C-67.79565218 30.54819611 -71.22473774 25.61789053 -72.515625 19.59375 C-72.78238035 14.02999558 -71.09411439 10.54448051 -68 6 C-67.34 6 -66.68 6 -66 6 C-66 5.34 -66 4.68 -66 4 C-64.35 3.34 -62.7 2.68 -61 2 C-61 1.34 -61 0.68 -61 0 C-59.68 0 -58.36 0 -57 0 C-57 -0.66 -57 -1.32 -57 -2 C-39.08349319 -9.26535512 -16.45997217 -12.48687544 0 0 Z " fill="#1B67BF" transform="translate(165,369)"/>
<path d="M0 0 C9.05265806 7.7594212 12.770339 20.4411866 14 32 C15.51186351 52.05984756 5.68541659 69.0191154 -5.73828125 84.63671875 C-6.15464844 85.08660156 -6.57101562 85.53648438 -7 86 C-7.66 86 -8.32 86 -9 86 C-9.495 87.98 -9.495 87.98 -10 90 C-10.66 90 -11.32 90 -12 90 C-12.25652344 90.58523437 -12.51304687 91.17046875 -12.77734375 91.7734375 C-14.10562162 94.19234608 -15.56524801 95.73198872 -17.5625 97.625 C-20.14015389 100.04521959 -20.14015389 100.04521959 -22 103 C-22.66 103 -23.32 103 -24 103 C-24 103.66 -24 104.32 -24 105 C-24.66 105 -25.32 105 -26 105 C-26.268125 105.598125 -26.53625 106.19625 -26.8125 106.8125 C-27.99917406 108.99847854 -29.09599113 110.41332594 -31 112 C-31.66 112 -32.32 112 -33 112 C-33 112.66 -33 113.32 -33 114 C-33.66 114 -34.32 114 -35 114 C-35 114.66 -35 115.32 -35 116 C-35.66 116 -36.32 116 -37 116 C-37.268125 116.5775 -37.53625 117.155 -37.8125 117.75 C-39.02929189 120.05550043 -40.30333879 122.02056192 -42 124 C-42.66 124 -43.32 124 -44 124 C-44.09667969 124.56460938 -44.19335938 125.12921875 -44.29296875 125.7109375 C-45.15875286 128.51397334 -46.53830301 130.29232987 -48.3125 132.625 C-53.65311035 140.10844784 -57.39552243 147.62760243 -56 157 C-55.12671842 159.81390731 -54.16071331 162.31064915 -53 165 C-52.37931641 166.62035156 -52.37931641 166.62035156 -51.74609375 168.2734375 C-46.8684426 180.95267236 -40.81029341 192.89904283 -34.1875 204.75 C-33.81455811 205.41765381 -33.44161621 206.08530762 -33.05737305 206.77319336 C-31.5722443 209.39161237 -30.08811565 211.88668054 -28.23828125 214.265625 C-27 216 -27 216 -27 219 C-30.9057324 218.40683971 -33.21803586 216.51378095 -36.25 214.0625 C-37.58804688 212.99708984 -37.58804688 212.99708984 -38.953125 211.91015625 C-39.62859375 211.27980469 -40.3040625 210.64945313 -41 210 C-41 209.34 -41 208.68 -41 208 C-41.556875 207.938125 -42.11375 207.87625 -42.6875 207.8125 C-45.92568074 206.67476082 -47.71674723 204.45193635 -50 202 C-55.31466169 196.5454661 -55.31466169 196.5454661 -61.0625 191.5625 C-64.99447062 188.13248308 -67.89988662 184.17509676 -71 180 C-71.58652344 179.24460938 -72.17304688 178.48921875 -72.77734375 177.7109375 C-73.32519531 177.00195312 -73.87304688 176.29296875 -74.4375 175.5625 C-75.17806641 174.60537109 -75.17806641 174.60537109 -75.93359375 173.62890625 C-77 172 -77 172 -77 170 C-77.66 170 -78.32 170 -79 170 C-86.70339537 155.73288968 -92.01098443 141.48278836 -87.74609375 125.0703125 C-86.39222669 121.31350862 -84.30831988 118.23510168 -82 115 C-81.32839844 114.02804688 -80.65679687 113.05609375 -79.96484375 112.0546875 C-75.88154334 106.25951341 -75.88154334 106.25951341 -74 104 C-73.34 104 -72.68 104 -72 104 C-71.731875 103.401875 -71.46375 102.80375 -71.1875 102.1875 C-70.00082594 100.00152146 -68.90400887 98.58667406 -67 97 C-66.34 97 -65.68 97 -65 97 C-65 96.34 -65 95.68 -65 95 C-64.34 95 -63.68 95 -63 95 C-63 94.34 -63 93.68 -63 93 C-62.01 93 -61.02 93 -60 93 C-60 92.34 -60 91.68 -60 91 C-59.34 91 -58.68 91 -58 91 C-58 90.34 -58 89.68 -58 89 C-56.42578125 87.66796875 -56.42578125 87.66796875 -54.3125 86.1875 C-51.87238934 84.42022962 -49.76300086 82.76300086 -47.625 80.625 C-38 71 -38 71 -32 69 C-32 68.34 -32 67.68 -32 67 C-30.5390625 65.4921875 -30.5390625 65.4921875 -28.625 63.875 C-27.99851563 63.33617187 -27.37203125 62.79734375 -26.7265625 62.2421875 C-25 61 -25 61 -23 61 C-23 60.34 -23 59.68 -23 59 C-21.91573065 58.01567727 -20.77934586 57.08861979 -19.625 56.1875 C-15.81484129 52.95361084 -12.77544012 49.44777522 -9.75 45.5 C-9.33830566 44.96656982 -8.92661133 44.43313965 -8.50244141 43.88354492 C-0.94323922 33.83675595 3.19204197 23.74116992 2 11 C1.47770321 8.58939945 0.76761339 6.35081602 0 4 C0 2.68 0 1.36 0 0 Z " fill="#F34335" transform="translate(274,41)"/>
<path d="M0 0 C0 0.99 0 1.98 0 3 C-2.53184488 5.35723489 -3.47190093 6 -7 6 C-7 6.66 -7 7.32 -7 8 C-11.38461538 11 -11.38461538 11 -14 11 C-14 11.66 -14 12.32 -14 13 C-14.99 13 -15.98 13 -17 13 C-17 13.66 -17 14.32 -17 15 C-19.17699873 16.68493737 -21.35511719 18.26194625 -23.625 19.8125 C-27.31830628 22.36080423 -30.9348114 24.8913936 -34.3359375 27.82421875 C-37 30 -37 30 -39 30 C-39 30.66 -39 31.32 -39 32 C-40.609375 33.5859375 -40.609375 33.5859375 -42.75 35.375 C-45.06903702 37.33757727 -47.25219284 39.2588295 -49.375 41.4375 C-51 43 -51 43 -53 43 C-53.268125 43.763125 -53.53625 44.52625 -53.8125 45.3125 C-55 48 -55 48 -56.46484375 49.4453125 C-59.63320102 52.65397966 -60.83313331 56.86039817 -61.17578125 61.25390625 C-60.68502931 71.52585205 -55.27687884 81.04003178 -50.23046875 89.77734375 C-44.8214866 99.54785437 -41.19890108 109.02503251 -43.4609375 120.296875 C-45.26661716 126.2874828 -48.20729133 132.02206988 -52 137 C-52.99 137.33 -53.98 137.66 -55 138 C-55.45439453 138.91652344 -55.45439453 138.91652344 -55.91796875 139.8515625 C-59.56754352 147.09801059 -70.17943792 150.63321211 -77.21484375 153.54296875 C-80.08598463 155.04498214 -81.3233225 156.27174776 -83 159 C-83.33 156.69 -83.66 154.38 -84 152 C-80.25 149 -80.25 149 -78 149 C-77.87625 148.4225 -77.7525 147.845 -77.625 147.25 C-76.99351176 144.97664233 -76.11141809 143.0746471 -75 141 C-74.34 141 -73.68 141 -73 141 C-72.85691406 140.41863281 -72.71382813 139.83726562 -72.56640625 139.23828125 C-72.05399543 137.21337506 -71.49823786 135.19955939 -70.9375 133.1875 C-68.70162867 123.919728 -70.93329203 117.04868517 -75.7890625 109.0546875 C-77.00941366 107.17142954 -78.2488859 105.30035177 -79.51171875 103.4453125 C-80.86833619 101.21632952 -81.55585044 99.54645745 -82 97 C-82.66 97 -83.32 97 -84 97 C-85.12752649 94.77208002 -86.25208139 92.54274113 -87.375 90.3125 C-87.69210938 89.68666016 -88.00921875 89.06082031 -88.3359375 88.41601562 C-94.41721193 76.31681338 -95.29492542 65.89409195 -91.25 52.875 C-89.68646305 48.43546807 -87.81557182 44.59204061 -85.1484375 40.71875 C-83.9200515 38.88034918 -82.95278991 36.99299175 -82 35 C-81.34 35 -80.68 35 -80 35 C-80 34.34 -80 33.68 -80 33 C-79.34 33 -78.68 33 -78 33 C-77.79375 32.443125 -77.5875 31.88625 -77.375 31.3125 C-75.40776457 28.00396768 -73.10937286 26.2844372 -70 24 C-69.01 24 -68.02 24 -67 24 C-66.77054687 23.40058594 -66.54109375 22.80117187 -66.3046875 22.18359375 C-61.07550302 13.43175505 -43.47010807 9.25938954 -34.109375 6.62109375 C-31.87225616 6.0043603 -31.87225616 6.0043603 -29.3125 4.875 C-26.9401029 3.97733623 -24.72800108 3.64871065 -22.21875 3.3515625 C-19.26699206 2.88385438 -16.40206739 2.14970461 -13.5 1.4375 C-8.83121071 0.32819136 -4.7787855 -0.33340364 0 0 Z " fill="#F34335" transform="translate(341,114)"/>
<path d="M0 0 C0.66 0 1.32 0 2 0 C1.54400337 11.33151623 -2.85714167 18.22727159 -11 26 C-11.66 26 -12.32 26 -13 26 C-13 26.66 -13 27.32 -13 28 C-29.70341066 40.37504859 -49.01270975 46.32455626 -69 51 C-69.92361328 51.21672363 -70.84722656 51.43344727 -71.79882812 51.65673828 C-119.36865163 62.4865771 -178.53215536 61.04202266 -225 46 C-225.33 45.67 -225.66 45.34 -226 45 C-227.43106252 44.69698676 -228.87055521 44.43357351 -230.3125 44.1875 C-236.41399274 43.017829 -242.15591367 41.07968865 -248 39 C-248.77988281 38.72929687 -249.55976563 38.45859375 -250.36328125 38.1796875 C-254.17077177 36.81730859 -257.7050396 35.36825279 -261 33 C-261 32.34 -261 31.68 -261 31 C-259.02 31 -257.04 31 -255 31 C-255 31.66 -255 32.32 -255 33 C-254.34515625 33.03738281 -253.6903125 33.07476562 -253.015625 33.11328125 C-247.93536239 33.47923237 -243.17364155 34.11293339 -238.25 35.4375 C-231.95289308 37.10438124 -225.67905125 37.93551759 -219.21972656 38.71435547 C-216.794178 39.02648611 -214.37871177 39.3864592 -211.9609375 39.75390625 C-198.62873409 41.75422139 -185.47694676 42.77254098 -172 43 C-171.03036316 43.01643555 -171.03036316 43.01643555 -170.0411377 43.03320312 C-153.00265462 43.30683289 -136.00996821 43.2186552 -119 42.125 C-117.76185547 42.04660889 -116.52371094 41.96821777 -115.24804688 41.88745117 C-107.73486857 41.35013322 -100.40707407 40.35024788 -93 39 C-91.96367432 38.82936035 -90.92734863 38.6587207 -89.85961914 38.48291016 C-86.68279399 37.94643273 -83.57286358 37.24034559 -80.4375 36.5 C-74.35522155 35.06719 -74.35522155 35.06719 -71.3359375 34.49609375 C-69.15164343 34.03220521 -67.25154504 33.40115409 -65.1875 32.5625 C-61.93101406 31.30114232 -58.69455202 30.39917846 -55.2890625 29.60546875 C-51.30451559 28.55153569 -47.43137376 27.154679 -43.5390625 25.8046875 C-41 25 -41 25 -39 25 C-39 24.34 -39 23.68 -39 23 C-38.33355469 22.91878906 -37.66710937 22.83757812 -36.98046875 22.75390625 C-33.04201313 21.75767829 -29.83788677 19.91732438 -26.3125 17.9375 C-19.25192308 14 -19.25192308 14 -17 14 C-17 13.34 -17 12.68 -17 12 C-16.37351562 11.67386719 -15.74703125 11.34773438 -15.1015625 11.01171875 C-13.87566406 10.35623047 -13.87566406 10.35623047 -12.625 9.6875 C-11.81289063 9.25824219 -11.00078125 8.82898438 -10.1640625 8.38671875 C-7.73165957 7.03221276 -7.73165957 7.03221276 -6 4 C-4.515 3.505 -4.515 3.505 -3 3 C-2.484375 2.484375 -1.96875 1.96875 -1.4375 1.4375 C-0.7259375 0.7259375 -0.7259375 0.7259375 0 0 Z " fill="#2069BE" transform="translate(405,402)"/>
<path d="M0 0 C4.49697047 4.68857072 6.28844039 10.39663432 8.18359375 16.5 C8.67859375 17.985 8.67859375 17.985 9.18359375 19.5 C10.57446437 32.87375591 7.14461065 45.92347595 -1.09375 56.39453125 C-7.60791246 64.16846753 -15.03762224 69.5123087 -23.81640625 74.5 C-24.52925781 74.90992188 -25.24210937 75.31984375 -25.9765625 75.7421875 C-27.81640625 76.5 -27.81640625 76.5 -31.81640625 76.5 C-31.81640625 77.16 -31.81640625 77.82 -31.81640625 78.5 C-40.1910174 81.40409903 -47.94635602 83.18035855 -56.81640625 83.5 C-55.53025015 79.64153169 -53.88682113 78.90667547 -50.56640625 76.625 C-45.5457538 73.07222265 -41.41686731 69.55773564 -37.62890625 64.6875 C-36.73171875 63.6046875 -36.73171875 63.6046875 -35.81640625 62.5 C-35.15640625 62.5 -34.49640625 62.5 -33.81640625 62.5 C-33.54957031 61.91347656 -33.28273438 61.32695312 -33.0078125 60.72265625 C-31.44468506 57.80652669 -29.3732711 55.61743843 -27.15625 53.18359375 C-25.60161709 51.42781556 -25.60161709 51.42781556 -24.81640625 48.5 C-24.15640625 48.5 -23.49640625 48.5 -22.81640625 48.5 C-22.63464844 47.943125 -22.45289063 47.38625 -22.265625 46.8125 C-21.88857422 45.6678125 -21.88857422 45.6678125 -21.50390625 44.5 C-21.23320312 43.67242187 -20.9625 42.84484375 -20.68359375 41.9921875 C-19.92443859 39.81047133 -19.05058113 37.7404633 -18.12890625 35.625 C-15.84833653 29.59174678 -15.87531493 23.17468059 -18.00390625 17.125 C-20.00103129 14.232612 -22.30237692 11.9460826 -24.81640625 9.5 C-24.81640625 8.84 -24.81640625 8.18 -24.81640625 7.5 C-32.95418538 4.76022667 -40.25703496 4.13258661 -48.81640625 4.5 C-47.0281283 -0.86483384 -41.25230098 -2.75546199 -36.44140625 -5.25 C-24.18841156 -9.47517058 -10.18992012 -8.41490178 0 0 Z " fill="#1B67BF" transform="translate(382.81640625,257.5)"/>
<path d="M0 0 C1.98 0 3.96 0 6 0 C6 0.66 6 1.32 6 2 C6.65484375 2.03738281 7.3096875 2.07476562 7.984375 2.11328125 C13.06463761 2.47923237 17.82635845 3.11293339 22.75 4.4375 C29.04710692 6.10438124 35.32094875 6.93551759 41.78027344 7.71435547 C44.205822 8.02648611 46.62128823 8.3864592 49.0390625 8.75390625 C62.35773145 10.74567459 75.54028858 11.66248161 89 12 C89 12.33 89 12.66 89 13 C85.37 13.33 81.74 13.66 78 14 C77.67 15.98 77.34 17.96 77 20 C77.68707031 20.12117188 78.37414062 20.24234375 79.08203125 20.3671875 C79.98308594 20.53476562 80.88414062 20.70234375 81.8125 20.875 C82.70582031 21.03742188 83.59914063 21.19984375 84.51953125 21.3671875 C87 22 87 22 90 24 C81.92491605 24.31666996 74.32204895 23.11644748 66.375 21.75 C65.71102203 21.63773071 65.04704407 21.52546143 64.36294556 21.40979004 C37.92882068 16.92882068 37.92882068 16.92882068 35 14 C33.56893748 13.69698676 32.12944479 13.43357351 30.6875 13.1875 C24.58600726 12.017829 18.84408633 10.07968865 13 8 C12.22011719 7.72929687 11.44023437 7.45859375 10.63671875 7.1796875 C6.82922823 5.81730859 3.2949604 4.36825279 0 2 C0 1.34 0 0.68 0 0 Z " fill="#1564BD" transform="translate(144,433)"/>
<path d="M0 0 C9.05265806 7.7594212 12.770339 20.4411866 14 32 C14.65180546 40.64834555 13.89771377 50.65342935 9 58 C9.66 47.77 10.32 37.54 11 27 C9.35 27.99 7.7 28.98 6 30 C3.1875 29.6875 3.1875 29.6875 1 29 C0.855625 30.27875 0.71125 31.5575 0.5625 32.875 C0.29357254 35.25692894 0.07773654 36.84452691 -1 39 C-1.99 39 -2.98 39 -4 39 C-3.38722388 36.03824877 -2.74627478 34.61941217 -1 32 C2.83282417 22.57617543 3.13808583 13.61038787 0 4 C0 2.68 0 1.36 0 0 Z " fill="#F14335" transform="translate(274,41)"/>
<path d="M0 0 C1.98 0 3.96 0 6 0 C6 0.66 6 1.32 6 2 C6.65484375 2.03738281 7.3096875 2.07476562 7.984375 2.11328125 C13.06463761 2.47923237 17.82635845 3.11293339 22.75 4.4375 C29.75211552 6.30899111 36.81758557 7.12892438 44 8 C46.33411183 8.32783767 48.66769284 8.6595608 51 9 C51 9.33 51 9.66 51 10 C48.69 10.33 46.38 10.66 44 11 C44 11.66 44 12.32 44 13 C44.99 13.33 45.98 13.66 47 14 C46.01 14.99 45.02 15.98 44 17 C43.46632812 16.80664062 42.93265625 16.61328125 42.3828125 16.4140625 C38.3409872 15.00152148 34.40459814 13.82116757 30.1875 13.0625 C24.25660348 11.95564528 18.67443212 10.01931515 13 8 C12.22011719 7.72929687 11.44023437 7.45859375 10.63671875 7.1796875 C6.82922823 5.81730859 3.2949604 4.36825279 0 2 C0 1.34 0 0.68 0 0 Z " fill="#3E7CC0" transform="translate(144,433)"/>
<path d="M0 0 C2.19575147 2.02911308 3.59429605 3.84706154 4.8671875 6.546875 C5.19589844 7.2275 5.52460938 7.908125 5.86328125 8.609375 C6.53029754 10.02066815 7.19697216 11.43212283 7.86328125 12.84375 C9.58858769 16.41520146 11.38200616 19.64364039 13.7578125 22.828125 C16 26 16 26 16 29 C12.0942676 28.40683971 9.78196414 26.51378095 6.75 24.0625 C5.85796875 23.35222656 4.9659375 22.64195312 4.046875 21.91015625 C3.37140625 21.27980469 2.6959375 20.64945313 2 20 C2 19.34 2 18.68 2 18 C1.1646875 17.9071875 1.1646875 17.9071875 0.3125 17.8125 C-4.31390245 16.18700725 -7.25004408 11.9078321 -10 8 C-8.68 8 -7.36 8 -6 8 C-5.01 9.485 -5.01 9.485 -4 11 C-0.82990528 9.37921338 -0.82990528 9.37921338 -0.48828125 6.8359375 C-0.43027344 6.02382812 -0.37226563 5.21171875 -0.3125 4.375 C-0.24675781 3.55773437 -0.18101562 2.74046875 -0.11328125 1.8984375 C-0.07589844 1.27195313 -0.03851563 0.64546875 0 0 Z " fill="#E66156" transform="translate(231,231)"/>
<path d="M0 0 C0 0.99 0 1.98 0 3 C-2.53184488 5.35723489 -3.47190093 6 -7 6 C-7 6.66 -7 7.32 -7 8 C-11.38461538 11 -11.38461538 11 -14 11 C-14 11.66 -14 12.32 -14 13 C-14.99 13 -15.98 13 -17 13 C-17 13.66 -17 14.32 -17 15 C-18.98 15.99 -18.98 15.99 -21 17 C-21 16.01 -21 15.02 -21 14 C-20.01 14 -19.02 14 -18 14 C-18.57344937 11.13275314 -18.8614515 10.1385485 -21 8 C-20.34 7.67 -19.68 7.34 -19 7 C-18.34 7.33 -17.68 7.66 -17 8 C-17.33 7.34 -17.66 6.68 -18 6 C-24.20098868 6.94319245 -30.05436452 7.97307881 -36 10 C-38.66417309 10.43426997 -41.31290478 10.72202463 -44 11 C-41.69770126 8.69770126 -40.28931803 8.35567394 -37.1875 7.5 C-34.47210041 6.72972906 -31.91833205 5.96581342 -29.3125 4.875 C-26.9401029 3.97733623 -24.72800108 3.64871065 -22.21875 3.3515625 C-19.26699206 2.88385438 -16.40206739 2.14970461 -13.5 1.4375 C-8.83121071 0.32819136 -4.7787855 -0.33340364 0 0 Z " fill="#EB4D41" transform="translate(341,114)"/>
<path d="M0 0 C0.66 0 1.32 0 2 0 C1.59713175 10.01127601 -1.4424777 15.53171072 -8 23 C-8.33 22.01 -8.66 21.02 -9 20 C-8.34 20 -7.68 20 -7 20 C-9.57404971 16.13892543 -11.61020259 16.05680308 -16 15 C-16.33 15.66 -16.66 16.32 -17 17 C-18.32 16.34 -19.64 15.68 -21 15 C-19.68 14.67 -18.36 14.34 -17 14 C-17 13.34 -17 12.68 -17 12 C-16.37351562 11.67386719 -15.74703125 11.34773438 -15.1015625 11.01171875 C-14.28429687 10.57472656 -13.46703125 10.13773437 -12.625 9.6875 C-11.81289063 9.25824219 -11.00078125 8.82898438 -10.1640625 8.38671875 C-7.73165957 7.03221276 -7.73165957 7.03221276 -6 4 C-5.01 3.67 -4.02 3.34 -3 3 C-2.484375 2.484375 -1.96875 1.96875 -1.4375 1.4375 C-0.963125 0.963125 -0.48875 0.48875 0 0 Z " fill="#2668B9" transform="translate(405,402)"/>
<path d="M0 0 C0 0.99 0 1.98 0 3 C-0.33 3.33 -0.66 3.66 -1 4 C1.97 4.495 1.97 4.495 5 5 C4.01 5.495 4.01 5.495 3 6 C4.83883881 8.28728734 4.83883881 8.28728734 7.625 8.125 C8.40875 8.08375 9.1925 8.0425 10 8 C10 7.34 10 6.68 10 6 C12.70879335 4.64560332 15.00933268 4.93498549 18 5 C15.997499 7.002501 14.593341 7.93215371 12 9 C10.68 9 9.36 9 8 9 C8 9.66 8 10.32 8 11 C-0.37461115 13.90409903 -8.12994977 15.68035855 -17 16 C-15.7138439 12.14153169 -14.07041488 11.40667547 -10.75 9.125 C-6.77100531 6.32055901 -3.26404293 3.60170254 0 0 Z " fill="#3073BF" transform="translate(343,325)"/>
<path d="M0 0 C-1.43409972 3.35861695 -3.19369321 5.35874939 -5.9375 7.75 C-6.62714844 8.36359375 -7.31679688 8.9771875 -8.02734375 9.609375 C-10 11 -10 11 -13 11 C-13 10.01 -13 9.02 -13 8 C-12.34 8 -11.68 8 -11 8 C-11 7.34 -11 6.68 -11 6 C-10.34 6 -9.68 6 -9 6 C-9.495 5.01 -9.495 5.01 -10 4 C-14.39929732 4.48881081 -15.98194986 5.88134819 -19 9 C-19.99 9 -20.98 9 -22 9 C-21.67 8.01 -21.34 7.02 -21 6 C-24.04192013 6.1415547 -27.08346347 6.28809901 -30.125 6.4375 C-31.40890625 6.49647461 -31.40890625 6.49647461 -32.71875 6.55664062 C-36.15977227 6.72869174 -39.48333474 6.90452925 -42.875 7.53125 C-47.85889467 8.2788342 -52.8439849 8.1027729 -57.875 8.0625 C-59.47988281 8.05573242 -59.47988281 8.05573242 -61.1171875 8.04882812 C-63.74484986 8.03709749 -66.37239538 8.02068228 -69 8 C-69 7.67 -69 7.34 -69 7 C-67.99549805 6.93006836 -66.99099609 6.86013672 -65.95605469 6.78808594 C-45.60136117 5.35410206 -25.46295307 3.58859654 -5.30786133 0.31958008 C-3 0 -3 0 0 0 Z " fill="#5584BF" transform="translate(329,265)"/>
<path d="M0 0 C1.19278564 -0.02707031 1.19278564 -0.02707031 2.40966797 -0.0546875 C3.4674646 -0.08272461 3.4674646 -0.08272461 4.54663086 -0.11132812 C6.43701172 0.1015625 6.43701172 0.1015625 9.43701172 2.1015625 C4.1248187 4.09111007 -1.17208044 6.03229888 -6.62548828 7.6015625 C-11.75004568 9.0903986 -16.64493087 11.04016397 -21.56298828 13.1015625 C-22.22298828 12.1115625 -22.88298828 11.1215625 -23.56298828 10.1015625 C-20.92298828 9.7715625 -18.28298828 9.4415625 -15.56298828 9.1015625 C-15.56298828 7.4515625 -15.56298828 5.8015625 -15.56298828 4.1015625 C-17.87298828 3.4415625 -20.18298828 2.7815625 -22.56298828 2.1015625 C-22.56298828 1.7715625 -22.56298828 1.4415625 -22.56298828 1.1015625 C-19.41735318 0.93101329 -16.27145591 0.76585439 -13.12548828 0.6015625 C-11.80774414 0.53001953 -11.80774414 0.53001953 -10.46337891 0.45703125 C-6.97648862 0.2768967 -3.48874661 0.13824715 0 0 Z " fill="#2F76BF" transform="translate(193.56298828125,249.8984375)"/>
<path d="M0 0 C0 0.66 0 1.32 0 2 C-5.94 2.33 -11.88 2.66 -18 3 C-18.99 5.31 -19.98 7.62 -21 10 C-28.92 10.495 -28.92 10.495 -37 11 C-35.21172205 5.63516616 -29.43589473 3.74453801 -24.625 1.25 C-16.42883353 -1.5762643 -8.49933906 -1.05029855 0 0 Z " fill="#3073C0" transform="translate(371,251)"/>
<path d="M0 0 C4.31721258 4.31721258 6.74883282 10.37030986 7.32421875 16.39453125 C7.31395162 19.27959379 7.22584073 22.12429468 7 25 C5.35 25.66 3.7 26.32 2 27 C1.67 25.68 1.34 24.36 1 23 C0.29875 23.103125 -0.4025 23.20625 -1.125 23.3125 C-5.25623283 22.86345295 -7.0838406 20.84988305 -10 18 C-10.33 17.01 -10.66 16.02 -11 15 C-9.68 15.33 -8.36 15.66 -7 16 C-7 16.66 -7 17.32 -7 18 C-4.03 17.67 -1.06 17.34 2 17 C2.17073174 11.96341364 2.06518283 8.64666137 0 4 C0 2.68 0 1.36 0 0 Z " fill="#EF4A3D" transform="translate(224,216)"/>
<path d="M0 0 C5.61 0 11.22 0 17 0 C17 0.66 17 1.32 17 2 C17.66 2.33 18.32 2.66 19 3 C18.34 3 17.68 3 17 3 C17 3.66 17 4.32 17 5 C16.34 5 15.68 5 15 5 C15.33 5.66 15.66 6.32 16 7 C18.57951874 7.69093896 18.57951874 7.69093896 21.5625 8.125 C22.57441406 8.29257812 23.58632812 8.46015625 24.62890625 8.6328125 C25.80259766 8.81457031 25.80259766 8.81457031 27 9 C27 9.33 27 9.66 27 10 C20.00151067 10.23546319 13.76073884 9.83410143 7 8 C5.66707533 7.66503626 4.33385826 7.33122655 3 7 C3 6.34 3 5.68 3 5 C2.34 4.67 1.68 4.34 1 4 C1.33 3.01 1.66 2.02 2 1 C1.34 0.67 0.68 0.34 0 0 Z " fill="#3070BB" transform="translate(186,443)"/>
<path d="M0 0 C0.66 0.66 1.32 1.32 2 2 C3.98821313 2.39764263 5.98944339 2.73775349 8 3 C8 3.33 8 3.66 8 4 C-6.29322319 4.65523676 -20.56729452 5.10340075 -34.875 5.125 C-36.69765381 5.13176758 -36.69765381 5.13176758 -38.55712891 5.13867188 C-46.41397004 5.12574058 -54.17613449 4.7145157 -62 4 C-62 3.67 -62 3.34 -62 3 C-56.33663263 2.19203642 -50.86091769 1.85217945 -45.14453125 1.8671875 C-44.32103683 1.86623077 -43.49754242 1.86527405 -42.64909363 1.86428833 C-40.91539432 1.86361179 -39.1816924 1.86542914 -37.44799805 1.86962891 C-34.83701675 1.87495004 -32.22621017 1.86968372 -29.61523438 1.86328125 C-20.35713222 1.85997703 -11.2199517 2.07957731 -2 3 C-2 2.34 -2 1.68 -2 1 C-1.34 0.67 -0.68 0.34 0 0 Z " fill="#4E84C2" transform="translate(232,291)"/>
<path d="M0 0 C6.21375982 5.32607984 10.3490155 12.75419628 11 21 C8.24856334 19.3136356 7.14348493 18.59622 6.37109375 15.38671875 C6.18740234 14.20529297 6.18740234 14.20529297 6 13 C5.96261719 13.73605469 5.92523438 14.47210938 5.88671875 15.23046875 C5.51584656 20.73537559 5.09732338 24.35401493 2 29 C0.86850741 32.29720013 -0.07963553 35.6383851 -1 39 C-1.99 39 -2.98 39 -4 39 C-3.38722388 36.03824877 -2.74627478 34.61941217 -1 32 C2.83282417 22.57617543 3.13808583 13.61038787 0 4 C0 2.68 0 1.36 0 0 Z " fill="#DB5049" transform="translate(274,41)"/>
<path d="M0 0 C1.31625194 2.63250388 0.74813658 3.80179056 0.0625 6.625 C-0.13214844 7.44226563 -0.32679688 8.25953125 -0.52734375 9.1015625 C-0.68332031 9.72804688 -0.83929688 10.35453125 -1 11 C-0.01 10.67 0.98 10.34 2 10 C2.33 9.34 2.66 8.68 3 8 C5.31 8 7.62 8 10 8 C5.3885725 12.00693326 0.54617512 14.085821 -5.0390625 16.4375 C-8.00090962 18.00048001 -9.28413981 19.17674068 -11 22 C-11.33 19.69 -11.66 17.38 -12 15 C-8.25 12 -8.25 12 -6 12 C-5.87625 11.4225 -5.7525 10.845 -5.625 10.25 C-4.99351176 7.97664233 -4.11141809 6.0746471 -3 4 C-2.34 4 -1.68 4 -1 4 C-0.67 2.68 -0.34 1.36 0 0 Z " fill="#E7645A" transform="translate(269,251)"/>
<path d="M0 0 C0.66 0.99 1.32 1.98 2 3 C1.34 3 0.68 3 0 3 C0.020625 3.969375 0.04125 4.93875 0.0625 5.9375 C0.07424236 8.84373384 -0.17725511 11.62054143 -0.5625 14.5 C-1.05290293 18.52539072 -0.65680439 21.98619541 0 26 C0.08503353 28.673832 0.0469499 31.32385585 0 34 C0.66 34 1.32 34 2 34 C2.66 37.3 3.32 40.6 4 44 C0.79281718 42.39640859 0.583834 39.54870441 -0.5625 36.25 C-0.99691406 35.01765625 -1.43132812 33.7853125 -1.87890625 32.515625 C-4.90444082 23.02788593 -5.27349464 12.51738256 -2 3 C-1.34 2.01 -0.68 1.02 0 0 Z " fill="#E25C54" transform="translate(189,161)"/>
<path d="M0 0 C0.99 0.33 1.98 0.66 3 1 C3 1.99 3 2.98 3 4 C3.61875 4.20625 4.2375 4.4125 4.875 4.625 C7.84653645 6.54775888 8.13024659 8.66594527 9 12 C9.66 12 10.32 12 11 12 C11 13.32 11 14.64 11 16 C11.99 16.33 12.98 16.66 14 17 C16.8644432 20.71316711 17.32332002 23.36574638 17 28 C17.66 28 18.32 28 19 28 C19.05451714 30.04136395 19.09302485 32.08315856 19.125 34.125 C19.14820313 35.26195312 19.17140625 36.39890625 19.1953125 37.5703125 C18.99672109 41.05757767 18.2524801 43.7553862 17 47 C15.98666601 43.84740535 16.18873337 42.15492577 17 39 C17.98968898 29.1031102 12.85940587 21.33523003 7.48828125 13.4453125 C6.13166381 11.21632952 5.44414956 9.54645745 5 7 C4.34 7 3.68 7 3 7 C2.01 4.69 1.02 2.38 0 0 Z " fill="#E26B63" transform="translate(254,204)"/>
<path d="M0 0 C4.60428934 1.31551124 8.18320388 3.09196486 12 6 C12 6.66 12 7.32 12 8 C12.763125 8.12375 13.52625 8.2475 14.3125 8.375 C17 9 17 9 20 11 C20 11.66 20 12.32 20 13 C13.375 16 13.375 16 10 16 C9.855625 15.2575 9.71125 14.515 9.5625 13.75 C9.09812508 11.47972261 8.58136431 9.24240521 8 7 C6.68 6.67 5.36 6.34 4 6 C4 5.01 4 4.02 4 3 C2.68 2.67 1.36 2.34 0 2 C0 1.34 0 0.68 0 0 Z " fill="#2F71BE" transform="translate(296,311)"/>
<path d="M0 0 C0.99 0 1.98 0 3 0 C1.90867003 3.00115743 0.68209571 5.51659447 -1 8.25 C-4.2584964 13.83078301 -5.68353276 20.57479205 -5 27 C-4.32570505 29.07222352 -3.55563615 31.07936825 -2.734375 33.09765625 C-1.86057261 35.36117626 -1.37406329 37.60599495 -1 40 C-1.99 39.67 -2.98 39.34 -4 39 C-4.9140625 36.75 -4.9140625 36.75 -5.625 34 C-6.287116 30.71560993 -6.287116 30.71560993 -8 28 C-8.71033438 21.11522064 -7.58304173 15.36535283 -5 9 C-4.34 9 -3.68 9 -3 9 C-3 7.02 -3 5.04 -3 3 C-2.01 3 -1.02 3 0 3 C0 2.01 0 1.02 0 0 Z " fill="#DB5C52" transform="translate(223,171)"/>
<path d="M0 0 C0.66 0 1.32 0 2 0 C3.69140625 2.484375 3.69140625 2.484375 5.5625 5.75 C6.18253906 6.81734375 6.80257812 7.8846875 7.44140625 8.984375 C8.69919375 11.4179889 9.5272716 13.3319986 10 16 C6.0942676 15.40683971 3.78196414 13.51378095 0.75 11.0625 C-0.14203125 10.35222656 -1.0340625 9.64195312 -1.953125 8.91015625 C-2.62859375 8.27980469 -3.3040625 7.64945313 -4 7 C-4 6.34 -4 5.68 -4 5 C-3.01 5 -2.02 5 -1 5 C-0.67 3.35 -0.34 1.7 0 0 Z " fill="#E55E54" transform="translate(237,244)"/>
<path d="M0 0 C1.66656881 -0.02757191 3.33327851 -0.04664803 5 -0.0625 C5.928125 -0.07410156 6.85625 -0.08570313 7.8125 -0.09765625 C11 0 11 0 14.4375 0.46875 C20.91948974 1.33841696 27.47063583 1.36745043 34 1.5625 C35.36068789 1.60578135 36.72136515 1.64939839 38.08203125 1.69335938 C41.38793157 1.79886683 44.69389999 1.90098256 48 2 C48 2.33 48 2.66 48 3 C15.89849055 4.40027356 15.89849055 4.40027356 0 3 C0 2.01 0 1.02 0 0 Z " fill="#5E92C9" transform="translate(180,404)"/>
<path d="M0 0 C0.66 0.33 1.32 0.66 2 1 C-0.61111652 5.83540096 -3.37457083 9.87103901 -7 14 C-7.33 13.01 -7.66 12.02 -8 11 C-7.34 11 -6.68 11 -6 11 C-8.57404971 7.13892543 -10.61020259 7.05680308 -15 6 C-15.33 6.66 -15.66 7.32 -16 8 C-17.32 7.34 -18.64 6.68 -20 6 C-18.68 5.67 -17.36 5.34 -16 5 C-16 4.34 -16 3.68 -16 3 C-14.35 2.34 -12.7 1.68 -11 1 C-11 1.99 -11 2.98 -11 4 C-8.50935112 4.68707555 -6.62113708 5 -4 5 C-3.34 4.01 -2.68 3.02 -2 2 C-1.34 2 -0.68 2 0 2 C0 1.34 0 0.68 0 0 Z " fill="#447CC4" transform="translate(404,411)"/>
<path d="M0 0 C0.66 0.33 1.32 0.66 2 1 C2 1.66 2 2.32 2 3 C1.01 3.33 0.02 3.66 -1 4 C-3.62115553 6.85243395 -5.42531075 9.12084756 -6 13 C-7.98 13 -9.96 13 -12 13 C-12 13.66 -12 14.32 -12 15 C-12.99 15.33 -13.98 15.66 -15 16 C-16.20882096 18.00016466 -16.20882096 18.00016466 -17 20 C-18.32 20 -19.64 20 -21 20 C-21 19.34 -21 18.68 -21 18 C-20.34 18 -19.68 18 -19 18 C-19 17.34 -19 16.68 -19 16 C-18.34 16 -17.68 16 -17 16 C-17 15.34 -17 14.68 -17 14 C-16.01 14 -15.02 14 -14 14 C-14 13.34 -14 12.68 -14 12 C-13.34 12 -12.68 12 -12 12 C-12 11.34 -12 10.68 -12 10 C-10.390625 8.6328125 -10.390625 8.6328125 -8.25 7.125 C-5.23327463 4.94268803 -2.53516854 2.74643258 0 0 Z " fill="#E74E42" transform="translate(228,120)"/>
<path d="M0 0 C0.66 0.33 1.32 0.66 2 1 C1.34 2.65 0.68 4.3 0 6 C3.3 5.67 6.6 5.34 10 5 C7.49959692 7.50040308 5.66641309 7.78364454 2.25 8.625 C1.22390625 8.88539063 0.1978125 9.14578125 -0.859375 9.4140625 C-3.98495856 9.99719376 -6.82889349 10.10443764 -10 10 C-8.78934835 6.36804504 -7.46308874 5.57103808 -4.4375 3.3125 C-3.61121094 2.68988281 -2.78492188 2.06726563 -1.93359375 1.42578125 C-1.29550781 0.95527344 -0.65742188 0.48476563 0 0 Z " fill="#618CC4" transform="translate(336,331)"/>
<path d="M0 0 C0.66 0.33 1.32 0.66 2 1 C1.49210937 1.37511719 0.98421875 1.75023437 0.4609375 2.13671875 C-2.89795368 4.63387193 -6.20684576 7.13815388 -9.375 9.875 C-12 12 -12 12 -14 12 C-14 12.66 -14 13.32 -14 14 C-16.5 15.625 -16.5 15.625 -19 17 C-19 15.68 -19 14.36 -19 13 C-18.34 13 -17.68 13 -17 13 C-16.8453125 11.824375 -16.8453125 11.824375 -16.6875 10.625 C-16 8 -16 8 -13 6 C-10.67612053 5.60612212 -8.34206251 5.26513915 -6 5 C-6 4.34 -6 3.68 -6 3 C-5.01 3 -4.02 3 -3 3 C-3 2.34 -3 1.68 -3 1 C-2.01 0.67 -1.02 0.34 0 0 Z " fill="#E65C50" transform="translate(316,132)"/>
<path d="M0 0 C0.33 0.99 0.66 1.98 1 3 C1.66 3 2.32 3 3 3 C3 4.32 3 5.64 3 7 C3.66 7.33 4.32 7.66 5 8 C4.67 8.66 4.34 9.32 4 10 C0.9375 10.625 0.9375 10.625 -2 11 C-2.33 10.01 -2.66 9.02 -3 8 C-5.97 7.505 -5.97 7.505 -9 7 C-3.65789474 0 -3.65789474 0 0 0 Z " fill="#1764BB" transform="translate(349,323)"/>
<path d="M0 0 C2.31 0.66 4.62 1.32 7 2 C5.7934375 2.8971875 5.7934375 2.8971875 4.5625 3.8125 C1.77672016 5.80947276 1.77672016 5.80947276 1 9 C1.38932856 11.14255793 1.38932856 11.14255793 2 13 C0.02 13 -1.96 13 -4 13 C-4.33 12.01 -4.66 11.02 -5 10 C-4.34 9.67 -3.68 9.34 -3 9 C-3 7.02 -3 5.04 -3 3 C-2.34 3 -1.68 3 -1 3 C-0.67 2.01 -0.34 1.02 0 0 Z " fill="#1464C0" transform="translate(389,416)"/>
<path d="M0 0 C1.76923828 0.01353516 1.76923828 0.01353516 3.57421875 0.02734375 C4.47785156 0.03894531 5.38148438 0.05054688 6.3125 0.0625 C6.3125 0.3925 6.3125 0.7225 6.3125 1.0625 C-0.64123491 2.71281036 -7.45282769 3.42890915 -14.5859375 3.81640625 C-17.5418539 3.9646405 -17.5418539 3.9646405 -19.7734375 4.5859375 C-22.20377179 5.19104114 -24.43708632 5.15790018 -26.9375 5.125 C-27.82953125 5.11597656 -28.7215625 5.10695313 -29.640625 5.09765625 C-30.31609375 5.08605469 -30.9915625 5.07445312 -31.6875 5.0625 C-26.82566479 2.63158239 -23.20110941 1.82139174 -17.75 1.5625 C-11.68393025 1.27287333 -6.06215227 -0.06002131 0 0 Z " fill="#4C84BF" transform="translate(303.6875,420.9375)"/>
<path d="M0 0 C3.29394956 0.69871657 6.15105426 1.86379694 9.1875 3.3125 C10.50814453 3.92544922 10.50814453 3.92544922 11.85546875 4.55078125 C14 6 14 6 15 10 C11.04 9.67 7.08 9.34 3 9 C3.33 7.68 3.66 6.36 4 5 C3.67 4.01 3.34 3.02 3 2 C2.01 2 1.02 2 0 2 C0 1.34 0 0.68 0 0 Z " fill="#477DBD" transform="translate(151,363)"/>
<path d="M0 0 C1.231394 2.46278801 1.07159196 4.2795055 1 7 C0.34 7 -0.32 7 -1 7 C-3.29518851 7.96249841 -4.85761316 8.85761316 -6.625 10.625 C-7.07875 11.07875 -7.5325 11.5325 -8 12 C-8.66 12 -9.32 12 -10 12 C-10.103125 12.928125 -10.20625 13.85625 -10.3125 14.8125 C-11.00531495 18.02464205 -11.3879169 19.11930017 -14 21 C-14.66 21 -15.32 21 -16 21 C-15.42648352 16.8545826 -13.0313762 13.98001644 -10.5625 10.75 C-10.15451172 10.19570312 -9.74652344 9.64140625 -9.32617188 9.0703125 C-8.27046691 7.67189091 -7.14012413 6.33049348 -6 5 C-5.34 5 -4.68 5 -4 5 C-3.71125 4.360625 -3.4225 3.72125 -3.125 3.0625 C-2 1 -2 1 0 0 Z " fill="#E4665D" transform="translate(206,140)"/>
<path d="M0 0 C3.34460174 2.22973449 3.74105705 3.1782876 5.125 6.8125 C5.45757812 7.66457031 5.79015625 8.51664063 6.1328125 9.39453125 C9.2085519 18.63560413 8.6342191 27.04424578 5 36 C3.98607911 32.84557945 4.18019874 31.15651368 5 28 C5.11920787 25.54376334 5.17522906 23.08409708 5.1875 20.625 C5.20876953 18.69527344 5.20876953 18.69527344 5.23046875 16.7265625 C5.00714141 13.11547289 4.31293032 10.35238333 3 7 C2.34 7 1.68 7 1 7 C0.67 4.69 0.34 2.38 0 0 Z " fill="#E47770" transform="translate(290,205)"/>
<path d="M0 0 C0.495 0.99 0.495 0.99 1 2 C-0.4117783 2.53394179 -1.82970244 3.05165104 -3.25 3.5625 C-4.03890625 3.85253906 -4.8278125 4.14257812 -5.640625 4.44140625 C-8 5 -8 5 -9.71289062 4.5546875 C-12.80460639 3.80486062 -15.77411686 3.77788636 -18.953125 3.68359375 C-19.94345734 3.6524221 -19.94345734 3.6524221 -20.95379639 3.62062073 C-23.05243015 3.55549853 -25.15118372 3.49641498 -27.25 3.4375 C-28.67709547 3.39427921 -30.10417905 3.3506638 -31.53125 3.30664062 C-35.02070722 3.19985589 -38.51029753 3.09848434 -42 3 C-41.67 2.34 -41.34 1.68 -41 1 C-39.40345581 1.00785522 -39.40345581 1.00785522 -37.7746582 1.01586914 C-33.81438034 1.0340105 -29.85410614 1.04546537 -25.89379883 1.05493164 C-24.18187848 1.05995099 -22.46996239 1.06676785 -20.75805664 1.07543945 C-18.29312078 1.08761021 -15.82824175 1.09325238 -13.36328125 1.09765625 C-12.60163162 1.10281754 -11.83998199 1.10797882 -11.05525208 1.11329651 C-7.24150175 1.11369638 -3.70684229 0.92590961 0 0 Z " fill="#558CC7" transform="translate(249,352)"/>
<path d="M0 0 C1.65 0 3.3 0 5 0 C4.01 0.495 4.01 0.495 3 1 C2.31513275 2.32407669 1.65129797 3.65909241 1 5 C-0.5 7.25 -0.5 7.25 -2 9 C-2.66 9 -3.32 9 -4 9 C-4.103125 9.61875 -4.20625 10.2375 -4.3125 10.875 C-5 13 -5 13 -8 15 C-8.08912219 11.16774573 -7.87867729 7.73437848 -7 4 C-5.35 4 -3.7 4 -2 4 C-1.34 2.68 -0.68 1.36 0 0 Z " fill="#EC5E53" transform="translate(234,156)"/>
<path d="M0 0 C1.19278564 -0.02707031 1.19278564 -0.02707031 2.40966797 -0.0546875 C3.4674646 -0.08272461 3.4674646 -0.08272461 4.54663086 -0.11132812 C6.43701172 0.1015625 6.43701172 0.1015625 9.43701172 2.1015625 C7.67059489 2.8003318 5.89868508 3.48522833 4.12451172 4.1640625 C3.13837891 4.54691406 2.15224609 4.92976562 1.13623047 5.32421875 C-1.56298828 6.1015625 -1.56298828 6.1015625 -4.56298828 5.1015625 C-3.90298828 5.1015625 -3.24298828 5.1015625 -2.56298828 5.1015625 C-2.56298828 4.4415625 -2.56298828 3.7815625 -2.56298828 3.1015625 C-3.58779297 3.11316406 -4.61259766 3.12476563 -5.66845703 3.13671875 C-7.02913228 3.14610272 -8.38980952 3.15520227 -9.75048828 3.1640625 C-10.42402344 3.17244141 -11.09755859 3.18082031 -11.79150391 3.18945312 C-15.51732959 3.20762788 -18.94179248 2.99455642 -22.56298828 2.1015625 C-22.56298828 1.7715625 -22.56298828 1.4415625 -22.56298828 1.1015625 C-19.41735318 0.93101329 -16.27145591 0.76585439 -13.12548828 0.6015625 C-11.80774414 0.53001953 -11.80774414 0.53001953 -10.46337891 0.45703125 C-6.97648862 0.2768967 -3.48874661 0.13824715 0 0 Z " fill="#82A3CC" transform="translate(193.56298828125,249.8984375)"/>
<path d="M0 0 C1.18851563 0.19464844 2.37703125 0.38929688 3.6015625 0.58984375 C4.97441406 0.82380859 4.97441406 0.82380859 6.375 1.0625 C6.375 1.3925 6.375 1.7225 6.375 2.0625 C4.065 2.3925 1.755 2.7225 -0.625 3.0625 C-0.625 3.7225 -0.625 4.3825 -0.625 5.0625 C0.365 5.3925 1.355 5.7225 2.375 6.0625 C1.375 7.6875 1.375 7.6875 -0.625 9.0625 C-3.4408905 8.71259645 -5.8966858 7.91230278 -8.625 7.0625 C-7.965 6.4025 -7.305 5.7425 -6.625 5.0625 C-6.625 4.0725 -6.625 3.0825 -6.625 2.0625 C-7.285 1.4025 -7.945 0.7425 -8.625 0.0625 C-5.61666904 -1.44166548 -3.27538422 -0.54589737 0 0 Z " fill="#4986CA" transform="translate(188.625,440.9375)"/>
<path d="M0 0 C1.98 0 3.96 0 6 0 C6 0.66 6 1.32 6 2 C6.75925781 2.04898437 7.51851562 2.09796875 8.30078125 2.1484375 C9.29464844 2.22320312 10.28851563 2.29796875 11.3125 2.375 C12.79169922 2.47941406 12.79169922 2.47941406 14.30078125 2.5859375 C17 3 17 3 20 5 C18.35 5 16.7 5 15 5 C15 5.99 15 6.98 15 8 C3.84110309 4.9448457 3.84110309 4.9448457 0 2 C0 1.34 0 0.68 0 0 Z " fill="#5F8BBC" transform="translate(144,433)"/>
<path d="M0 0 C0.66 0.33 1.32 0.66 2 1 C2.52998724 9.69571655 1.93594603 19.59608095 -3 27 C-2.5235155 20.62321803 -2.03739465 14.24696509 -1.5 7.875 C-1.39171875 6.57175781 -1.39171875 6.57175781 -1.28125 5.2421875 C-1 3 -1 3 0 0 Z " fill="#E2736B" transform="translate(286,72)"/>
<path d="M0 0 C1.65 0.33 3.3 0.66 5 1 C3.38405168 3.04119788 1.7143618 5.04072937 0 7 C-0.66 7 -1.32 7 -2 7 C-2.4021875 8.1446875 -2.4021875 8.1446875 -2.8125 9.3125 C-3.98111462 11.9572594 -5.00934798 13.00934798 -7 15 C-8.19027984 17.59915538 -8.19027984 17.59915538 -9 20 C-9.33 20 -9.66 20 -10 20 C-10.125 14.25 -10.125 14.25 -9 12 C-8.34 12 -7.68 12 -7 12 C-6.67 11.01 -6.34 10.02 -6 9 C-5.67 8.01 -5.34 7.02 -5 6 C-2.9375 5.3125 -2.9375 5.3125 -1 5 C-1 4.34 -1 3.68 -1 3 C-0.34 3 0.32 3 1 3 C0.67 2.01 0.34 1.02 0 0 Z " fill="#E15F53" transform="translate(290,150)"/>
<path d="M0 0 C3.73487777 0.4979837 5.81237635 0.87491756 9 3 C11.53725615 3.38513665 11.53725615 3.38513665 14.3125 3.5 C18.50398598 3.805745 22.07154414 4.40738276 26 6 C26 6.33 26 6.66 26 7 C17.10708083 7.48506832 8.69059407 5.67625695 0 4 C0 2.66666667 0 1.33333333 0 0 Z " fill="#4B80C0" transform="translate(208,450)"/>
<path d="M0 0 C0.144375 0.598125 0.28875 1.19625 0.4375 1.8125 C0.8872439 3.56150404 1.42892341 5.28677023 2 7 C1.34 7.66 0.68 8.32 0 9 C-0.16687448 11.58354218 -0.16687448 11.58354218 0 14 C-0.99 14.495 -0.99 14.495 -2 15 C-2.33 13.02 -2.66 11.04 -3 9 C-5.64 9 -8.28 9 -11 9 C-10.67 8.01 -10.34 7.02 -10 6 C-7.69 6 -5.38 6 -3 6 C-3.33 4.35 -3.66 2.7 -4 1 C-2 0 -2 0 0 0 Z " fill="#4A81BD" transform="translate(194,335)"/>
<path d="M0 0 C0 0.33 0 0.66 0 1 C-12.67737613 3.24307445 -25.15831479 3.21757058 -38 3 C-38 2.67 -38 2.34 -38 2 C-25.29304542 0.67870163 -12.7821215 -0.32962491 0 0 Z " fill="#6090C5" transform="translate(298,270)"/>
<path d="M0 0 C0.66 0.33 1.32 0.66 2 1 C1.01 1.33 0.02 1.66 -1 2 C-1 2.66 -1 3.32 -1 4 C-1.99 4 -2.98 4 -4 4 C-4 4.66 -4 5.32 -4 6 C-4.99 6.495 -4.99 6.495 -6 7 C-6 7.99 -6 8.98 -6 10 C-6.66 10 -7.32 10 -8 10 C-8 10.66 -8 11.32 -8 12 C-8.99 11.67 -9.98 11.34 -11 11 C-11.99 11.66 -12.98 12.32 -14 13 C-16.1875 12.625 -16.1875 12.625 -18 12 C-14.375 9 -14.375 9 -11 9 C-10.7628125 8.39800781 -10.525625 7.79601562 -10.28125 7.17578125 C-8.70584402 4.50047292 -7.21691754 3.64740212 -4.5 2.1875 C-3.7059375 1.74792969 -2.911875 1.30835938 -2.09375 0.85546875 C-1.4028125 0.57316406 -0.711875 0.29085937 0 0 Z " fill="#E6685D" transform="translate(285,129)"/>
<path d="M0 0 C0.33 0.99 0.66 1.98 1 3 C1.66 3 2.32 3 3 3 C3 3.99 3 4.98 3 6 C2.34 6 1.68 6 1 6 C0.7525 6.598125 0.505 7.19625 0.25 7.8125 C-1 10 -1 10 -5 13 C-5 9.7 -5 6.4 -5 3 C-3.68 2.34 -2.36 1.68 -1 1 C-0.67 0.67 -0.34 0.34 0 0 Z " fill="#ED5142" transform="translate(261,125)"/>
<path d="M0 0 C-0.66 0 -1.32 0 -2 0 C-2.33 0.99 -2.66 1.98 -3 3 C-0.69 3.66 1.62 4.32 4 5 C4 5.33 4 5.66 4 6 C-3.92 6.495 -3.92 6.495 -12 7 C-10.84625061 3.53875184 -10.12298029 3.11687417 -7.125 1.25 C-6.42632812 0.80140625 -5.72765625 0.3528125 -5.0078125 -0.109375 C-3 -1 -3 -1 0 0 Z " fill="#5A82BB" transform="translate(346,255)"/>
<path d="M0 0 C0.33 1.32 0.66 2.64 1 4 C0.01 4.66 -0.98 5.32 -2 6 C-2.69100553 7.99172182 -3.35902703 9.99161804 -4 12 C-4.99 12.495 -4.99 12.495 -6 13 C-6.33 13.66 -6.66 14.32 -7 15 C-7.99 15 -8.98 15 -10 15 C-10 15.66 -10 16.32 -10 17 C-10.66 16.67 -11.32 16.34 -12 16 C-11.319375 14.88625 -11.319375 14.88625 -10.625 13.75 C-9.31359204 11.53069422 -8.11719197 9.32032178 -7 7 C-6.34 7 -5.68 7 -5 7 C-5 6.34 -5 5.68 -5 5 C-4.34 5 -3.68 5 -3 5 C-2.690625 4.360625 -2.38125 3.72125 -2.0625 3.0625 C-1 1 -1 1 0 0 Z " fill="#EA605B" transform="translate(266,142)"/>
<path d="M0 0 C1.32 0 2.64 0 4 0 C4 0.66 4 1.32 4 2 C5.98 2.66 7.96 3.32 10 4 C10 5.65 10 7.3 10 9 C9.34 9 8.68 9 8 9 C8 8.34 8 7.68 8 7 C7.236875 7.165 6.47375 7.33 5.6875 7.5 C3 8 3 8 0 8 C0.66 6.02 1.32 4.04 2 2 C1.34 1.34 0.68 0.68 0 0 Z " fill="#1563BC" transform="translate(313,442)"/>
<path d="M0 0 C0.87454834 0.00523682 1.74909668 0.01047363 2.65014648 0.01586914 C3.59438477 0.0190918 4.53862305 0.02231445 5.51147461 0.02563477 C6.50469727 0.03401367 7.49791992 0.04239258 8.52124023 0.05102539 C9.51833008 0.05553711 10.51541992 0.06004883 11.54272461 0.06469727 C14.01478872 0.07652532 16.48673541 0.0930069 18.95874023 0.11352539 C18.95874023 0.77352539 18.95874023 1.43352539 18.95874023 2.11352539 C14.88347684 2.88129014 11.04868576 3.23254573 6.90405273 3.21118164 C5.79545898 3.20795898 4.68686523 3.20473633 3.54467773 3.20141602 C2.40256836 3.19303711 1.26045898 3.1846582 0.08374023 3.17602539 C-1.08157227 3.17151367 -2.24688477 3.16700195 -3.44750977 3.16235352 C-6.31214622 3.1506132 -9.1766761 3.13419109 -12.04125977 3.11352539 C-12.04125977 2.78352539 -12.04125977 2.45352539 -12.04125977 2.11352539 C-11.08413086 2.02264648 -11.08413086 2.02264648 -10.10766602 1.92993164 C-8.86823242 1.80424805 -8.86823242 1.80424805 -7.60375977 1.67602539 C-6.78004883 1.59481445 -5.95633789 1.51360352 -5.10766602 1.42993164 C-2.72093261 1.06447719 -2.40737683 0.13388712 0 0 Z " fill="#4A80BA" transform="translate(231.041259765625,405.886474609375)"/>
<path d="M0 0 C0.33 0 0.66 0 1 0 C1 4.95 1 9.9 1 15 C1.66 15 2.32 15 3 15 C3.103125 16.216875 3.20625 17.43375 3.3125 18.6875 C3.75854398 22.45557304 4.97639998 24.78063632 7 28 C6.67 28.99 6.34 29.98 6 31 C0.26337372 24.44385568 -1.34233065 15.69224216 -0.83203125 7.20703125 C-0.59746266 4.79675403 -0.32561195 2.39950962 0 0 Z " fill="#E46F68" transform="translate(248,173)"/>
<path d="M0 0 C0.77472656 0.00451172 1.54945313 0.00902344 2.34765625 0.01367188 C4.23180524 0.02530242 6.11591365 0.04323094 8 0.0625 C8 0.3925 8 0.7225 8 1.0625 C10.31 1.3925 12.62 1.7225 15 2.0625 C15 2.3925 15 2.7225 15 3.0625 C-6.53191489 3.25398936 -6.53191489 3.25398936 -17 2.0625 C-17 1.7325 -17 1.4025 -17 1.0625 C-11.28094617 0.23713655 -5.7732851 -0.06503701 0 0 Z " fill="#739FCB" transform="translate(205,424.9375)"/>
<path d="M0 0 C8.3201122 0.63674328 16.20077079 1.98977118 24 5 C20.91954476 6.84194849 19.26634662 7.198414 15.77734375 6.390625 C14.99166016 6.21273438 14.20597656 6.03484375 13.39648438 5.8515625 C12.17928711 5.55378906 12.17928711 5.55378906 10.9375 5.25 C10.12216797 5.06695312 9.30683594 4.88390625 8.46679688 4.6953125 C4.73462846 3.82437098 2.24056267 3.16037512 -1 1 C-0.67 0.67 -0.34 0.34 0 0 Z " fill="#447EBD" transform="translate(141,417)"/>
<path d="M0 0 C5.20221263 6.38254658 6.33958331 13.81320024 6.30078125 21.87109375 C6 24 6 24 4 27 C3.87882812 25.75863281 3.75765625 24.51726562 3.6328125 23.23828125 C3.46392452 21.59631474 3.2946324 19.95438977 3.125 18.3125 C3.04636719 17.49587891 2.96773438 16.67925781 2.88671875 15.83789062 C2.34676679 10.70834703 1.31704924 6.63409849 -1 2 C-0.67 1.34 -0.34 0.68 0 0 Z " fill="#5289C1" transform="translate(386,263)"/>
<path d="M0 0 C1.07878418 0.01047363 2.15756836 0.02094727 3.26904297 0.03173828 C5.01894531 0.04140625 5.01894531 0.04140625 6.80419922 0.05126953 C8.02751953 0.06802734 9.25083984 0.08478516 10.51123047 0.10205078 C11.74228516 0.11107422 12.97333984 0.12009766 14.24169922 0.12939453 C17.29006862 0.1530253 20.33805429 0.18597024 23.38623047 0.22705078 C23.38623047 0.55705078 23.38623047 0.88705078 23.38623047 1.22705078 C20.40813383 1.59363236 17.42944992 1.94553625 14.44873047 2.28955078 C13.61792969 2.39332031 12.78712891 2.49708984 11.93115234 2.60400391 C6.19990697 3.25072031 1.0973245 3.05115416 -4.61376953 2.22705078 C-2.61376953 0.22705078 -2.61376953 0.22705078 0 0 Z " fill="#2562AB" transform="translate(215.61376953125,424.77294921875)"/>
<path d="M0 0 C0 0.99 0 1.98 0 3 C-2 4.6875 -2 4.6875 -4 6 C-4.66 5.67 -5.32 5.34 -6 5 C-5.67 4.34 -5.34 3.68 -5 3 C-7.64 3 -10.28 3 -13 3 C-13 3.66 -13 4.32 -13 5 C-15.31 4.67 -17.62 4.34 -20 4 C-13.69529267 0.61282089 -7.08088525 -0.30131427 0 0 Z " fill="#E18E84" transform="translate(341,114)"/>
<path d="M0 0 C-0.33 0.70125 -0.66 1.4025 -1 2.125 C-2.09044562 5.26003116 -2.15322643 7.70563182 -2 11 C-2.99 11 -3.98 11 -5 11 C-4.67 8.03 -4.34 5.06 -4 2 C-5.98 2.99 -5.98 2.99 -8 4 C-10.33203812 4.0777346 -12.66839059 4.08967728 -15 4 C-10.27844707 -0.02206361 -6.0476984 -0.14064415 0 0 Z " fill="#5F8DC1" transform="translate(183,297)"/>
<path d="M0 0 C0.33 0 0.66 0 1 0 C1.54198687 15.59717759 1.54198687 15.59717759 -2 22 C-2.68836513 23.99263591 -3.36281399 25.99041337 -4 28 C-4.99 28 -5.98 28 -7 28 C-6.38722388 25.03824877 -5.74627478 23.61941217 -4 21 C-1.32591871 14.14206904 -0.40308843 7.31119013 0 0 Z " fill="#E77E79" transform="translate(277,52)"/>
<path d="M0 0 C0.66 0.33 1.32 0.66 2 1 C2.40729228 3.32156597 2.74438677 5.6568787 3 8 C1.54618103 8.69699552 0.08677047 9.38233866 -1.375 10.0625 C-2.18710937 10.44535156 -2.99921875 10.82820313 -3.8359375 11.22265625 C-4.55007813 11.47917969 -5.26421875 11.73570312 -6 12 C-6.66 11.67 -7.32 11.34 -8 11 C-7.50628906 10.45730469 -7.01257813 9.91460937 -6.50390625 9.35546875 C-5.86324219 8.64003906 -5.22257812 7.92460937 -4.5625 7.1875 C-3.92441406 6.47980469 -3.28632813 5.77210938 -2.62890625 5.04296875 C-0.80913988 3.00103848 -0.80913988 3.00103848 0 0 Z " fill="#417CC0" transform="translate(358,306)"/>
<path d="M0 0 C-3.36184641 2.858827 -6.79750241 4.21618816 -10.9375 5.6875 C-12.74541016 6.34298828 -12.74541016 6.34298828 -14.58984375 7.01171875 C-17.6321505 7.89339528 -19.86946823 8.21979066 -23 8 C-20.08235 6.0549 -18.37462715 5.54723683 -15 5 C-15 4.34 -15 3.68 -15 3 C-9.89665983 1.094753 -5.53657294 -0.42589023 0 0 Z " fill="#5788C5" transform="translate(354,408)"/>
<path d="M0 0 C0 0.66 0 1.32 0 2 C1.32 2.66 2.64 3.32 4 4 C0.37 3.34 -3.26 2.68 -7 2 C-7.33 2.99 -7.66 3.98 -8 5 C-10.97 4.505 -10.97 4.505 -14 4 C-14 4.66 -14 5.32 -14 6 C-15.65 5.67 -17.3 5.34 -19 5 C-13.41631348 1.27754232 -6.71593812 -0.53020564 0 0 Z " fill="#4C83BC" transform="translate(286,345)"/>
<path d="M0 0 C0.53109375 0.51175781 1.0621875 1.02351563 1.609375 1.55078125 C-0.203125 3.55078125 -0.203125 3.55078125 -2.390625 5.55078125 C-3.380625 5.55078125 -4.370625 5.55078125 -5.390625 5.55078125 C-5.060625 4.56078125 -4.730625 3.57078125 -4.390625 2.55078125 C-7.690625 2.55078125 -10.990625 2.55078125 -14.390625 2.55078125 C-14.390625 1.89078125 -14.390625 1.23078125 -14.390625 0.55078125 C-12.4786419 0.13291073 -10.5606987 -0.25775684 -8.640625 -0.63671875 C-7.57328125 -0.85714844 -6.5059375 -1.07757813 -5.40625 -1.3046875 C-2.390625 -1.44921875 -2.390625 -1.44921875 0 0 Z " fill="#3B77BB" transform="translate(312.390625,268.44921875)"/>
<path d="M0 0 C4.5006402 -0.36491677 4.5006402 -0.36491677 6.625 1.1875 C8.418395 3.55152068 8.49663678 5.24820634 8.6875 8.1875 C8.78611328 9.53908203 8.78611328 9.53908203 8.88671875 10.91796875 C8.92410156 11.60503906 8.96148437 12.29210937 9 13 C6.73996439 10.73996439 5.56719602 8.46443936 4.09765625 5.65625 C2.94357293 3.68278769 2.94357293 3.68278769 0 2 C0 1.34 0 0.68 0 0 Z " fill="#4A83C2" transform="translate(358,265)"/>
<path d="M0 0 C0.99 0.495 0.99 0.495 2 1 C2 1.66 2 2.32 2 3 C2.99 3.33 3.98 3.66 5 4 C5.6875 6.0625 5.6875 6.0625 6 8 C6.66 8 7.32 8 8 8 C8 8.99 8 9.98 8 11 C8.66 11 9.32 11 10 11 C10 11.99 10 12.98 10 14 C11.32 14.66 12.64 15.32 14 16 C13.34 16.66 12.68 17.32 12 18 C10.84545838 16.75803878 9.70167438 15.50607155 8.5625 14.25 C7.92441406 13.55390625 7.28632813 12.8578125 6.62890625 12.140625 C5.00918675 10.01207275 4.41732744 8.60976595 4 6 C3.34 6 2.68 6 2 6 C1.34 4.02 0.68 2.04 0 0 Z " fill="#E4726B" transform="translate(193,205)"/>
<path d="M0 0 C1.32 0 2.64 0 4 0 C2.59155282 3.21524305 0.89655214 5.32183868 -1.625 7.75 C-2.57246094 8.67039062 -2.57246094 8.67039062 -3.5390625 9.609375 C-4.02117187 10.06828125 -4.50328125 10.5271875 -5 11 C-5.33 9.68 -5.66 8.36 -6 7 C-5.01 7 -4.02 7 -3 7 C-3 6.01 -3 5.02 -3 4 C-3.66 4 -4.32 4 -5 4 C-4.67 3.01 -4.34 2.02 -4 1 C-2.68 1.66 -1.36 2.32 0 3 C0 2.01 0 1.02 0 0 Z " fill="#417CBC" transform="translate(377,313)"/>
<path d="M0 0 C1.65 0.33 3.3 0.66 5 1 C5 1.66 5 2.32 5 3 C6.65 3 8.3 3 10 3 C10.33 3.66 10.66 4.32 11 5 C7.7 5.66 4.4 6.32 1 7 C-1 4 -1 4 -0.625 1.8125 C-0.41875 1.214375 -0.2125 0.61625 0 0 Z " fill="#3272BA" transform="translate(137,392)"/>
<path d="M0 0 C0.66 0.33 1.32 0.66 2 1 C1.2575 1.6496875 1.2575 1.6496875 0.5 2.3125 C-1.33218192 3.99740483 -1.33218192 3.99740483 -1 7 C-1.66 7.66 -2.32 8.32 -3 9 C-3.24253813 11.21072977 -3.24253813 11.21072977 -3.125 13.625 C-3.10695313 14.44226563 -3.08890625 15.25953125 -3.0703125 16.1015625 C-3.04710938 16.72804688 -3.02390625 17.35453125 -3 18 C-3.99 18 -4.98 18 -6 18 C-6.54330269 11.34454208 -5.77304004 7.54165256 -2 2 C-1.34 2 -0.68 2 0 2 C0 1.34 0 0.68 0 0 Z " fill="#5989C2" transform="translate(99,373)"/>
<path d="M0 0 C1 3 1 3 -0.1875 5.9375 C-1.88069631 8.7984179 -3.53876547 10.79337594 -6 13 C-6.99 12.67 -7.98 12.34 -9 12 C-6.03 8.04 -3.06 4.08 0 0 Z " fill="#E67162" transform="translate(269,80)"/>
<path d="M0 0 C-0.14168137 1.43791516 -0.28851043 2.8753237 -0.4375 4.3125 C-0.51871094 5.11300781 -0.59992188 5.91351563 -0.68359375 6.73828125 C-1 9 -1 9 -2 12 C-2.66 12 -3.32 12 -4 12 C-4.66 13.32 -5.32 14.64 -6 16 C-6 14.35 -6 12.7 -6 11 C-5.34 11 -4.68 11 -4 11 C-4.2475 9.9275 -4.495 8.855 -4.75 7.75 C-5 4 -5 4 -3.125 1.5625 C-1 0 -1 0 0 0 Z " fill="#5C8AC8" transform="translate(379,380)"/>
<path d="M0 0 C0.7425 0.0825 1.485 0.165 2.25 0.25 C2.25 0.91 2.25 1.57 2.25 2.25 C6.54 2.58 10.83 2.91 15.25 3.25 C15.25 3.58 15.25 3.91 15.25 4.25 C7.99 4.25 0.73 4.25 -6.75 4.25 C-2.75 0.25 -2.75 0.25 0 0 Z " fill="#1664B7" transform="translate(184.75,289.75)"/>
<path d="M0 0 C5.28 0 10.56 0 16 0 C16 0.33 16 0.66 16 1 C7.95969329 2.77967263 0.28982104 4.43630637 -8 4 C-8 3.67 -8 3.34 -8 3 C-5.36 3 -2.72 3 0 3 C0 2.01 0 1.02 0 0 Z " fill="#6897CC" transform="translate(281,287)"/>
<path d="M0 0 C0.66 0.33 1.32 0.66 2 1 C1.67 1.99 1.34 2.98 1 4 C0.13375 4.185625 0.13375 4.185625 -0.75 4.375 C-4.04702594 5.29084054 -5.64737798 7.58705434 -8 10 C-8.99 10.33 -9.98 10.66 -11 11 C-8.74906274 5.74781305 -5.07515737 2.53757868 0 0 Z " fill="#497FBC" transform="translate(179,343)"/>
<path d="M0 0 C0.9075 0.391875 1.815 0.78375 2.75 1.1875 C2.151875 1.620625 1.55375 2.05375 0.9375 2.5 C-0.96467946 3.96739559 -2.59396471 5.45619038 -4.25 7.1875 C-4.91 7.8475 -5.57 8.5075 -6.25 9.1875 C-6.58 6.8775 -6.91 4.5675 -7.25 2.1875 C-4.52596974 -0.53653026 -3.86366821 -0.96591705 0 0 Z " fill="#D17674" transform="translate(264.25,263.8125)"/>
<path d="M0 0 C0.66 0.99 1.32 1.98 2 3 C1.34 3 0.68 3 0 3 C0.061875 3.969375 0.12375 4.93875 0.1875 5.9375 C0.21625881 10.61559946 -1.35228793 14.67475582 -3 19 C-3.33 19 -3.66 19 -4 19 C-4.28602017 12.27852593 -3.80167749 5.70251624 0 0 Z " fill="#E3736B" transform="translate(189,161)"/>
<path d="M0 0 C3.3 0 6.6 0 10 0 C10.33 0.66 10.66 1.32 11 2 C9 4 9 4 7.0546875 4.1953125 C5.03645833 4.13020833 3.01822917 4.06510417 1 4 C0.67 2.68 0.34 1.36 0 0 Z " fill="#316FB9" transform="translate(159,438)"/>
<path d="M0 0 C-1.98 0.66 -3.96 1.32 -6 2 C-6 2.66 -6 3.32 -6 4 C-7.134375 4.28875 -8.26875 4.5775 -9.4375 4.875 C-10.613125 5.24625 -11.78875 5.6175 -13 6 C-13.33 6.66 -13.66 7.32 -14 8 C-15.32 7.67 -16.64 7.34 -18 7 C-17.01 6.67 -16.02 6.34 -15 6 C-15 5.34 -15 4.68 -15 4 C-13.68 4 -12.36 4 -11 4 C-11 3.34 -11 2.68 -11 2 C-9.54494642 1.47007308 -8.08581873 0.9513211 -6.625 0.4375 C-5.40683594 0.00244141 -5.40683594 0.00244141 -4.1640625 -0.44140625 C-2 -1 -2 -1 0 0 Z " fill="#5786C2" transform="translate(119,365)"/>
<path d="M0 0 C1.50887917 2.96289 2.92889463 5.94843266 4.25 9 C4.62640625 9.845625 5.0028125 10.69125 5.390625 11.5625 C6 14 6 14 5.109375 16.3125 C4.74328125 16.869375 4.3771875 17.42625 4 18 C0.67202085 11.71546794 -0.45164525 7.11341265 0 0 Z " fill="#E6746C" transform="translate(279,179)"/>
<path d="M0 0 C1.2109375 1.640625 1.2109375 1.640625 2 4 C0.6640625 6.796875 0.6640625 6.796875 -1.375 9.75 C-2.04273438 10.73484375 -2.71046875 11.7196875 -3.3984375 12.734375 C-3.92695313 13.48203125 -4.45546875 14.2296875 -5 15 C-5.185625 14.071875 -5.185625 14.071875 -5.375 13.125 C-5.87197356 10.80879168 -5.87197356 10.80879168 -8 9 C-6.35 8.67 -4.7 8.34 -3 8 C-2.67 7.01 -2.34 6.02 -2 5 C-1.34 5 -0.68 5 0 5 C0 3.35 0 1.7 0 0 Z " fill="#E85E55" transform="translate(276,107)"/>
<path d="M0 0 C6.6 0 13.2 0 20 0 C20 0.66 20 1.32 20 2 C17.41703983 2.19522373 14.83395921 2.38144403 12.25 2.5625 C11.52039063 2.61857422 10.79078125 2.67464844 10.0390625 2.73242188 C6.45046349 2.97709908 3.44972775 2.99666259 0 2 C0 1.34 0 0.68 0 0 Z " fill="#5283BA" transform="translate(251,425)"/>
<path d="M0 0 C1.9375 0.375 1.9375 0.375 4 1 C4.33 1.66 4.66 2.32 5 3 C5.99 3.66 6.98 4.32 8 5 C4.52674819 6.1577506 1.63932552 6.06866652 -2 6 C-1.34 4.02 -0.68 2.04 0 0 Z " fill="#1963B9" transform="translate(338,331)"/>
<path d="M0 0 C0 0.66 0 1.32 0 2 C-6.6 2 -13.2 2 -20 2 C-20 1.67 -20 1.34 -20 1 C-12.95664616 -0.96290189 -7.22533204 -0.99939172 0 0 Z " fill="#467BB5" transform="translate(371,251)"/>
<path d="M0 0 C0.99 0 1.98 0 3 0 C1.43089051 4.31505111 -0.69803928 8.04350501 -3 12 C-3.6802367 13.32646156 -4.35492261 14.65608877 -5 16 C-5 13.69 -5 11.38 -5 9 C-4.34 9 -3.68 9 -3 9 C-3 7.02 -3 5.04 -3 3 C-2.01 3 -1.02 3 0 3 C0 2.01 0 1.02 0 0 Z " fill="#E67E76" transform="translate(223,171)"/>
<path d="M0 0 C0 0.66 0 1.32 0 2 C-13.16207277 8.16097023 -13.16207277 8.16097023 -20 6 C-19.19175781 5.73445313 -18.38351562 5.46890625 -17.55078125 5.1953125 C-16.48214844 4.84210938 -15.41351563 4.48890625 -14.3125 4.125 C-12.72888672 3.60292969 -12.72888672 3.60292969 -11.11328125 3.0703125 C-9.15153262 2.39588449 -7.20661083 1.6679901 -5.29296875 0.8671875 C-3 0 -3 0 0 0 Z " fill="#E17368" transform="translate(317,118)"/>
<path d="M0 0 C0.66 0 1.32 0 2 0 C4.17364926 2.81769349 5.08677021 4.2190681 4.6875 7.8125 C4.460625 8.534375 4.23375 9.25625 4 10 C3.01 10 2.02 10 1 10 C0.67 6.7 0.34 3.4 0 0 Z " fill="#F34234" transform="translate(232,239)"/>
<path d="M0 0 C0.33 0.66 0.66 1.32 1 2 C1.66 2.33 2.32 2.66 3 3 C-4.12950371 4.90120099 -10.63740707 5.22424141 -18 5 C-18 4.67 -18 4.34 -18 4 C-17.11957031 3.87882812 -16.23914063 3.75765625 -15.33203125 3.6328125 C-14.17058594 3.46523438 -13.00914062 3.29765625 -11.8125 3.125 C-10.66394531 2.96257812 -9.51539063 2.80015625 -8.33203125 2.6328125 C-5.31275375 2.05939755 -2.79424152 1.25240957 0 0 Z " fill="#2763AB" transform="translate(317,452)"/>
<path d="M0 0 C9.05293337 -0.13534286 17.97859571 0.24258075 27 1 C27 1.33 27 1.66 27 2 C8.65957447 3.57446809 8.65957447 3.57446809 0 1 C0 0.67 0 0.34 0 0 Z " fill="#75A0C9" transform="translate(206,444)"/>
<path d="M0 0 C0.66 0.33 1.32 0.66 2 1 C1.34 2.65 0.68 4.3 0 6 C3.3 5.67 6.6 5.34 10 5 C7.38490809 7.61509191 5.48639521 7.65744789 1.91015625 8.046875 C0 8 0 8 -2 6.5625 C-2.33 6.046875 -2.66 5.53125 -3 5 C-2.01 3.35 -1.02 1.7 0 0 Z " fill="#4B82BD" transform="translate(336,331)"/>
<path d="M0 0 C-3.60178588 2.40119059 -6.50866369 2.43771322 -10.6875 2.625 C-11.38939453 2.66367187 -12.09128906 2.70234375 -12.81445312 2.7421875 C-14.54254655 2.8362334 -16.27123675 2.9191968 -18 3 C-18 2.34 -18 1.68 -18 1 C-17.06027344 0.90912109 -17.06027344 0.90912109 -16.1015625 0.81640625 C-14.87566406 0.69072266 -14.87566406 0.69072266 -13.625 0.5625 C-12.81289062 0.48128906 -12.00078125 0.40007812 -11.1640625 0.31640625 C-4.20576923 -0.70096154 -4.20576923 -0.70096154 0 0 Z " fill="#477EBF" transform="translate(267,336)"/>
<path d="M0 0 C0 0.99 0 1.98 0 3 C0.99 3.33 1.98 3.66 3 4 C-0.47325181 5.1577506 -3.36067448 5.06866652 -7 5 C-6.34 4.01 -5.68 3.02 -5 2 C-5.33 1.34 -5.66 0.68 -6 0 C-3 -1 -3 -1 0 0 Z " fill="#3578C4" transform="translate(288,309)"/>
<path d="M0 0 C2.33524782 2.25740623 4.18705073 4.2805761 6 7 C6 7.99 6 8.98 6 10 C2.20411134 9.45773019 0.52788007 7.79872437 -2 5 C-1.01 5 -0.02 5 1 5 C0.67 3.35 0.34 1.7 0 0 Z " fill="#E49090" transform="translate(241,250)"/>
<path d="M0 0 C0.33 0.66 0.66 1.32 1 2 C0.34 2 -0.32 2 -1 2 C-1.1546875 2.9590625 -1.1546875 2.9590625 -1.3125 3.9375 C-1.539375 4.618125 -1.76625 5.29875 -2 6 C-2.99 6.33 -3.98 6.66 -5 7 C-6.20882096 9.00016466 -6.20882096 9.00016466 -7 11 C-8.32 11 -9.64 11 -11 11 C-11 10.34 -11 9.68 -11 9 C-10.34 9 -9.68 9 -9 9 C-9 8.34 -9 7.68 -9 7 C-8.34 7 -7.68 7 -7 7 C-7 6.34 -7 5.68 -7 5 C-6.01 5 -5.02 5 -4 5 C-4 4.34 -4 3.68 -4 3 C-3.34 3 -2.68 3 -2 3 C-2 2.34 -2 1.68 -2 1 C-1.34 0.67 -0.68 0.34 0 0 Z " fill="#E5736B" transform="translate(218,129)"/>
<path d="M0 0 C2.97 0.33 5.94 0.66 9 1 C7.515 2.485 7.515 2.485 6 4 C6.66 4.66 7.32 5.32 8 6 C5.69 5.67 3.38 5.34 1 5 C0.67 3.35 0.34 1.7 0 0 Z " fill="#1F61AE" transform="translate(176,441)"/>
<path d="M0 0 C1.32 0.66 2.64 1.32 4 2 C3 5 3 5 0.71484375 6.38671875 C-0.20167969 6.81597656 -1.11820312 7.24523437 -2.0625 7.6875 C-3.44115234 8.34298828 -3.44115234 8.34298828 -4.84765625 9.01171875 C-5.91306641 9.50091797 -5.91306641 9.50091797 -7 10 C-7.99 9.34 -8.98 8.68 -10 8 C-8.68 8 -7.36 8 -6 8 C-6 7.34 -6 6.68 -6 6 C-4.35 6 -2.7 6 -1 6 C-1 5.34 -1 4.68 -1 4 C-0.34 4 0.32 4 1 4 C0.67 2.68 0.34 1.36 0 0 Z " fill="#618EC4" transform="translate(305,359)"/>
<path d="M0 0 C0.33 0 0.66 0 1 0 C1.08153933 1.58246707 1.13943557 3.16616273 1.1875 4.75 C1.22230469 5.63171875 1.25710937 6.5134375 1.29296875 7.421875 C0.94589665 10.47610949 0.11745198 11.80564299 -2 14 C-2.66 14 -3.32 14 -4 14 C-3.52372025 12.04096255 -3.04388577 10.08278903 -2.5625 8.125 C-2.29566406 7.03445312 -2.02882812 5.94390625 -1.75390625 4.8203125 C-1 2 -1 2 0 0 Z " fill="#E46C63" transform="translate(253,159)"/>
<path d="M0 0 C0.33 1.32 0.66 2.64 1 4 C0.01 4.33 -0.98 4.66 -2 5 C-2.33 5.66 -2.66 6.32 -3 7 C-3.99 7 -4.98 7 -6 7 C-6.33 8.32 -6.66 9.64 -7 11 C-8.32 10.67 -9.64 10.34 -11 10 C-9.71034824 8.62437146 -8.37310707 7.29233607 -7 6 C-6.34 6 -5.68 6 -5 6 C-5 5.34 -5 4.68 -5 4 C-3.37373596 2.61767557 -1.7074998 1.28062485 0 0 Z " fill="#E3766E" transform="translate(247,104)"/>
<path d="M0 0 C1.76923828 0.01353516 1.76923828 0.01353516 3.57421875 0.02734375 C4.47785156 0.03894531 5.38148438 0.05054688 6.3125 0.0625 C6.3125 0.3925 6.3125 0.7225 6.3125 1.0625 C0.19269467 2.46704548 -5.40489294 3.29518915 -11.6875 3.0625 C-8.16050276 -0.46449724 -4.75191609 -0.04704867 0 0 Z " fill="#679CCD" transform="translate(303.6875,420.9375)"/>
<path d="M0 0 C1.65 0 3.3 0 5 0 C5 2 5 2 3.625 3.5 C3.08875 3.995 2.5525 4.49 2 5 C1.34 5.66 0.68 6.32 0 7 C-2 5.625 -2 5.625 -4 4 C-4 3.34 -4 2.68 -4 2 C-3.01 2 -2.02 2 -1 2 C-0.67 1.34 -0.34 0.68 0 0 Z " fill="#1664BB" transform="translate(399,411)"/>
<path d="M0 0 C0.66 0.33 1.32 0.66 2 1 C1.67 1.66 1.34 2.32 1 3 C0.34 3 -0.32 3 -1 3 C0.05875074 6.40312738 1.00902154 9.01353231 3 12 C1.02 12 -0.96 12 -3 12 C-2.88648483 10.18674449 -2.75887039 8.37436643 -2.625 6.5625 C-2.55539063 5.55316406 -2.48578125 4.54382813 -2.4140625 3.50390625 C-2.27742187 2.67761719 -2.14078125 1.85132813 -2 1 C-1.34 0.67 -0.68 0.34 0 0 Z " fill="#4579BB" transform="translate(132,378)"/>
<path d="M0 0 C1.43838552 0.79005662 2.87567415 1.58211045 4.3125 2.375 C5.11300781 2.81585938 5.91351563 3.25671875 6.73828125 3.7109375 C8.53527943 4.73513335 10.27900708 5.85267138 12 7 C11.67 7.66 11.34 8.32 11 9 C8.525 8.01 8.525 8.01 6 7 C6 6.34 6 5.68 6 5 C4.68 5 3.36 5 2 5 C1.34 3.35 0.68 1.7 0 0 Z " fill="#6491C8" transform="translate(290,349)"/>
<path d="M0 0 C1.43088528 2.86177057 0.59991697 4.93375773 0 8 C0.804375 8.226875 1.60875 8.45375 2.4375 8.6875 C3.7059375 9.3371875 3.7059375 9.3371875 5 10 C5.8125 12.625 5.8125 12.625 6 15 C5.34 15 4.68 15 4 15 C4 14.34 4 13.68 4 13 C3.360625 12.71125 2.72125 12.4225 2.0625 12.125 C0 11 0 11 -1 9 C-1.18704404 6.30986661 -1.08581391 3.70313823 -1 1 C-0.67 0.67 -0.34 0.34 0 0 Z " fill="#7CA4D2" transform="translate(122,269)"/>
<path d="M0 0 C4.29 0 8.58 0 13 0 C12.67 0.99 12.34 1.98 12 3 C9.64000299 4.02095523 8.352444 4.09196987 5.859375 3.44140625 C5.16328125 3.15136719 4.4671875 2.86132812 3.75 2.5625 C3.04359375 2.27503906 2.3371875 1.98757812 1.609375 1.69140625 C1.07828125 1.46324219 0.5471875 1.23507813 0 1 C0 0.67 0 0.34 0 0 Z " fill="#2161B2" transform="translate(179,252)"/>
<path d="M0 0 C0 0.33 0 0.66 0 1 C-7.73708326 1.12152487 -15.307359 0.84800767 -23 0 C-23 -0.33 -23 -0.66 -23 -1 C-15.02589123 -2.37484634 -7.93696428 -1.36610623 0 0 Z " fill="#83ACDA" transform="translate(260,458)"/>
<path d="M0 0 C0 0.33 0 0.66 0 1 C-2.58157368 1.53132389 -5.16461756 2.05034379 -7.75 2.5625 C-8.84441406 2.78969727 -8.84441406 2.78969727 -9.9609375 3.02148438 C-13.66557073 3.74557178 -16.39322322 4.09817231 -20 3 C-19.38511719 2.87882812 -18.77023437 2.75765625 -18.13671875 2.6328125 C-17.32847656 2.46523438 -16.52023437 2.29765625 -15.6875 2.125 C-14.88699219 1.96257812 -14.08648437 1.80015625 -13.26171875 1.6328125 C-4.68242726 -0.76761103 -4.68242726 -0.76761103 0 0 Z " fill="#6296CB" transform="translate(331,453)"/>
<path d="M0 0 C0.33 0.66 0.66 1.32 1 2 C0.67 2.66 0.34 3.32 0 4 C-0.66 4 -1.32 4 -2 4 C-2.103125 4.928125 -2.20625 5.85625 -2.3125 6.8125 C-3.00531495 10.02464205 -3.3879169 11.11930017 -6 13 C-6.66 13 -7.32 13 -8 13 C-7.39665691 9.29496359 -5.77525763 7.14031852 -3.4375 4.25 C-2.79683594 3.45078125 -2.15617188 2.6515625 -1.49609375 1.828125 C-1.00238281 1.22484375 -0.50867188 0.6215625 0 0 Z " fill="#E8807C" transform="translate(198,148)"/>
<path d="M0 0 C0.66 0 1.32 0 2 0 C2.83796731 4.65537393 3.0161692 8.37078475 2 13 C1.67 13 1.34 13 1 13 C1 10.69 1 8.38 1 6 C0.34 6 -0.32 6 -1 6 C-1.042721 4.33388095 -1.04063832 2.66617115 -1 1 C-0.67 0.67 -0.34 0.34 0 0 Z " fill="#E7594C" transform="translate(284,62)"/>
<path d="M0 0 C0.33 0 0.66 0 1 0 C1.061875 0.78375 1.12375 1.5675 1.1875 2.375 C1.455625 3.24125 1.72375 4.1075 2 5 C4.45704762 6.23290201 4.45704762 6.23290201 7 7 C7.33 7.66 7.66 8.32 8 9 C7.01 8.67 6.02 8.34 5 8 C4.01 8.99 3.02 9.98 2 11 C-1.07692308 4.6 -1.07692308 4.6 -0.6875 1.5625 C-0.460625 1.046875 -0.23375 0.53125 0 0 Z " fill="#4B86C9" transform="translate(152,313)"/>
<path d="M0 0 C-0.375 2.4375 -0.375 2.4375 -1 5 C-1.99 5.495 -1.99 5.495 -3 6 C-3.66 5.67 -4.32 5.34 -5 5 C-5 5.66 -5 6.32 -5 7 C-5.66 7 -6.32 7 -7 7 C-6.61402985 4.20171644 -6.19863427 3.1794116 -4.0625 1.25 C-2 0 -2 0 0 0 Z " fill="#2D6FBC" transform="translate(400,408)"/>
<path d="M0 0 C2.3125 0.1875 2.3125 0.1875 5 1 C6.8125 3.5625 6.8125 3.5625 8 6 C7.01 6.33 6.02 6.66 5 7 C3.29115995 5.37660195 1.62553283 3.70680947 0 2 C0 1.34 0 0.68 0 0 Z " fill="#487AC1" transform="translate(97,396)"/>
<path d="M0 0 C-0.99 0.33 -1.98 0.66 -3 1 C-3.309375 1.639375 -3.61875 2.27875 -3.9375 2.9375 C-5.2342338 5.45468915 -6.4221737 5.96886948 -9 7 C-8.67 6.21625 -8.34 5.4325 -8 4.625 C-6.88133489 2.15667503 -6.88133489 2.15667503 -7 0 C-3.86650268 -1.04449911 -3.01031744 -0.93423645 0 0 Z " fill="#E76862" transform="translate(289,251)"/>
<path d="M0 0 C4.75 1.875 4.75 1.875 7 3 C7 3.66 7 4.32 7 5 C7.66 5.66 8.32 6.32 9 7 C8.01 7.33 7.02 7.66 6 8 C1.125 3.375 1.125 3.375 0 0 Z " fill="#E3605B" transform="translate(206,223)"/>
<path d="M0 0 C0.66 0 1.32 0 2 0 C2 1.32 2 2.64 2 4 C2.66 4 3.32 4 4 4 C4.66 7.3 5.32 10.6 6 14 C3.2079853 12.60399265 2.99837067 10.99583616 1.875 8.125 C1.34519531 6.79855469 1.34519531 6.79855469 0.8046875 5.4453125 C0 3 0 3 0 0 Z " fill="#E4746E" transform="translate(187,191)"/>
<path d="M0 0 C1.98 0 3.96 0 6 0 C6 0.66 6 1.32 6 2 C6.99 2.33 7.98 2.66 9 3 C7.3125 4.1875 7.3125 4.1875 5 5 C2.25 3.75 2.25 3.75 0 2 C0 1.34 0 0.68 0 0 Z " fill="#83A6C9" transform="translate(144,433)"/>
<path d="M0 0 C0.66 0.99 1.32 1.98 2 3 C1.34 3 0.68 3 0 3 C0.33 4.32 0.66 5.64 1 7 C1.66 6.67 2.32 6.34 3 6 C3.33 6.99 3.66 7.98 4 9 C3.01 9.99 2.02 10.98 1 12 C-1 10 -1 10 -1.23046875 8.125 C-1.21628906 7.42375 -1.20210937 6.7225 -1.1875 6 C-1.18105469 5.29875 -1.17460937 4.5975 -1.16796875 3.875 C-1 2 -1 2 0 0 Z " fill="#558BC8" transform="translate(167,354)"/>
<path d="M0 0 C4.75 1.875 4.75 1.875 7 3 C7 3.66 7 4.32 7 5 C5.02 5.66 3.04 6.32 1 7 C1.020625 6.21625 1.04125 5.4325 1.0625 4.625 C1.18684063 2.01885039 1.18684063 2.01885039 0 0 Z " fill="#729DC9" transform="translate(309,319)"/>
<path d="M0 0 C0.33 0.66 0.66 1.32 1 2 C1.99 2 2.98 2 4 2 C4.33 3.65 4.66 5.3 5 7 C3.35 7.33 1.7 7.66 0 8 C0 5.36 0 2.72 0 0 Z " fill="#1764B4" transform="translate(153,312)"/>
<path d="M0 0 C1.65 0 3.3 0 5 0 C4.01 0.495 4.01 0.495 3 1 C2.566875 1.928125 2.566875 1.928125 2.125 2.875 C0.80519587 5.36796335 -0.67721672 6.45147781 -3 8 C-2.67 6.02 -2.34 4.04 -2 2 C-1.34 2 -0.68 2 0 2 C0 1.34 0 0.68 0 0 Z " fill="#E9857C" transform="translate(245,145)"/>
<path d="M0 0 C1.2065625 0.0309375 1.2065625 0.0309375 2.4375 0.0625 C1.04417426 3.42970387 -0.5414286 5.0484524 -3.5625 7.0625 C-3.60504356 5.06295254 -3.60330783 3.06208364 -3.5625 1.0625 C-2.5625 0.0625 -2.5625 0.0625 0 0 Z " fill="#EB6F66" transform="translate(259.5625,130.9375)"/>
<path d="M0 0 C1.65 0 3.3 0 5 0 C2.24829249 2.9555377 -0.41970299 5.11563315 -4 7 C-4.66 7 -5.32 7 -6 7 C-6 6.01 -6 5.02 -6 4 C-4.02 3.67 -2.04 3.34 0 3 C0 2.01 0 1.02 0 0 Z " fill="#5E94C6" transform="translate(387,429)"/>
<path d="M0 0 C0.66 0 1.32 0 2 0 C2 1.65 2 3.3 2 5 C-0.3125 5.625 -0.3125 5.625 -3 6 C-3.99 5.34 -4.98 4.68 -6 4 C-5.01 3.67 -4.02 3.34 -3 3 C-2.484375 2.484375 -1.96875 1.96875 -1.4375 1.4375 C-0.963125 0.963125 -0.48875 0.48875 0 0 Z " fill="#5083B7" transform="translate(405,402)"/>
<path d="M0 0 C2.64 0 5.28 0 8 0 C7.67 0.99 7.34 1.98 7 3 C4.69 3.33 2.38 3.66 0 4 C-0.33 3.34 -0.66 2.68 -1 2 C-0.67 1.34 -0.34 0.68 0 0 Z " fill="#1363C5" transform="translate(161,403)"/>
<path d="M0 0 C4 0 4 0 6.25 2 C6.8275 2.66 7.405 3.32 8 4 C7.67 4.66 7.34 5.32 7 6 C6.34 6 5.68 6 5 6 C4.67 5.34 4.34 4.68 4 4 C2.35 4 0.7 4 -1 4 C-1.33 3.34 -1.66 2.68 -2 2 C-1.34 2 -0.68 2 0 2 C0 1.34 0 0.68 0 0 Z " fill="#467CBB" transform="translate(369,369)"/>
<path d="M0 0 C4.43090471 1.20842856 6.98112756 2.51668565 10 6 C8.02 6 6.04 6 4 6 C4 5.01 4 4.02 4 3 C2.68 2.67 1.36 2.34 0 2 C0 1.34 0 0.68 0 0 Z " fill="#558CC6" transform="translate(296,311)"/>
<path d="M0 0 C0.66 0 1.32 0 2 0 C1.25 4.75 1.25 4.75 -1 7 C-1.99 7 -2.98 7 -4 7 C-4 6.01 -4 5.02 -4 4 C-3.34 4 -2.68 4 -2 4 C-2 3.34 -2 2.68 -2 2 C-1.34 2 -0.68 2 0 2 C0 1.34 0 0.68 0 0 Z " fill="#3F7CBC" transform="translate(320,269)"/>
<path d="M0 0 C0.66 0 1.32 0 2 0 C1.34 3.3 0.68 6.6 0 10 C-0.66 10 -1.32 10 -2 10 C-1.85950482 8.52031676 -1.71245174 7.04125484 -1.5625 5.5625 C-1.48128906 4.73878906 -1.40007812 3.91507812 -1.31640625 3.06640625 C-1 1 -1 1 0 0 Z " fill="#1F61AF" transform="translate(124,267)"/>
<path d="M0 0 C0.99 0.33 1.98 0.66 3 1 C3 1.99 3 2.98 3 4 C3.639375 4.2475 4.27875 4.495 4.9375 4.75 C7 6 7 6 7.75 8.125 C7.8325 8.74375 7.915 9.3625 8 10 C7.01 10 6.02 10 5 10 C5 9.01 5 8.02 5 7 C4.34 7 3.68 7 3 7 C2.01 4.69 1.02 2.38 0 0 Z " fill="#DF625A" transform="translate(254,204)"/>
<path d="M0 0 C2.55934601 1.279673 2.6989233 2.24201036 3.6875 4.875 C3.95949219 5.57367188 4.23148437 6.27234375 4.51171875 6.9921875 C5 9 5 9 4 12 C1.95780294 10.30820672 1.08206694 9.36272334 0.48828125 6.73828125 C0.43027344 5.93777344 0.37226563 5.13726562 0.3125 4.3125 C0.24675781 3.50425781 0.18101562 2.69601563 0.11328125 1.86328125 C0.07589844 1.24839844 0.03851563 0.63351563 0 0 Z " fill="#E98378" transform="translate(280,50)"/>
<path d="M0 0 C1.65 0 3.3 0 5 0 C5 0.66 5 1.32 5 2 C5.66 2 6.32 2 7 2 C6.67 3.32 6.34 4.64 6 6 C4.35 5.67 2.7 5.34 1 5 C1.33 3.68 1.66 2.36 2 1 C1.34 0.67 0.68 0.34 0 0 Z " fill="#1A62B8" transform="translate(186,443)"/>
<path d="M0 0 C0 0.99 0 1.98 0 3 C-3 5 -3 5 -6.1875 4.625 C-7.115625 4.41875 -8.04375 4.2125 -9 4 C-8 2 -8 2 -5.625 0.875 C-3 0 -3 0 0 0 Z " fill="#1861B6" transform="translate(349,392)"/>
<path d="M0 0 C4.95 0.33 9.9 0.66 15 1 C15 1.33 15 1.66 15 2 C10.05 2.33 5.1 2.66 0 3 C0 2.01 0 1.02 0 0 Z " fill="#5486BE" transform="translate(244,377)"/>
<path d="M0 0 C0.33 0.66 0.66 1.32 1 2 C1.66 2.33 2.32 2.66 3 3 C2.319375 3.5878125 2.319375 3.5878125 1.625 4.1875 C-0.27642919 6.30832487 -1.06204028 8.33042235 -2 11 C-2.33 11 -2.66 11 -3 11 C-3.125 5.25 -3.125 5.25 -2 3 C-1.34 3 -0.68 3 0 3 C0 2.01 0 1.02 0 0 Z " fill="#EA726B" transform="translate(283,159)"/>
<path d="M0 0 C-1 1 -1 1 -3.5625 1.0625 C-4.7690625 1.0315625 -4.7690625 1.0315625 -6 1 C-6 1.66 -6 2.32 -6 3 C-8.31 2.67 -10.62 2.34 -13 2 C-8.62836676 -0.42868513 -4.86219789 -1.62073263 0 0 Z " fill="#E26E63" transform="translate(334,116)"/>
<path d="M0 0 C1.98 0 3.96 0 6 0 C2.8745041 2.64465038 -0.08788267 3.84414715 -4 5 C-4 4.01 -4 3.02 -4 2 C-2.68 2 -1.36 2 0 2 C0 1.34 0 0.68 0 0 Z " fill="#457BB9" transform="translate(373,437)"/>
<path d="M0 0 C0.99 0.33 1.98 0.66 3 1 C3 1.99 3 2.98 3 4 C-0.96 5.98 -0.96 5.98 -5 8 C-5 7.01 -5 6.02 -5 5 C-4.360625 4.731875 -3.72125 4.46375 -3.0625 4.1875 C-0.66868314 3.11332248 -0.66868314 3.11332248 0 0 Z " fill="#6192C6" transform="translate(363,399)"/>
<path d="M0 0 C3.96 0 7.92 0 12 0 C12 0.33 12 0.66 12 1 C7.71 1.66 3.42 2.32 -1 3 C-0.67 2.01 -0.34 1.02 0 0 Z " fill="#4F85C1" transform="translate(273,373)"/>
<path d="M0 0 C3.66881155 0.70554068 6.70450534 2.27735506 10 4 C9.01 4.66 8.02 5.32 7 6 C5.68 5.34 4.36 4.68 3 4 C3 3.34 3 2.68 3 2 C2.01 2 1.02 2 0 2 C0 1.34 0 0.68 0 0 Z " fill="#5D8DC4" transform="translate(151,363)"/>
<path d="M0 0 C1.32 0.33 2.64 0.66 4 1 C4 1.66 4 2.32 4 3 C4.99 3 5.98 3 7 3 C7 3.99 7 4.98 7 6 C7.66 6.33 8.32 6.66 9 7 C5.0480185 7 3.85351584 5.62823828 1 3 C0.67 2.01 0.34 1.02 0 0 Z " fill="#E3635B" transform="translate(213,231)"/>
<path d="M0 0 C1.65 0.33 3.3 0.66 5 1 C0.25 5 0.25 5 -2 5 C-2.33 5.66 -2.66 6.32 -3 7 C-3 5.68 -3 4.36 -3 3 C-2.01 3 -1.02 3 0 3 C0 2.01 0 1.02 0 0 Z " fill="#E9706C" transform="translate(329,120)"/>
<path d="M0 0 C1.65 1.65 3.3 3.3 5 5 C4.34 6.98 3.68 8.96 3 11 C2.67 11 2.34 11 2 11 C0.80712589 7.12315913 0 4.08378077 0 0 Z " fill="#DE9B99" transform="translate(274,41)"/>
<path d="M0 0 C-4.10457614 2.98514628 -6.97745369 3.2954439 -12 3 C-3.33333333 -1.66666667 -3.33333333 -1.66666667 0 0 Z " fill="#5A8ABE" transform="translate(341,395)"/>
<path d="M0 0 C3.63 0 7.26 0 11 0 C6.60171741 2.1991413 3.81449408 2.51855059 -1 3 C-0.67 2.01 -0.34 1.02 0 0 Z " fill="#5D90C8" transform="translate(141,372)"/>
<path d="M0 0 C0.66 0 1.32 0 2 0 C2 2.31 2 4.62 2 7 C-2.875 4.25 -2.875 4.25 -4 2 C-2.68 2.33 -1.36 2.66 0 3 C0 2.01 0 1.02 0 0 Z " fill="#4781C4" transform="translate(172,364)"/>
<path d="M0 0 C1.65 0 3.3 0 5 0 C5.33 2.31 5.66 4.62 6 7 C3.95880212 5.38405168 1.95927063 3.7143618 0 2 C0 1.34 0 0.68 0 0 Z " fill="#568AC2" transform="translate(358,265)"/>
<path d="M0 0 C0.66 0.33 1.32 0.66 2 1 C1.01 3.31 0.02 5.62 -1 8 C-1.66 8 -2.32 8 -3 8 C-3 8.66 -3 9.32 -3 10 C-3.66 9.67 -4.32 9.34 -5 9 C-4.54625 8.2575 -4.0925 7.515 -3.625 6.75 C-2.31359204 4.53069422 -1.11719197 2.32032178 0 0 Z " fill="#E87370" transform="translate(259,149)"/>
<path d="M0 0 C-2.90572328 2.47524576 -5.15822926 3.69670231 -9 4 C-9.66 3.34 -10.32 2.68 -11 2 C-9.73392393 1.46770674 -8.46189588 0.94955456 -7.1875 0.4375 C-6.47980469 0.14746094 -5.77210938 -0.14257812 -5.04296875 -0.44140625 C-3 -1 -3 -1 0 0 Z " fill="#6397C7" transform="translate(347,434)"/>
<path d="M0 0 C1.65 0 3.3 0 5 0 C3.625 1.5 3.625 1.5 2 3 C1.34 3 0.68 3 0 3 C-0.33 3.99 -0.66 4.98 -1 6 C-1.99 5.01 -2.98 4.02 -4 3 C-2.68 2.67 -1.36 2.34 0 2 C0 1.34 0 0.68 0 0 Z " fill="#4983BF" transform="translate(366,425)"/>
<path d="M0 0 C0.66 0.33 1.32 0.66 2 1 C0.68 3.31 -0.64 5.62 -2 8 C-2.66 7.67 -3.32 7.34 -4 7 C-3.34 5.35 -2.68 3.7 -2 2 C-1.34 2 -0.68 2 0 2 C0 1.34 0 0.68 0 0 Z " fill="#6393CD" transform="translate(404,411)"/>
<path d="M0 0 C0.99 0.66 1.98 1.32 3 2 C1.02 2.66 -0.96 3.32 -3 4 C-3 3.01 -3 2.02 -3 1 C-4.32 0.67 -5.64 0.34 -7 0 C-3.8195064 -1.06016453 -3.04021693 -1.04507457 0 0 Z " fill="#457ECB" transform="translate(315,402)"/>
<path d="M0 0 C0.66 0.33 1.32 0.66 2 1 C0.75 3.9375 0.75 3.9375 -1 7 C-3.1875 7.875 -3.1875 7.875 -5 8 C-4.67 7.34 -4.34 6.68 -4 6 C-3.67 5.01 -3.34 4.02 -3 3 C-2.34 3 -1.68 3 -1 3 C-0.67 2.01 -0.34 1.02 0 0 Z " fill="#1861B2" transform="translate(101,373)"/>
<path d="M0 0 C7.75 -0.125 7.75 -0.125 10 1 C10 1.66 10 2.32 10 3 C10.66 3.33 11.32 3.66 12 4 C7.91621717 3.25749403 3.98060777 2.17076699 0 1 C0 0.67 0 0.34 0 0 Z " fill="#5C91C2" transform="translate(177,373)"/>
<path d="M0 0 C0.33 0 0.66 0 1 0 C1 2.31 1 4.62 1 7 C-0.98 7.99 -0.98 7.99 -3 9 C-2.01 6.03 -1.02 3.06 0 0 Z " fill="#638FC7" transform="translate(364,372)"/>
<path d="M0 0 C0.66 0.33 1.32 0.66 2 1 C1.34 3.31 0.68 5.62 0 8 C-1.32 7.34 -2.64 6.68 -4 6 C-3.525625 5.566875 -3.05125 5.13375 -2.5625 4.6875 C-0.76313043 2.97690387 -0.76313043 2.97690387 0 0 Z " fill="#5183C5" transform="translate(358,306)"/>
<path d="M0 0 C0.33 0.99 0.66 1.98 1 3 C-0.4375 5.1875 -0.4375 5.1875 -2 7 C-2.99 6.67 -3.98 6.34 -5 6 C-2.25 1.125 -2.25 1.125 0 0 Z " fill="#598AC2" transform="translate(158,306)"/>
<path d="M0 0 C0 0.66 0 1.32 0 2 C-2.64 2.99 -5.28 3.98 -8 5 C-8.66 4.01 -9.32 3.02 -10 2 C-8.7090864 1.66376204 -7.41723903 1.33110751 -6.125 1 C-5.40570313 0.814375 -4.68640625 0.62875 -3.9453125 0.4375 C-2 0 -2 0 0 0 Z " fill="#4D84BD" transform="translate(180,258)"/>
<path d="M0 0 C0 0.66 0 1.32 0 2 C-0.99 2 -1.98 2 -3 2 C-3 2.66 -3 3.32 -3 4 C-5.31 4 -7.62 4 -10 4 C-6.74659338 1.32755885 -4.23938937 0 0 0 Z " fill="#E87972" transform="translate(297,125)"/>
<path d="M0 0 C0.66 0.33 1.32 0.66 2 1 C2 1.66 2 2.32 2 3 C1.01 3.33 0.02 3.66 -1 4 C-2.66710346 5.49985609 -2.66710346 5.49985609 -4 7 C-4.99 6.67 -5.98 6.34 -7 6 C-4.69 4.02 -2.38 2.04 0 0 Z " fill="#EA716C" transform="translate(228,120)"/>
<path d="M0 0 C-3.20336822 2.83374881 -5.78087253 3.5205537 -10 4 C-10 3.34 -10 2.68 -10 2 C-6.5980513 -0.09350689 -3.94727588 -0.17942163 0 0 Z " fill="#4D7FC1" transform="translate(354,408)"/>
<path d="M0 0 C1.65 0 3.3 0 5 0 C4.67 0.99 4.34 1.98 4 3 C-0.455 3.495 -0.455 3.495 -5 4 C-4.34 3.34 -3.68 2.68 -3 2 C-2.01 2 -1.02 2 0 2 C0 1.34 0 0.68 0 0 Z " fill="#3373B5" transform="translate(297,403)"/>
<path d="M0 0 C1.98 0 3.96 0 6 0 C6 0.66 6 1.32 6 2 C7.32 2.66 8.64 3.32 10 4 C6.7 3.34 3.4 2.68 0 2 C0 1.34 0 0.68 0 0 Z " fill="#6090BC" transform="translate(280,345)"/>
<path d="M0 0 C2 3 2 3 2 6 C1.34 6 0.68 6 0 6 C0 6.66 0 7.32 0 8 C-0.99 8.33 -1.98 8.66 -3 9 C-2.01 6.03 -1.02 3.06 0 0 Z " fill="#5186C1" transform="translate(363,297)"/>
<path d="M0 0 C0 0.66 0 1.32 0 2 C-2.30368736 3.06652192 -4.64018187 4.06421005 -7 5 C-7.66 4.67 -8.32 4.34 -9 4 C-3.375 0 -3.375 0 0 0 Z " fill="#578CC4" transform="translate(168,301)"/>
<path d="M0 0 C2.64 0 5.28 0 8 0 C6.35 1.65 4.7 3.3 3 5 C2.87625 4.360625 2.7525 3.72125 2.625 3.0625 C2.315625 2.0415625 2.315625 2.0415625 2 1 C1.34 0.67 0.68 0.34 0 0 Z " fill="#5787C4" transform="translate(302,281)"/>
<path d="M0 0 C0.99 0.33 1.98 0.66 3 1 C2.34 1 1.68 1 1 1 C0.34 2.32 -0.32 3.64 -1 5 C-2.65 5 -4.3 5 -6 5 C-2.25 1.125 -2.25 1.125 0 0 Z " fill="#6193C6" transform="translate(343,254)"/>
<path d="M0 0 C2.09782787 2.09782787 2.6509396 3.3799207 3.625 6.125 C4.01558594 7.21167969 4.01558594 7.21167969 4.4140625 8.3203125 C4.70410156 9.15175781 4.70410156 9.15175781 5 10 C3.0625 9.5 3.0625 9.5 1 8 C0.31209578 5.30341548 0.18053536 2.7982981 0 0 Z " fill="#E58179" transform="translate(224,216)"/>
<path d="M0 0 C0.33 0 0.66 0 1 0 C2.27253436 3.64793184 3.32829194 7.1936543 4 11 C3.01 10.67 2.02 10.34 1 10 C0.67 6.7 0.34 3.4 0 0 Z " fill="#E67D78" transform="translate(218,200)"/>
<path d="M0 0 C1.65 0 3.3 0 5 0 C4.01 0.495 4.01 0.495 3 1 C2.3162955 2.32467746 1.65035814 3.65863633 1 5 C0.34 5.66 -0.32 6.32 -1 7 C-0.67 4.69 -0.34 2.38 0 0 Z " fill="#E96761" transform="translate(234,156)"/>
<path d="M0 0 C1 3 1 3 0.22265625 4.82421875 C-0.8515625 6.54947917 -1.92578125 8.27473958 -3 10 C-4.04449911 6.86650268 -3.93423645 6.01031744 -3 3 C-2.34 3 -1.68 3 -1 3 C-0.67 2.01 -0.34 1.02 0 0 Z " fill="#E07A73" transform="translate(282,99)"/>
<path d="M0 0 C0.89203125 0.00902344 1.7840625 0.01804687 2.703125 0.02734375 C3.37859375 0.03894531 4.0540625 0.05054688 4.75 0.0625 C4.75 0.3925 4.75 0.7225 4.75 1.0625 C1.77148438 1.40429688 1.77148438 1.40429688 -1.20703125 1.74609375 C-3.44396393 2.03420735 -3.44396393 2.03420735 -6.25 3.0625 C-7.24 2.4025 -8.23 1.7425 -9.25 1.0625 C-6.09493858 0.12630187 -3.28413498 -0.0432123 0 0 Z " fill="#2464AD" transform="translate(299.25,443.9375)"/>
<path d="M0 0 C-1.6875 2.0625 -1.6875 2.0625 -4 4 C-6.75 3.75 -6.75 3.75 -9 3 C-7 0 -7 0 -5.0625 -0.75 C-3 -1 -3 -1 0 0 Z " fill="#578AC4" transform="translate(173,440)"/>
<path d="M0 0 C1.4370809 -0.05422947 2.87475462 -0.09289723 4.3125 -0.125 C5.11300781 -0.14820313 5.91351563 -0.17140625 6.73828125 -0.1953125 C9 0 9 0 12 2 C7.47907032 3.45606519 4.48351204 2.27032841 0 1 C0 0.67 0 0.34 0 0 Z " fill="#6C96C5" transform="translate(153,421)"/>
<path d="M0 0 C2.97 0.495 2.97 0.495 6 1 C3.09907498 2.93395001 2.10325263 3.30131941 -1.1875 3.625 C-2.445625 3.74875 -3.70375 3.8725 -5 4 C-4.34 3.34 -3.68 2.68 -3 2 C-2.01 2 -1.02 2 0 2 C0 1.34 0 0.68 0 0 Z " fill="#618EC3" transform="translate(325,415)"/>
<path d="M0 0 C5.66153846 1.47692308 5.66153846 1.47692308 7.375 4.125 C7.684375 5.053125 7.684375 5.053125 8 6 C7.01 6.495 7.01 6.495 6 7 C6 6.01 6 5.02 6 4 C4.35 3.67 2.7 3.34 1 3 C0.67 2.01 0.34 1.02 0 0 Z " fill="#7198CC" transform="translate(374,253)"/>
<path d="M0 0 C1.32 0.66 2.64 1.32 4 2 C2.71937515 3.7074998 1.38232443 5.37373596 0 7 C-0.66 7 -1.32 7 -2 7 C-2 6.01 -2 5.02 -2 4 C-1.34 4 -0.68 4 0 4 C0 2.68 0 1.36 0 0 Z " fill="#E46C64" transform="translate(252,137)"/>
<path d="M0 0 C0.66 0.33 1.32 0.66 2 1 C-3.75 6 -3.75 6 -6 6 C-6 5.01 -6 4.02 -6 3 C-5.01 3 -4.02 3 -3 3 C-3 2.34 -3 1.68 -3 1 C-2.01 0.67 -1.02 0.34 0 0 Z " fill="#EA8B89" transform="translate(316,132)"/>
<path d="M0 0 C1.25 1.5625 1.25 1.5625 2 4 C0.93237266 6.57001015 -0.46544943 8.6530403 -2 11 C-2.33 11 -2.66 11 -3 11 C-3 9.35 -3 7.7 -3 6 C-2.01 5.67 -1.02 5.34 0 5 C0 3.35 0 1.7 0 0 Z " fill="#E67269" transform="translate(276,107)"/>
<path d="M0 0 C2.9375 0.375 2.9375 0.375 6 1 C6.33 1.66 6.66 2.32 7 3 C5.35 3 3.7 3 2 3 C1.67 3.66 1.34 4.32 1 5 C0.67 3.35 0.34 1.7 0 0 Z " fill="#7C99C3" transform="translate(362,365)"/>
<path d="M0 0 C0.66 0 1.32 0 2 0 C2.33 1.65 2.66 3.3 3 5 C2.34 5 1.68 5 1 5 C1 5.66 1 6.32 1 7 C-0.32 6.67 -1.64 6.34 -3 6 C-2.01 6 -1.02 6 0 6 C0 4.02 0 2.04 0 0 Z " fill="#2669B8" transform="translate(303,358)"/>
<path d="M0 0 C0.33 0.66 0.66 1.32 1 2 C-1.57213134 3.61949011 -2.67669159 4.04408751 -5.75 3.625 C-6.4925 3.41875 -7.235 3.2125 -8 3 C-8 2.34 -8 1.68 -8 1 C-5.36 0.67 -2.72 0.34 0 0 Z " fill="#719ACF" transform="translate(249,352)"/>
<path d="M0 0 C-2.46278801 2.46278801 -4.70676982 2.99771255 -8 4 C-8 3.01 -8 2.02 -8 1 C-5.29120665 -0.35439668 -2.99066732 -0.06501451 0 0 Z " fill="#6094CA" transform="translate(361,330)"/>
<path d="M0 0 C-2.5654594 2.5654594 -4.47686668 2.54046087 -8 3 C-7.67 2.01 -7.34 1.02 -7 0 C-4.05610218 -1.17755913 -3.10046087 -1.03348696 0 0 Z " fill="#578AC4" transform="translate(306,327)"/>
<path d="M0 0 C1.32 0.66 2.64 1.32 4 2 C4.33 1.34 4.66 0.68 5 0 C5.99 0.99 6.98 1.98 8 3 C7.34 3 6.68 3 6 3 C5.67 3.66 5.34 4.32 5 5 C5 4.34 5 3.68 5 3 C2.03 2.505 2.03 2.505 -1 2 C-0.67 1.34 -0.34 0.68 0 0 Z " fill="#185FB4" transform="translate(156,322)"/>
<path d="M0 0 C1.231394 2.46278801 1.07159196 4.2795055 1 7 C-1.475 6.01 -1.475 6.01 -4 5 C-2.25 1.125 -2.25 1.125 0 0 Z " fill="#EB6D65" transform="translate(206,140)"/>
<path d="M0 0 C1.65 0 3.3 0 5 0 C3.625 2.5 3.625 2.5 2 5 C1.34 5 0.68 5 0 5 C0 3.35 0 1.7 0 0 Z " fill="#E66E66" transform="translate(265,122)"/>
</svg>
