<?xml version="1.0" encoding="UTF-8"?>
<svg version="1.1" xmlns="http://www.w3.org/2000/svg" width="219" height="230">
<path d="M0 0 C5.24795853 4.00088267 10.68834773 7.71718467 16.12109375 11.4609375 C32.91146506 23.0820005 32.91146506 23.0820005 39.43359375 28.3359375 C39.96410371 28.72783107 40.49461367 29.11972464 41.04119968 29.52349377 C43.15900844 32.28019124 42.81446839 34.59406605 42.8212738 38.03425598 C42.82935211 39.060806 42.82935211 39.060806 42.83759362 40.10809439 C42.8519276 42.4066359 42.84475635 44.70460589 42.83764648 47.00317383 C42.84334735 48.64903732 42.85031051 50.29489686 42.85844421 51.94075012 C42.87642529 56.41609597 42.87519761 60.89124628 42.86950183 65.36661744 C42.86641613 69.1016652 42.87249575 72.83667506 42.87854058 76.57171744 C42.89260136 85.38451346 42.89101252 94.19721259 42.87963867 103.01000977 C42.86816439 112.10150025 42.88221794 121.19269552 42.90903515 130.28414708 C42.93119266 138.08807956 42.93782916 145.89191937 42.93195873 153.69588107 C42.92858704 158.35743853 42.93101789 163.01880688 42.94820976 167.68033791 C42.96367693 172.065953 42.95972601 176.45113123 42.94090462 180.83672905 C42.93721763 182.44515525 42.94033045 184.05361378 42.95079041 185.66201019 C42.96399594 187.86073247 42.95245875 190.05800766 42.93479919 192.25666809 C42.93458991 193.48613065 42.93438063 194.7155932 42.934165 195.9823122 C42.33262628 200.01237876 40.95266604 202.16970475 38.43359375 205.3359375 C32.94774974 209.31317441 27.5781848 209.55976624 20.97631836 209.95263672 C20.12039754 210.00653627 19.26447672 210.06043583 18.3826189 210.1159687 C15.53393531 210.29443118 12.68495269 210.46754334 9.8359375 210.640625 C7.82625438 210.76539714 5.8165908 210.8904845 3.8069458 211.01586914 C-1.56348793 211.34993337 -6.93420141 211.6792719 -12.30499649 212.00746918 C-16.72286238 212.27790244 -21.14057636 212.55077202 -25.55829144 212.82365608 C-37.34606979 213.55172113 -49.13423845 214.2732672 -60.92260742 214.99169922 C-65.92309787 215.29649724 -70.92348181 215.60300414 -75.92382812 215.91015625 C-82.03823681 216.28554562 -88.15286649 216.65710162 -94.26779175 217.02398682 C-96.31808045 217.14719118 -98.36831417 217.27131462 -100.41848755 217.39642334 C-129.48645404 219.16405556 -129.48645404 219.16405556 -135.56640625 215.3359375 C-142.40699562 208.97538948 -147.78444607 201.18787839 -153.3046875 193.6953125 C-155.55563691 190.65539186 -157.86833075 187.67775748 -160.234375 184.7265625 C-160.85159424 183.95248047 -161.46881348 183.17839844 -162.10473633 182.38085938 C-163.28473247 180.9064524 -164.47274147 179.43840318 -165.6706543 177.97851562 C-174.23102163 167.23079101 -177.47083821 157.91563533 -177.29516602 144.19165039 C-177.2983928 142.71031949 -177.30422117 141.22899237 -177.31242371 139.74768066 C-177.32683802 135.76226297 -177.30417675 131.77786905 -177.27356458 127.79257512 C-177.24702994 123.60826668 -177.25249894 119.42398421 -177.25364685 115.23960876 C-177.25084721 108.2232875 -177.22492482 101.20735821 -177.18383789 94.19116211 C-177.13654309 86.08502014 -177.12084856 77.97930546 -177.12304455 69.87303549 C-177.12507115 61.22279769 -177.10426197 52.57272392 -177.07670474 43.92253566 C-177.0703182 41.43581374 -177.06818231 38.94911836 -177.06698799 36.46238899 C-177.06397243 32.55762507 -177.04564073 28.65321903 -177.01548958 24.7485733 C-177.00673782 23.31712218 -177.00303379 21.88562988 -177.00477219 20.45415306 C-177.00624794 18.49906472 -176.98739584 16.54399263 -176.96754456 14.58900452 C-176.96251702 13.49567338 -176.95748949 12.40234224 -176.95230961 11.27587986 C-176.35110666 6.69571237 -174.53129597 4.27076006 -171.25591946 1.09744835 C-168.21427814 -0.89469066 -166.12507137 -1.39858793 -162.53419495 -1.84823608 C-160.81220225 -2.06877718 -160.81220225 -2.06877718 -159.05542183 -2.29377365 C-153.73494624 -2.85843515 -148.41849156 -3.33526721 -143.08178711 -3.71728516 C-141.90922867 -3.80535934 -140.73667023 -3.89343353 -139.52857971 -3.98417664 C-135.69649753 -4.27062369 -131.86391667 -4.54961652 -128.03125 -4.828125 C-125.34324748 -5.02623953 -122.65534091 -5.22564439 -119.96742249 -5.42489624 C-114.35216261 -5.8403123 -108.73660571 -6.25150674 -103.12084961 -6.66015625 C-96.65895826 -7.13043249 -90.19760026 -7.60755984 -83.73648161 -8.08832705 C-77.47959714 -8.55372447 -71.22235273 -9.01410398 -64.96493721 -9.47230148 C-62.32040404 -9.66603926 -59.67604095 -9.86176636 -57.03172112 -10.05842972 C-53.32865744 -10.33313228 -49.62521967 -10.60211165 -45.92163086 -10.86962891 C-44.84440765 -10.95064346 -43.76718445 -11.03165802 -42.65731812 -11.11512756 C-24.90109656 -12.37783605 -14.32074527 -10.95859168 0 0 Z M-61.20703125 4.05078125 C-63.58442133 4.22816332 -65.96184302 4.40512224 -68.33929443 4.5816803 C-73.29837615 4.95099071 -78.25719307 5.32361197 -83.21582031 5.69897461 C-89.55225592 6.17862146 -95.8890931 6.65267642 -102.22610855 7.12459469 C-108.30321881 7.57734321 -114.38013813 8.03262886 -120.45703125 8.48828125 C-121.60504463 8.57419966 -122.75305801 8.66011806 -123.93585968 8.74864006 C-127.20376459 8.99372944 -130.47153063 9.24059069 -133.73925781 9.48803711 C-135.16715637 9.59485306 -135.16715637 9.59485306 -136.62390137 9.7038269 C-141.12478106 10.04647954 -145.62308732 10.41357208 -150.11810303 10.82643127 C-150.92532681 10.89999124 -151.73255058 10.9735512 -152.56423569 11.04934025 C-154.63381561 11.23799145 -154.63381561 11.23799145 -156.56640625 12.3359375 C-154.99510284 16.58946585 -151.7818913 18.98796416 -148.37890625 21.7734375 C-147.79318848 22.25989746 -147.2074707 22.74635742 -146.60400391 23.24755859 C-139.01679995 29.50463414 -133.78483805 33.52803785 -123.61303711 33.49194336 C-122.78196662 33.48988105 -121.95089613 33.48781874 -121.09464169 33.48569393 C-108.98574849 33.38284835 -96.90408581 32.56808755 -84.8203125 31.83984375 C-82.18906331 31.68492064 -79.55779149 31.53038143 -76.92649841 31.37620544 C-71.45426325 31.05472411 -65.98230368 30.72885311 -60.51049805 30.40014648 C-54.1933666 30.02070571 -47.87586351 29.64802198 -41.55812126 29.27890068 C-35.44378053 28.92154167 -29.32970625 28.55983266 -23.21574211 28.19608879 C-20.62619009 28.04236478 -18.03657642 27.88967553 -15.44690132 27.73803902 C-11.84530543 27.52645988 -8.24403993 27.30995062 -4.64282227 27.09204102 C-3.57431534 27.03018112 -2.50580841 26.96832123 -1.40492249 26.90458679 C-0.42559753 26.84431305 0.55372742 26.78403931 1.56272888 26.72193909 C2.41191108 26.67124047 3.26109327 26.62054186 4.13600826 26.56830692 C6.32249687 26.34717343 8.32069432 25.92893882 10.43359375 25.3359375 C9.26761898 21.83801319 8.47771909 21.40500246 5.49609375 19.41015625 C4.68269531 18.86037109 3.86929688 18.31058594 3.03125 17.74414062 C2.17402344 17.17630859 1.31679687 16.60847656 0.43359375 16.0234375 C-0.80583984 15.1890918 -0.80583984 15.1890918 -2.0703125 14.33789062 C-3.73473806 13.21915702 -5.40272519 12.10570415 -7.07421875 10.99755859 C-8.74474656 9.88376429 -10.40621345 8.75626651 -12.05859375 7.61572266 C-12.84492188 7.07608887 -13.63125 6.53645508 -14.44140625 5.98046875 C-15.14007813 5.49553955 -15.83875 5.01061035 -16.55859375 4.51098633 C-27.77380223 -2.05258352 -48.85503779 3.11021363 -61.20703125 4.05078125 Z M12.52268791 41.46975327 C9.00331894 41.63951967 5.48619457 41.837005 1.96850586 42.03857422 C0.61910447 42.11431749 -0.73030683 42.18988435 -2.07972717 42.26528931 C-5.72437183 42.46966313 -9.36883666 42.6770797 -13.01325154 42.88550711 C-15.29347077 43.01587704 -17.57371719 43.14576145 -19.85397148 43.27551651 C-26.99868479 43.68228534 -34.14328015 44.09104864 -41.28772455 44.50251377 C-49.51722498 44.97643027 -57.74707298 45.44358425 -65.97728544 45.90496624 C-72.35405001 46.26286726 -78.73044735 46.62688507 -85.10660166 46.99549687 C-88.90878945 47.21516457 -92.71108223 47.43224895 -96.51378059 47.64291 C-100.08881514 47.84112007 -103.66333238 48.04693956 -107.23760033 48.25851059 C-109.16698835 48.37080289 -111.09682862 48.4752393 -113.02667236 48.57940674 C-121.47295397 49.07727436 -121.47295397 49.07727436 -129.56640625 51.3359375 C-130.89003677 53.98319853 -130.69836635 55.97466223 -130.70684814 58.94039917 C-130.71255829 60.13217773 -130.71826843 61.3239563 -130.72415161 62.55184937 C-130.72526947 63.8661795 -130.72638733 65.18050964 -130.72753906 66.53466797 C-130.73216641 67.92747123 -130.73719096 69.32027322 -130.74258423 70.71307373 C-130.75571795 74.50235874 -130.76215503 78.29162602 -130.76659489 82.08093023 C-130.76952394 84.44721688 -130.77362841 86.81349866 -130.77809906 89.17978287 C-130.79177631 96.58013667 -130.80144195 103.98047938 -130.80530095 111.38084495 C-130.80978298 119.92951111 -130.82733653 128.47801748 -130.85630155 137.02663505 C-130.87790218 143.63050824 -130.88800436 150.23433641 -130.88934207 156.83824456 C-130.89039123 160.78433438 -130.89632247 164.73027405 -130.91416168 168.67632675 C-130.9306146 172.38799404 -130.93281157 176.09939785 -130.92402267 179.81108856 C-130.92288254 181.82373464 -130.93662121 183.83637187 -130.95077515 185.84896851 C-130.94520599 187.04638672 -130.93963684 188.24380493 -130.93389893 189.47750854 C-130.93536549 190.51838057 -130.93683205 191.55925259 -130.93834305 192.63166618 C-130.50854696 195.75661978 -129.78790788 197.11902853 -127.56640625 199.3359375 C-120.53190695 200.98731787 -113.35099196 200.18080582 -106.19311523 199.74682617 C-104.85359033 199.6708003 -103.51403019 199.59539308 -102.17443848 199.52055359 C-98.55637019 199.31646354 -94.93889895 199.10318811 -91.32149005 198.88776183 C-88.29479755 198.70841634 -85.26784262 198.5337474 -82.24087578 198.35910302 C-75.09842615 197.9469932 -67.95643211 197.52757656 -60.81469727 197.10327148 C-53.4591037 196.66636224 -46.10293164 196.24048845 -38.74636787 195.82025737 C-32.41629226 195.4583465 -26.08659854 195.09023914 -19.75717789 194.71704847 C-15.98291338 194.49453362 -12.20855653 194.27418323 -8.43383598 194.05953026 C-4.88504415 193.85739953 -1.33679562 193.64747637 2.21118927 193.43165779 C4.12625853 193.3170296 6.04178787 193.21016973 7.95732117 193.10357666 C16.38040002 192.61975159 16.38040002 192.61975159 24.43359375 190.3359375 C26.72988987 186.89149332 26.68634477 185.62218464 26.69429016 181.56652832 C26.70137497 180.36351578 26.70845978 179.16050323 26.71575928 177.92103577 C26.71346541 176.58602868 26.71095571 175.25102195 26.70825195 173.91601562 C26.7125986 172.51158883 26.7177816 171.10716441 26.72373962 169.70274353 C26.73714486 165.88669908 26.7377067 162.07075358 26.73517632 158.25469017 C26.73410781 155.07110878 26.73898682 151.88754752 26.74378175 148.70397043 C26.75488184 141.19537258 26.75531128 133.68682475 26.74926758 126.17822266 C26.74322399 118.42614489 26.75554735 110.67424846 26.77683765 102.92220163 C26.79443508 96.27075748 26.80045802 89.61937115 26.7971999 82.96790457 C26.79538419 78.99336919 26.79805193 75.0189632 26.81191444 71.04444885 C26.82445835 67.30813218 26.82258163 63.57209897 26.80950356 59.83578682 C26.80713081 58.46314462 26.80989736 57.09048267 26.81812668 55.71786308 C26.82853574 53.84705008 26.81872354 51.97615684 26.80781555 50.10534668 C26.80798329 49.05747734 26.80815104 48.009608 26.80832386 46.92998505 C26.63293435 44.31798696 26.63293435 44.31798696 25.11932564 42.48981285 C21.62412404 40.0973642 16.59286773 41.28264511 12.52268791 41.46975327 Z " fill="#000000" transform="translate(176.56640625,11.6640625)"/>
<path d="M0 0 C0.125 3.375 0.125 3.375 0 7 C-2.39763185 9.39763185 -3.33273498 9.34280586 -6.625 9.625 C-7.44226563 9.69976562 -8.25953125 9.77453125 -9.1015625 9.8515625 C-10.04128906 9.92503906 -10.04128906 9.92503906 -11 10 C-10.505 10.99 -10.505 10.99 -10 12 C-9.89085122 14.97418564 -9.84266155 17.92531218 -9.83886719 20.90014648 C-9.83141983 22.28324005 -9.83141983 22.28324005 -9.82382202 23.6942749 C-9.80918234 26.75322202 -9.80239595 29.81211731 -9.796875 32.87109375 C-9.79112573 34.99097191 -9.78536798 37.11085004 -9.77960205 39.23072815 C-9.7690874 43.6786422 -9.76324754 48.12653815 -9.75976562 52.57446289 C-9.75427511 58.28236095 -9.73023707 63.99002115 -9.70179367 69.69784451 C-9.68320007 74.07722175 -9.67796348 78.45654128 -9.67642975 82.83595467 C-9.67339607 84.94075892 -9.66534362 87.045562 -9.65224457 89.15032768 C-9.63525 92.09055746 -9.63704799 95.03020046 -9.64355469 97.97045898 C-9.6343399 98.84485123 -9.62512512 99.71924347 -9.6156311 100.62013245 C-9.6570088 106.56826942 -9.6570088 106.56826942 -11.30421829 108.64164829 C-16.51700585 112.81718507 -22.67547482 113.38308726 -29.09375 113.7890625 C-37.18963066 111.59098737 -41.96412837 103.69513715 -46.125 96.9375 C-46.67357666 96.07044434 -47.22215332 95.20338867 -47.78735352 94.31005859 C-48.94721971 92.47509543 -50.10184154 90.63680791 -51.25146484 88.79541016 C-53.54251244 85.13267698 -55.86962686 81.4935124 -58.19580078 77.85302734 C-60.5312421 74.19502044 -62.85596792 70.53025453 -65.18115234 66.86572266 C-68.36727585 61.84576055 -71.55867309 56.82915509 -74.75 51.8125 C-75.64513306 50.40411865 -75.64513306 50.40411865 -76.55834961 48.96728516 C-77.11143799 48.09765137 -77.66452637 47.22801758 -78.234375 46.33203125 C-78.72131836 45.56608643 -79.20826172 44.8001416 -79.70996094 44.01098633 C-80.7888687 42.32912349 -81.89161177 40.66258235 -83 39 C-83.33 59.46 -83.66 79.92 -84 101 C-79.38 101.99 -74.76 102.98 -70 104 C-71 109 -71 109 -73.1953125 111.234375 C-78.43264669 114.33867445 -84.96694818 113.95734109 -90.875 114.25 C-92.73705078 114.36601562 -92.73705078 114.36601562 -94.63671875 114.484375 C-100.76540798 114.84987723 -106.8609652 115.09231631 -113 115 C-112.67 112.69 -112.34 110.38 -112 108 C-110.70990357 107.49596232 -109.41786211 106.99690074 -108.125 106.5 C-107.40570313 106.2215625 -106.68640625 105.943125 -105.9453125 105.65625 C-104 105 -104 105 -102 105 C-102 76.29 -102 47.58 -102 18 C-105.63 17.67 -109.26 17.34 -113 17 C-112.64059968 10.77039438 -112.64059968 10.77039438 -110.20703125 7.84375 C-105.31278081 5.0300031 -100.43592201 5.06255768 -94.875 4.75 C-93.79734375 4.67265625 -92.7196875 4.5953125 -91.609375 4.515625 C-89.45560778 4.37031059 -87.29983327 4.25209882 -85.14306641 4.16162109 C-82.01549693 4.04188685 -82.01549693 4.04188685 -78.99365234 3.60791016 C-76.06692251 3.32891161 -73.8494427 3.26296697 -71 4 C-67.7971759 6.80119389 -65.93755141 10.18829373 -63.875 13.875 C-62.59800641 15.99058153 -61.31929305 18.10512572 -60.0390625 20.21875 C-59.38325195 21.32992187 -58.72744141 22.44109375 -58.05175781 23.5859375 C-54.62149067 29.29379753 -50.92424524 34.82282552 -47.25 40.375 C-40.79130475 50.22305205 -34.3980344 60.11212865 -28 70 C-27.67 50.86 -27.34 31.72 -27 12 C-30.3 12 -33.6 12 -37 12 C-37.99 11.505 -37.99 11.505 -39 11 C-38.65203317 7.86829849 -38.18725914 6.23245962 -36.1875 3.75 C-31.92690937 0.3415275 -26.77106698 0.70362167 -21.5 0.4375 C-20.30528076 0.37381226 -20.30528076 0.37381226 -19.08642578 0.30883789 C-12.72166808 -0.00997733 -6.37256714 -0.11245707 0 0 Z " fill="#000000" transform="translate(182,77)"/>
</svg>
