<?xml version="1.0" encoding="UTF-8"?>
<svg version="1.1" xmlns="http://www.w3.org/2000/svg" width="512" height="512">
<path d="M0 0 C0.92068268 -0.00794586 1.84136536 -0.01589172 2.78994751 -0.02407837 C37.9628327 -0.25728652 76.81088132 7.09593792 103.75 31.375 C104.84248047 32.34566406 104.84248047 32.34566406 105.95703125 33.3359375 C112.76136341 39.72367789 118.14449038 47.75891691 119.015625 57.27734375 C118.98631639 62.97054169 118.66951084 68.47496269 117.8359375 74.109375 C116.66222414 82.44466548 115.96173468 90.80200911 115.31738281 99.19262695 C115.12384349 101.70249792 114.92168512 104.21157622 114.71875 106.72070312 C114.09300773 114.62443088 113.57203858 122.43953856 113.75 130.375 C114.64460938 130.77589844 115.53921875 131.17679688 116.4609375 131.58984375 C128.62591706 137.22846704 137.67980769 144.07487347 143.75 156.375 C144.100625 157.0659375 144.45125 157.756875 144.8125 158.46875 C147.75663826 165.09306109 146.63605746 171.35582847 144.18359375 178.01171875 C143.52410995 179.69762475 142.85841087 181.38110875 142.1875 183.0625 C138.57955983 192.48194307 135.79320637 202.00251461 133.25 211.75 C133.07274384 212.42936615 132.89548767 213.1087323 132.71286011 213.8086853 C131.71147998 217.66066357 130.7246927 221.51618848 129.75 225.375 C130.3483667 225.64812012 130.9467334 225.92124023 131.56323242 226.20263672 C133.68477301 227.3400307 135.05443989 228.43453094 136.73828125 230.1328125 C137.27598145 230.67172119 137.81368164 231.21062988 138.36767578 231.76586914 C138.92696777 232.33813232 139.48625977 232.91039551 140.0625 233.5 C140.64499512 234.08966553 141.22749023 234.67933105 141.82763672 235.28686523 C145.32840909 238.85369915 148.72359051 242.47799172 151.9453125 246.30078125 C153.82854841 248.46527966 155.80765154 250.52277033 157.79443359 252.59179688 C169.40288522 264.81941785 175.35684612 277.61652275 175.25 294.625 C175.24718018 295.64553467 175.24436035 296.66606934 175.24145508 297.7175293 C174.69768794 324.08720347 174.69768794 324.08720347 168.37451172 332.12304688 C165.66445657 334.21158953 162.48319994 333.95884762 159.1875 334.0625 C158.44894775 334.09593506 157.71039551 334.12937012 156.94946289 334.16381836 C148.55355506 334.50332309 140.15061294 334.4634275 131.75 334.375 C132.08 335.365 132.41 336.355 132.75 337.375 C132.8590825 339.81441476 132.91372977 342.22425335 132.91796875 344.6640625 C132.92418495 345.75551575 132.92418495 345.75551575 132.93052673 346.86901855 C132.94024265 349.24606306 132.94017694 351.6229386 132.9375 354 C132.93756042 354.80789978 132.93762085 355.61579956 132.93768311 356.44818115 C132.92661695 366.82695179 132.71414208 377.14924265 131.875 387.5 C131.79660889 388.46760254 131.71821777 389.43520508 131.63745117 390.43212891 C130.21703388 405.84563125 130.21703388 405.84563125 126.9375 411.5 C120.20466445 415.4604915 110.92367082 413.9700714 103.55859375 412.078125 C100.14132898 410.74959874 98.34882439 408.57264879 96.75 405.375 C96.57920741 402.30412654 96.46653411 399.25327294 96.3984375 396.1796875 C96.37487686 395.24727737 96.35131622 394.31486725 96.32704163 393.35420227 C96.25339934 390.31957672 96.18840813 387.28485562 96.125 384.25 C96.10220978 383.22822662 96.07941956 382.20645325 96.05593872 381.15371704 C95.72975453 366.18364929 95.71533033 351.32199725 96.75 336.375 C96.10055923 336.5300853 95.45111847 336.68517059 94.78199768 336.84495544 C90.94295105 337.51608583 87.12398303 337.68987103 83.23803711 337.85571289 C81.96839867 337.91445335 81.96839867 337.91445335 80.67311096 337.97438049 C77.87468472 338.10274257 75.07604295 338.22540062 72.27734375 338.34765625 C70.31457084 338.43569779 68.35180751 338.52395305 66.38905334 338.6124115 C62.26590715 338.79731142 58.14264655 338.97934417 54.01928711 339.15942383 C48.79165667 339.387991 43.5643919 339.62394587 38.3371954 339.86220646 C34.27468289 340.04645205 30.21198856 340.22641507 26.14923286 340.40521049 C24.22589756 340.490383 22.30261947 340.57685967 20.37940788 340.66478157 C7.49360953 341.25098812 -5.35102086 341.48019682 -18.25 341.375 C-18.36972774 347.14073345 -18.4643574 352.90567719 -18.5246582 358.67236328 C-18.54979604 360.63376303 -18.58391165 362.59506916 -18.62719727 364.55615234 C-18.68788208 367.37621144 -18.71621641 370.19503194 -18.73828125 373.015625 C-18.76408768 373.89180481 -18.7898941 374.76798462 -18.81648254 375.67071533 C-18.87953151 380.82910772 -18.87953151 380.82910772 -15.8046875 384.84594727 C-14.96164062 385.35053467 -14.11859375 385.85512207 -13.25 386.375 C-9.78006924 391.01814517 -8.81130971 395.58382002 -8.9140625 401.296875 C-9.29731953 403.66772079 -9.99692128 405.33097088 -11.25 407.375 C-19.08630138 411.29315069 -33.77513621 410.86226845 -41.875 408.1875 C-46.04649008 405.94725533 -48.15409968 403.56680063 -50.25 399.375 C-50.80068562 393.64786952 -49.81556975 390.85743055 -46.25 386.375 C-45.70472656 385.98183594 -45.15945313 385.58867187 -44.59765625 385.18359375 C-42.42265267 382.2646759 -43.16463561 379.13289453 -43.5 375.6875 C-43.57927734 374.66366211 -43.57927734 374.66366211 -43.66015625 373.61914062 C-43.9380067 370.19770308 -44.32609496 366.82043742 -44.79296875 363.41796875 C-45.35471274 359.06258037 -45.36150141 354.75997594 -45.3125 350.375 C-45.291875 347.735 -45.27125 345.095 -45.25 342.375 C-50.86 342.705 -56.47 343.035 -62.25 343.375 C-62.57092096 350.67595183 -62.8662658 357.97702771 -63.12988281 365.28027344 C-63.22952792 367.84755262 -63.35418715 370.41117144 -63.4921875 372.9765625 C-63.91140403 379.69042374 -63.91140403 379.69042374 -60.9375 385.4375 C-60.050625 386.076875 -59.16375 386.71625 -58.25 387.375 C-54.70060517 391.81174354 -54.0672373 396.8098759 -54.25 402.375 C-55.39785407 404.93158406 -56.30883196 406.43383196 -58.25 408.375 C-68.04022115 410.13723981 -81.6120035 412.00847598 -90.25 406.375 C-93.07823245 403.84764335 -94.92184945 401.98121057 -95.6953125 398.1953125 C-95.96715717 392.81278804 -94.82023644 389.55727697 -91.25 385.375 C-90.26 384.715 -89.27 384.055 -88.25 383.375 C-88.05493356 380.31787432 -88.04411569 377.47703793 -88.17578125 374.4296875 C-88.20222214 373.5446756 -88.22866302 372.6596637 -88.25590515 371.74783325 C-88.34384285 368.91454918 -88.45292978 366.0825221 -88.5625 363.25 C-88.62574068 361.33207663 -88.68760733 359.41410743 -88.74804688 357.49609375 C-88.89682791 352.78809118 -89.07416171 348.08238167 -89.25 343.375 C-96.18 343.375 -103.11 343.375 -110.25 343.375 C-110.41113299 348.67960038 -110.55029059 353.97565913 -110.63452148 359.28076172 C-110.66963692 361.08313821 -110.71734303 362.88531652 -110.77807617 364.68701172 C-110.8634005 367.28402609 -110.90277328 369.87839815 -110.93359375 372.4765625 C-110.96972275 373.2767984 -111.00585175 374.0770343 -111.04307556 374.90151978 C-111.04546208 378.33351984 -111.00287202 380.49739931 -108.71316528 383.16644287 C-106.86842079 384.77274038 -106.86842079 384.77274038 -104.94642639 386.11288452 C-102.17428994 388.17531195 -101.29760866 390.10892595 -100.25 393.375 C-99.68468004 398.22968515 -99.29617475 402.63323216 -101.6875 407 C-105.47284893 409.03116284 -109.04364186 409.23556271 -113.25 409.375 C-115.05210937 409.45234375 -115.05210937 409.45234375 -116.890625 409.53125 C-132.32200078 409.90012751 -132.32200078 409.90012751 -138.6875 404.1875 C-140.70038597 400.56430526 -141.45353567 397.51898623 -141.25 393.375 C-139.95721714 389.64029396 -139.11797821 387.88363259 -135.68359375 385.87109375 C-131.88540921 381.97536354 -132.46835933 377.93701463 -132.4375 372.6875 C-132.41236328 371.75099609 -132.38722656 370.81449219 -132.36132812 369.84960938 C-132.15508789 361.02841977 -132.23229983 352.19820812 -132.25 343.375 C-133.05431458 343.37944122 -133.85862915 343.38388245 -134.68731689 343.38845825 C-144.95817729 343.44250591 -155.22902125 343.47864165 -165.5 343.5 C-166.31749725 343.50171204 -167.13499451 343.50342407 -167.9772644 343.50518799 C-194.78671585 343.55480021 -221.48573895 343.0714535 -248.25 341.375 C-248.18941406 341.99914795 -248.12882812 342.6232959 -248.06640625 343.26635742 C-246.74095341 357.43468361 -246.02123686 371.5380634 -245.95043945 385.76504517 C-245.94183543 387.41740273 -245.9281897 389.06974198 -245.90942383 390.72201538 C-245.88560931 393.06235213 -245.8828594 395.40175123 -245.88671875 397.7421875 C-245.87758957 398.4401091 -245.86846039 399.1380307 -245.85905457 399.85710144 C-245.89982265 404.19464509 -246.59304868 406.9258072 -249.25 410.375 C-254.75174807 413.47325403 -261.13704348 412.97726173 -267.25 412.375 C-271.28115867 411.16839468 -273.65265455 409.36430821 -275.86328125 405.703125 C-277.39206014 402.03405567 -277.96355356 398.66640533 -278.3125 394.75 C-278.38774902 393.99146729 -278.46299805 393.23293457 -278.54052734 392.45141602 C-278.7967885 389.76067389 -279.02624281 387.06864037 -279.25 384.375 C-279.34168457 383.28590332 -279.43336914 382.19680664 -279.52783203 381.07470703 C-280.67197767 367.16491617 -281.60897283 353.33505466 -281.25 339.375 C-281.81807373 339.35518066 -282.38614746 339.33536133 -282.97143555 339.31494141 C-315.87401628 338.11098566 -315.87401628 338.11098566 -323.875 331.0625 C-329.69617331 324.47538283 -331.28100481 319.40439721 -332.83056641 310.71875 C-333.13378197 309.02441393 -333.44725709 307.33190304 -333.76708984 305.640625 C-340.34288426 270.78488036 -340.34288426 270.78488036 -334.66992188 262.17285156 C-329.75393564 255.94841507 -322.77977517 251.4836046 -316.25 247.125 C-314.57798732 245.99499536 -312.90611476 244.86478336 -311.234375 243.734375 C-310.40228516 243.17427734 -309.57019531 242.61417969 -308.71289062 242.03710938 C-304.96037172 239.50467989 -301.22945555 236.94122061 -297.5 234.375 C-296.86964844 233.9428418 -296.23929687 233.51068359 -295.58984375 233.06542969 C-291.44154554 230.21625057 -287.33804776 227.31000865 -283.25 224.375 C-284.81254714 208.04797685 -290.14150876 191.66878916 -296.40234375 176.5703125 C-297.25 174.375 -297.25 174.375 -297.25 172.375 C-297.91 172.375 -298.57 172.375 -299.25 172.375 C-300.0859375 169.79296875 -300.0859375 169.79296875 -300.25 166.375 C-298.53603081 163.84644121 -296.95195284 161.87426662 -294.875 159.6875 C-293.75790058 158.45422355 -292.64202693 157.21983577 -291.52734375 155.984375 C-290.97030762 155.37658203 -290.41327148 154.76878906 -289.83935547 154.14257812 C-287.59981612 151.65190763 -285.52510725 149.05695867 -283.4375 146.4375 C-280.47175691 142.78242203 -277.40725465 139.39950204 -274.01464844 136.140625 C-272.3287937 134.4538373 -270.79355337 132.71071919 -269.25390625 130.890625 C-264.84010628 125.81324026 -260.09895726 121.0736232 -255.3347168 116.3293457 C-253.81508332 114.8150742 -252.30087483 113.2955257 -250.78710938 111.77539062 C-245.44709495 106.4313947 -240.01248247 101.26551218 -234.25 96.375 C-233.17842883 95.43763485 -232.10806626 94.49888581 -231.0390625 93.55859375 C-216.83674078 81.18789411 -201.97982412 69.73638497 -186.25 59.375 C-185.54891113 58.90916504 -184.84782227 58.44333008 -184.12548828 57.96337891 C-142.55329365 30.48093322 -96.35882045 11.85188804 -47.25 3.375 C-46.31397949 3.20838867 -45.37795898 3.04177734 -44.41357422 2.87011719 C-29.654463 0.34893214 -14.93456815 0.06739809 0 0 Z " fill="#020202" transform="translate(337.25,49.625)"/>
<path d="M0 0 C0.74443359 -0.01224609 1.48886719 -0.02449219 2.25585938 -0.03710938 C6.46382178 -0.04781666 10.38663409 0.29211791 14.51660156 1.1015625 C24.04093423 2.7227976 33.66799743 3.21134988 43.30078125 3.79296875 C44.37473963 3.8583956 45.44869801 3.92382244 46.55520058 3.99123192 C74.11629713 5.62127093 101.6860766 5.61717126 129.2837441 5.52092415 C134.38775013 5.50324862 139.49173255 5.49277133 144.59576416 5.48605347 C198.68535122 5.41067953 252.75012744 4.60341828 306.82331848 3.25543594 C311.55632009 3.13805017 316.28939259 3.02359334 321.02246094 2.90893555 C327.19392632 2.75930006 333.36537358 2.60898537 339.53678322 2.45706749 C347.71186196 2.25587265 355.88705308 2.06075894 364.0625 1.875 C365.42094025 1.83984032 365.42094025 1.83984032 366.80682373 1.80397034 C376.51032241 1.62469555 383.10961491 6.10042459 389.96484375 12.57421875 C394.17002952 16.80469887 398.17907501 21.19020208 402.15380859 25.63476562 C403.56562996 27.19095001 405.00515985 28.7155543 406.45703125 30.234375 C418.67906698 43.07488019 425.25479748 54.68892443 424.93359375 72.80859375 C424.35773764 81.69955891 422.31247049 90.47044736 420.5625 99.1875 C405.07496527 100.6580631 389.59282301 101.7231776 374.05615234 102.51025391 C370.64785151 102.6831698 367.23994017 102.86251224 363.83203125 103.04296875 C343.53410249 104.10247898 323.22702197 104.94358937 302.91939163 105.7916584 C295.80054475 106.0901729 288.6824017 106.40252425 281.56445312 106.72167969 C227.76864301 109.12526296 174.04613169 110.57421791 120.19994926 110.5025816 C118.19824652 110.50001379 116.19654296 110.49810159 114.19483948 110.49619293 C80.39396053 110.46033835 46.61816241 110.37240046 12.875 108.1875 C10.00401754 108.00860214 7.13285876 107.83259862 4.26171875 107.65625 C3.58250366 107.61407349 2.90328857 107.57189697 2.20349121 107.52844238 C-3.13333236 107.19898445 -8.47124119 106.9316654 -13.8125 106.6875 C-17.02139298 106.53064557 -20.22952107 106.36202885 -23.4375 106.1875 C-25.13688721 106.0951709 -25.13688721 106.0951709 -26.87060547 106.00097656 C-30.66480368 105.78659276 -34.45729553 105.5517628 -38.25 105.3125 C-39.44995605 105.24611328 -40.64991211 105.17972656 -41.88623047 105.11132812 C-49.18219587 104.62748062 -56.29330422 104.11170141 -61.6875 98.5625 C-65.88884603 93.22745742 -66.13535098 86.20764864 -67.05029297 79.69384766 C-67.46162156 77.03136385 -67.96836533 74.40194016 -68.50390625 71.76171875 C-68.68937012 70.84535645 -68.87483398 69.92899414 -69.06591797 68.98486328 C-69.42821179 67.21262947 -69.79541901 65.44139015 -70.16845703 63.67138672 C-73.13005409 48.78234112 -73.13005409 48.78234112 -69.828125 42.359375 C-67.29355762 38.99651763 -64.66447233 36.72008879 -61.1875 34.4375 C-60.5776123 34.01976318 -59.96772461 33.60202637 -59.33935547 33.17163086 C-58.04187006 32.28464838 -56.74016021 31.40381791 -55.43457031 30.52880859 C-53.45282084 29.19779006 -51.48628691 27.84698854 -49.5234375 26.48828125 C-46.86469637 24.64834817 -44.20078597 22.81642408 -41.53125 20.9921875 C-38.75240525 19.09206573 -35.98245315 17.17988886 -33.21875 15.2578125 C-11.26142524 0.00931466 -11.26142524 0.00931466 0 0 Z " fill="#050506" transform="translate(79.4375,274.8125)"/>
<path d="M0 0 C1.26534073 -0.00160126 1.26534073 -0.00160126 2.5562439 -0.00323486 C25.0383918 0.03748361 47.52633108 2.73752681 68.4375 11.4375 C69.50846924 11.87618408 69.50846924 11.87618408 70.60107422 12.32373047 C85.61000992 18.59488277 102.75144745 27.79939264 110.55859375 42.76953125 C112.56237939 48.85213388 112.95328988 56.40592025 110.0546875 62.203125 C102.11895266 73.16747362 88.06569376 74.9370929 75.59204102 76.98852539 C73.56478523 77.31332528 71.53702372 77.63498312 69.50878906 77.95361328 C43.98043707 81.7010627 43.98043707 81.7010627 19.8125 90.3125 C19.14871338 90.62799805 18.48492676 90.94349609 17.80102539 91.26855469 C13.19357935 93.62637514 10.39476835 96.16589017 7.4375 100.4375 C6.54632443 103.49849434 6.96730978 105.14616849 7.4375 108.4375 C13.93409776 118.07191028 25.1855625 120.11859196 35.87890625 122.23266602 C45.57140035 123.99750117 55.33106874 124.46051113 65.15625 124.8671875 C66.02773682 124.90375961 66.89922363 124.94033173 67.79711914 124.97801208 C73.23532877 125.20469743 73.23532877 125.20469743 78.67431641 125.41162109 C99.23578963 126.16823607 118.15304916 129.2797353 132.8125 144.9375 C135.85137103 148.27904743 137.09078691 151.1485674 138.4375 155.4375 C124.84743004 155.56993234 111.25734289 155.70043004 97.66723251 155.82865143 C91.35252746 155.88828673 85.03782941 155.94851715 78.72314453 156.01025391 C50.29401648 156.28776007 21.86814957 156.53133291 -6.5625 156.4375 C-6.42055236 154.37472893 -6.27377784 152.31228969 -6.125 150.25 C-6.04378906 149.10144531 -5.96257812 147.95289063 -5.87890625 146.76953125 C-5.60796792 143.91631649 -5.15727162 141.23530571 -4.5625 138.4375 C-4.06242206 134.89536015 -4.06242206 134.89536015 -4.5625 131.4375 C-10.11655101 124.73433498 -22.20410001 122.37009693 -30.5625 121.4375 C-44.24965811 120.73333753 -57.45318294 122.12113393 -69.046875 130.16015625 C-72.38273167 131.8539841 -73.99384688 131.41739837 -77.5625 130.4375 C-79.56366556 129.68080103 -81.54377933 128.86628957 -83.5 128 C-92.17975505 124.16901457 -99.45954896 123.09712714 -108.875 123.125 C-109.95201172 123.10888672 -111.02902344 123.09277344 -112.13867188 123.07617188 C-121.61973975 123.07042925 -129.39710092 125.0678144 -137.875 129.3125 C-139.32326172 130.02019531 -139.32326172 130.02019531 -140.80078125 130.7421875 C-144.18496853 132.67214203 -144.18496853 132.67214203 -148.5625 137.4375 C-148.5625 143.7075 -148.5625 149.9775 -148.5625 156.4375 C-193.4425 156.4375 -238.3225 156.4375 -284.5625 156.4375 C-281.83437493 152.3453124 -279.50940175 149.09400101 -276.25 145.5625 C-273.54827768 142.61078065 -270.8636131 139.65499754 -268.25 136.625 C-257.07881024 123.83962457 -245.44529589 111.05596722 -232.47265625 100.06640625 C-230.1844606 98.11512284 -227.9715094 96.08932313 -225.75 94.0625 C-205.28969562 75.62951236 -182.66837545 59.55298869 -158.85546875 45.76757812 C-156.75951658 44.55178304 -154.67574258 43.3176074 -152.59375 42.078125 C-132.47102422 30.25569988 -110.17080943 20.33987547 -87.66552734 14.03125 C-86.07227981 13.58142669 -84.48194787 13.12126012 -82.89306641 12.65625 C-67.63377516 8.20344917 -52.51069663 4.92068221 -36.74633789 2.86303711 C-34.53132578 2.56698879 -32.3196169 2.24557712 -30.11108398 1.90454102 C-20.0456035 0.40442636 -10.16466266 -0.00275577 0 0 Z " fill="#929AA9" transform="translate(335.5625,57.5625)"/>
<path d="M0 0 C0.74443359 -0.01224609 1.48886719 -0.02449219 2.25585938 -0.03710938 C6.46382178 -0.04781666 10.38663409 0.29211791 14.51660156 1.1015625 C24.04093423 2.7227976 33.66799743 3.21134988 43.30078125 3.79296875 C44.37473963 3.8583956 45.44869801 3.92382244 46.55520058 3.99123192 C74.11629713 5.62127093 101.6860766 5.61717126 129.2837441 5.52092415 C134.38775013 5.50324862 139.49173255 5.49277133 144.59576416 5.48605347 C198.68535122 5.41067953 252.75012744 4.60341828 306.82331848 3.25543594 C311.55632009 3.13805017 316.28939259 3.02359334 321.02246094 2.90893555 C327.19392632 2.75930006 333.36537358 2.60898537 339.53678322 2.45706749 C347.71186196 2.25587265 355.88705308 2.06075894 364.0625 1.875 C365.42094025 1.83984032 365.42094025 1.83984032 366.80682373 1.80397034 C376.51032241 1.62469555 383.10961491 6.10042459 389.96484375 12.57421875 C394.17002952 16.80469887 398.17907501 21.19020208 402.15380859 25.63476562 C403.56562996 27.19095001 405.00515985 28.7155543 406.45703125 30.234375 C418.67906698 43.07488019 425.25479748 54.68892443 424.93359375 72.80859375 C424.35773764 81.69955891 422.31247049 90.47044736 420.5625 99.1875 C405.07496527 100.6580631 389.59282301 101.7231776 374.05615234 102.51025391 C370.64785151 102.6831698 367.23994017 102.86251224 363.83203125 103.04296875 C343.53410249 104.10247898 323.22702197 104.94358937 302.91939163 105.7916584 C295.80054475 106.0901729 288.6824017 106.40252425 281.56445312 106.72167969 C227.76864301 109.12526296 174.04613169 110.57421791 120.19994926 110.5025816 C118.19824652 110.50001379 116.19654296 110.49810159 114.19483948 110.49619293 C80.39396053 110.46033835 46.61816241 110.37240046 12.875 108.1875 C10.00401754 108.00860214 7.13285876 107.83259862 4.26171875 107.65625 C3.58250366 107.61407349 2.90328857 107.57189697 2.20349121 107.52844238 C-3.13333236 107.19898445 -8.47124119 106.9316654 -13.8125 106.6875 C-17.02139298 106.53064557 -20.22952107 106.36202885 -23.4375 106.1875 C-25.13688721 106.0951709 -25.13688721 106.0951709 -26.87060547 106.00097656 C-30.66480368 105.78659276 -34.45729553 105.5517628 -38.25 105.3125 C-39.44995605 105.24611328 -40.64991211 105.17972656 -41.88623047 105.11132812 C-49.18219587 104.62748062 -56.29330422 104.11170141 -61.6875 98.5625 C-65.88884603 93.22745742 -66.13535098 86.20764864 -67.05029297 79.69384766 C-67.46162156 77.03136385 -67.96836533 74.40194016 -68.50390625 71.76171875 C-68.68937012 70.84535645 -68.87483398 69.92899414 -69.06591797 68.98486328 C-69.42821179 67.21262947 -69.79541901 65.44139015 -70.16845703 63.67138672 C-73.13005409 48.78234112 -73.13005409 48.78234112 -69.828125 42.359375 C-67.29355762 38.99651763 -64.66447233 36.72008879 -61.1875 34.4375 C-60.5776123 34.01976318 -59.96772461 33.60202637 -59.33935547 33.17163086 C-58.04187006 32.28464838 -56.74016021 31.40381791 -55.43457031 30.52880859 C-53.45282084 29.19779006 -51.48628691 27.84698854 -49.5234375 26.48828125 C-46.86469637 24.64834817 -44.20078597 22.81642408 -41.53125 20.9921875 C-38.75240525 19.09206573 -35.98245315 17.17988886 -33.21875 15.2578125 C-11.26142524 0.00931466 -11.26142524 0.00931466 0 0 Z M-24.4375 18.1875 C-26.20811063 19.4586436 -27.97892412 20.72950471 -29.75 22 C-30.59949219 22.63421875 -31.44898437 23.2684375 -32.32421875 23.921875 C-37.27841812 27.52718947 -42.36718028 30.93649432 -47.45043945 34.35668945 C-49.00625827 35.41095607 -50.55320181 36.47844349 -52.09082031 37.55908203 C-53.70726555 38.6807726 -55.35527372 39.75786296 -57.02636719 40.79638672 C-61.52541198 43.71423168 -61.52541198 43.71423168 -64.09301758 48.22753906 C-64.1832411 50.97715237 -63.86111855 53.4659547 -63.4375 56.1875 C-63.26349011 57.52013108 -63.09126065 58.85299534 -62.92041016 60.18603516 C-62.40498563 64.01145409 -61.79466627 67.81549169 -61.14868164 71.62084961 C-60.74843215 74.0093562 -60.37887927 76.4014315 -60.00976562 78.79492188 C-59.75446833 80.32843651 -59.49736996 81.86165263 -59.23828125 83.39453125 C-59.132845 84.10293655 -59.02740875 84.81134186 -58.91877747 85.54121399 C-58.31494306 88.9100265 -57.3944579 91.2517024 -55.48583984 94.09863281 C-51.06975475 97.12474398 -47.11885275 97.15209869 -41.86328125 97.40234375 C-40.809095 97.47073959 -39.75490875 97.53913544 -38.66877747 97.60960388 C-35.25929448 97.82481616 -31.84897337 98.00686677 -28.4375 98.1875 C-26.19048773 98.3226516 -23.94357862 98.45952953 -21.69677734 98.59814453 C-15.86475642 98.9498155 -10.03139635 99.26466562 -4.1965332 99.56518555 C-0.66519162 99.74792022 2.86562822 99.93899973 6.39648438 100.13085938 C45.87364757 102.23328627 85.33368919 102.42884211 124.855546 102.43693876 C127.07589562 102.43750341 129.29624455 102.43857101 131.51659393 102.4397316 C178.68806433 102.46131973 225.75566609 101.76999664 272.87912083 99.50318336 C280.32714469 99.14662468 287.77674113 98.83086243 295.22672653 98.51844406 C311.00676926 97.8558654 326.78336204 97.13314339 342.55926514 96.37823486 C346.67886348 96.18144032 350.79865715 95.98890727 354.91845703 95.79638672 C361.72538052 95.47781707 368.53175363 95.14904192 375.33786011 94.81347656 C377.8710466 94.68945294 380.40435075 94.56780587 382.93777466 94.44873047 C386.40946074 94.28459091 389.88050451 94.11045774 393.3515625 93.93359375 C394.36078262 93.887827 395.37000275 93.84206024 396.4098053 93.79490662 C402.33912852 93.47969449 407.80052316 92.63336297 413.5625 91.1875 C417.09067427 79.48992223 419.89341557 63.18562395 414.2890625 51.71484375 C408.52679964 43.28003816 401.33850871 35.90484915 394.1003418 28.73901367 C392.34199847 26.96503815 390.71962359 25.10933207 389.125 23.1875 C384.78446394 18.16264519 379.85378669 12.66381358 373.5625 10.1875 C371.03936993 10.00640263 368.63162627 9.9327818 366.1105957 9.95922852 C365.36530546 9.95944693 364.62001522 9.95966534 363.85214043 9.95989037 C361.37652737 9.96401247 358.90130996 9.98349474 356.42578125 10.00390625 C354.66799582 10.0117346 352.91020864 10.01917876 351.15242004 10.02626038 C333.52185441 10.11926202 315.89838953 10.53538978 298.27398682 10.9854126 C288.5801908 11.23216554 278.88582431 11.45503037 269.19140625 11.67578125 C268.20413795 11.69829704 267.21686966 11.72081284 266.19968414 11.74401093 C231.99135817 12.51885113 197.77824928 12.92380958 163.5625 13.1875 C162.79773849 13.19355507 162.03297699 13.19961014 161.24504089 13.20584869 C129.19297077 13.45875718 97.16504626 13.41089112 65.125 12.375 C63.39044556 12.32259659 63.39044556 12.32259659 61.62084961 12.26913452 C46.57315623 11.79709839 31.70967403 10.61609455 16.75463867 8.88134766 C-0.59139683 6.88541106 -10.31161311 7.36913785 -24.4375 18.1875 Z " fill="#8D95A3" transform="translate(79.4375,274.8125)"/>
<path d="M0 0 C1.59877802 0.00128403 1.59877802 0.00128403 3.22985458 0.00259399 C16.5282529 0.01406083 29.82662714 0.03424648 43.125 0.0625 C42.86807373 0.81724106 42.61114746 1.57198212 42.34643555 2.34959412 C41.16341425 5.83423819 39.98792661 9.3213809 38.8125 12.80859375 C38.20631836 14.58864807 38.20631836 14.58864807 37.58789062 16.40466309 C34.50516763 25.5760773 32.0734443 34.77816926 30 44.22265625 C29.125 48.0625 29.125 48.0625 28.125 50.0625 C27.17239288 49.89935303 26.21978577 49.73620605 25.23831177 49.56811523 C20.59253873 48.90926018 15.99636828 48.93725218 11.31201172 48.97265625 C10.35559217 48.97644791 9.39917263 48.98023956 8.41377068 48.98414612 C-3.34806818 49.04764355 -15.10760051 49.27321374 -26.8671875 49.5 C-29.27954787 49.54501879 -31.69191163 49.58985581 -34.10427856 49.63452148 C-40.37418038 49.75108778 -46.64403375 49.87007976 -52.91387939 49.98962402 C-59.34359984 50.11177142 -65.77336423 50.23155972 -72.203125 50.3515625 C-84.76046009 50.58626793 -97.31774515 50.82354287 -109.875 51.0625 C-109.73080974 48.86861955 -109.58294628 46.67498038 -109.43359375 44.48144531 C-109.35165771 43.25983704 -109.26972168 42.03822876 -109.18530273 40.77960205 C-108.70907354 35.07487469 -107.80686766 29.45772728 -106.875 23.8125 C-106.51823627 21.62021272 -106.1640308 19.42750745 -105.8125 17.234375 C-105.65652344 16.2865918 -105.50054687 15.33880859 -105.33984375 14.36230469 C-104.7170704 9.94139894 -104.29402628 5.50673903 -103.875 1.0625 C-69.2477668 0.14940373 -34.63745642 -0.02801533 0 0 Z " fill="#5A5C6C" transform="translate(430.875,220.9375)"/>
<path d="M0 0 C0.91979015 0.00085602 1.83958031 0.00171204 2.78724289 0.00259399 C14.17068204 0.0139761 25.55409091 0.03404003 36.9375 0.0625 C37.25891973 2.58985074 37.57884867 5.11737579 37.89794922 7.64501953 C37.98803757 8.35217606 38.07812592 9.05933258 38.17094421 9.78791809 C38.97320412 16.15859001 39.56567539 22.53579276 40.0625 28.9375 C40.14886719 29.97390625 40.23523438 31.0103125 40.32421875 32.078125 C40.82752025 38.42132172 41.04862654 44.70006432 40.9375 51.0625 C19.37989782 51.41135746 -2.04452711 51.13049687 -23.5625 49.6875 C-24.52351624 49.62428558 -25.48453247 49.56107117 -26.47467041 49.49594116 C-35.59816697 48.88604729 -44.68054174 48.18443389 -53.74609375 46.9765625 C-59.74306419 46.18382012 -65.57920794 45.75317906 -71.625 45.8125 C-72.44806641 45.80476563 -73.27113281 45.79703125 -74.11914062 45.7890625 C-79.14396037 45.80510342 -83.29975589 46.45147783 -88.0625 48.0625 C-88.34222656 46.79019531 -88.62195313 45.51789063 -88.91015625 44.20703125 C-91.31482455 33.55953562 -94.14489903 23.21646819 -97.73852539 12.90551758 C-98.02590576 12.08075928 -98.31328613 11.25600098 -98.609375 10.40625 C-98.86557617 9.68630859 -99.12177734 8.96636719 -99.38574219 8.22460938 C-100.12629702 5.85868095 -100.61506603 3.49935994 -101.0625 1.0625 C-67.37113394 0.27893139 -33.69960626 -0.03158721 0 0 Z " fill="#5A5C6C" transform="translate(151.0625,221.9375)"/>
<path d="M0 0 C0.68852051 0.29044189 1.37704102 0.58088379 2.08642578 0.88012695 C5.33866519 2.49898557 7.54182373 3.71053287 8.79296875 7.23168945 C9.18640117 10.10974485 9.31708475 12.90807307 9.375 15.8125 C9.42769043 16.89547363 9.48038086 17.97844727 9.53466797 19.09423828 C9.64972746 21.46046163 9.7501505 23.82743044 9.83789062 26.19482422 C10.00721462 30.16934802 10.26250059 34.13013093 10.546875 38.09765625 C11.55240595 52.43955364 12 66.57823437 12 81 C-8.46 81 -28.92 81 -50 81 C-51.49739555 64.02060405 -51.49739555 64.02060405 -52.1328125 56.765625 C-52.5658815 51.82115555 -52.99951044 46.87673982 -53.43652344 41.93261719 C-53.78893538 37.9452168 -54.13879463 33.95759982 -54.48690796 29.96982193 C-54.61996144 28.45076688 -54.75392429 26.93179119 -54.88882446 25.41289902 C-55.07805297 23.28051652 -55.26400471 21.14787114 -55.44921875 19.01513672 C-55.55580811 17.8026828 -55.66239746 16.59022888 -55.7722168 15.34103394 C-55.98640362 12.19942636 -56.15942492 9.14573374 -56 6 C-51.19269879 0.67016604 -43.76418077 -1.37612932 -37 -3 C-36.0733252 -3.25692627 -36.0733252 -3.25692627 -35.12792969 -3.51904297 C-24.00369361 -6.03335516 -10.24636478 -4.78072368 0 0 Z " fill="#F4D486" transform="translate(250,192)"/>
<path d="M0 0 C0.36263678 5.37772625 -0.18682273 10.56520563 -0.91796875 15.8984375 C-1.01550446 16.63932617 -1.11304016 17.38021484 -1.21353149 18.14355469 C-1.53275305 20.55479681 -1.85984036 22.96489122 -2.1875 25.375 C-2.41189487 27.05287142 -2.63609477 28.73076892 -2.86010742 30.40869141 C-5.08335554 46.96265715 -7.52924273 63.48122285 -10 80 C-23.86 80 -37.72 80 -52 80 C-53.05496334 76.83510997 -53.27313765 74.25364272 -53.48071289 70.92724609 C-53.56072037 69.67519379 -53.64072784 68.42314148 -53.72315979 67.13314819 C-53.80649276 65.76325481 -53.8896539 64.39335096 -53.97265625 63.0234375 C-54.06063516 61.61437299 -54.1488911 60.20532576 -54.2374115 58.79629517 C-54.42230466 55.83912068 -54.60439658 52.88179102 -54.78442383 49.92431641 C-55.01400757 46.15505527 -55.24959039 42.3861997 -55.48720646 38.61743736 C-55.67036453 35.70399972 -55.85071575 32.79039349 -56.03021049 29.87672806 C-56.11597347 28.48857609 -56.20248164 27.10046994 -56.28978157 25.71241379 C-56.74385037 18.46244794 -57.10661663 11.26480746 -57 4 C-39.96206388 -6.03039788 -17.9332838 -11.95552253 0 0 Z " fill="#F4D486" transform="translate(323,192)"/>
<path d="M0 0 C0.15584357 9.98589329 -0.32936058 19.85755546 -1 29.8125 C-1.09673804 31.29489687 -1.19309434 32.77731871 -1.2890625 34.25976562 C-1.52165828 37.84014121 -1.75935966 41.420155 -2 45 C-3.59775269 44.79105103 -3.59775269 44.79105103 -5.2277832 44.57788086 C-17.75894901 43.01838232 -30.15064262 42.63563694 -42.76733398 42.54370117 C-59.38527058 42.40029366 -80.47295923 41.82163261 -94 31 C-93.69615037 27.90387703 -93.48835337 26.42705799 -91.1015625 24.33984375 C-90.28429687 23.87707031 -89.46703125 23.41429687 -88.625 22.9375 C-87.83351563 22.47214844 -87.04203125 22.00679687 -86.2265625 21.52734375 C-77.95726528 17.61294277 -69.51282607 15.21261841 -60.5625 13.4375 C-59.52480469 13.22552979 -58.48710937 13.01355957 -57.41796875 12.79516602 C-50.80257068 11.47238967 -44.17977082 10.37540183 -37.5 9.4375 C-25.90566116 7.80598541 -14.59345755 5.48186265 -3.8203125 0.734375 C-2 0 -2 0 0 0 Z " fill="#595B6B" transform="translate(444,133)"/>
<path d="M0 0 C6.27 0 12.54 0 19 0 C19.07540738 6.45139141 19.12918146 12.90251402 19.16479492 19.35424805 C19.17967585 21.53886394 19.19998702 23.7234511 19.22631836 25.90795898 C19.39831853 40.56844387 18.53440437 54.55075209 16 69 C12.3863669 70.03198323 9.9530393 69.81192462 6.25 69.0625 C4.8592627 68.78104126 4.8592627 68.78104126 3.44042969 68.49389648 C2.63508789 68.33091064 1.82974609 68.1679248 1 68 C0.08507918 59.79852034 -0.13342691 51.70462848 -0.09765625 43.45703125 C-0.0962413 42.20742111 -0.09482635 40.95781097 -0.09336853 39.67033386 C-0.08875602 36.38741819 -0.07981038 33.10455398 -0.06866455 29.82165527 C-0.05833788 26.45597963 -0.05384708 23.09029638 -0.04882812 19.72460938 C-0.0378609 13.1497173 -0.02062878 6.57486857 0 0 Z " fill="#595B6B" transform="translate(442,385)"/>
<path d="M0 0 C7.73374956 -0.28821427 15.35894522 0.15488751 23.0625 0.8125 C24.45505005 0.91763916 24.45505005 0.91763916 25.87573242 1.02490234 C26.75334229 1.10562988 27.63095215 1.18635742 28.53515625 1.26953125 C29.322854 1.33760986 30.11055176 1.40568848 30.92211914 1.47583008 C33.51893119 2.13090651 34.42576718 2.83914269 36 5 C36.70776367 7.37255859 36.70776367 7.37255859 37.16796875 10.1484375 C37.33876953 11.15390625 37.50957031 12.159375 37.68554688 13.1953125 C37.85119141 14.24460937 38.01683594 15.29390625 38.1875 16.375 C38.36474609 17.4165625 38.54199219 18.458125 38.72460938 19.53125 C39.47742345 24.0772006 40.10274771 28.38209033 40 33 C16.41761516 32.0125055 16.41761516 32.0125055 5 31 C3.68993453 24.72709827 2.50948418 18.4316548 1.375 12.125 C1.23989014 11.38773682 1.10478027 10.65047363 0.96557617 9.89086914 C0.36488022 6.51576914 0 3.44147809 0 0 Z " fill="#D4DAE8" transform="translate(25,332)"/>
<path d="M0 0 C5.45769811 -0.11138159 10.61509359 0.08342019 16 1 C18.14523826 22.02732871 18.22451365 42.8922629 18 64 C16.23050905 64.10815225 14.45912513 64.18566083 12.6875 64.25 C11.70136719 64.29640625 10.71523437 64.3428125 9.69921875 64.390625 C7 64 7 64 5.20166016 62.41650391 C3.63148479 59.25892655 3.38016361 56.60155058 3.0859375 53.0859375 C3.02619247 52.40648071 2.96644745 51.72702393 2.90489197 51.02697754 C2.7144763 48.81055739 2.54407533 46.59314201 2.375 44.375 C2.24942326 42.84777937 2.12336168 41.32059853 1.99682617 39.79345703 C0.92838391 26.54498264 0.31788328 13.28787229 0 0 Z " fill="#595B6B" transform="translate(64,389)"/>
<path d="M0 0 C1.60294922 0.04060547 1.60294922 0.04060547 3.23828125 0.08203125 C4.04652344 0.11683594 4.85476562 0.15164063 5.6875 0.1875 C4.75159496 1.2930189 3.81370142 2.39685453 2.875 3.5 C2.35292969 4.11488281 1.83085938 4.72976563 1.29296875 5.36328125 C-0.3125 7.1875 -0.3125 7.1875 -1.97265625 8.640625 C-3.71528051 10.65251773 -3.76893331 11.99447245 -3.9375 14.625 C-4.48520835 22.33203892 -4.48520835 22.33203892 -7.4921875 25.44140625 C-8.38164063 26.20324219 -9.27109375 26.96507812 -10.1875 27.75 C-13.65855436 30.66829276 -13.65855436 30.66829276 -16.765625 33.9453125 C-23.72920431 39.5372777 -44.8164796 34.10204442 -53.3125 33.1875 C-50.21695114 29.84340343 -46.80826292 27.38774154 -43 24.9375 C-34.94156079 19.6670955 -27.05308389 14.16303562 -19.1706543 8.63378906 C-18.22488525 7.97217773 -17.27911621 7.31056641 -16.3046875 6.62890625 C-15.04180908 5.74247437 -15.04180908 5.74247437 -13.75341797 4.83813477 C-8.85672071 1.52681548 -6.02953878 -0.198776 0 0 Z " fill="#F9F9F9" transform="translate(79.3125,290.8125)"/>
<path d="M0 0 C4.62 0 9.24 0 14 0 C14 12.87 14 25.74 14 39 C3.44 39 -7.12 39 -18 39 C-15 27 -15 27 -12.4375 24.25 C-10 23 -10 23 -8 23 C-7.7525 22.484375 -7.505 21.96875 -7.25 21.4375 C-6 19 -6 19 -4 16 C-1.10102581 11.05659998 -0.75530491 5.60184478 0 0 Z " fill="#FBFBFB" transform="translate(241,297)"/>
<path d="M0 0 C5.76193683 -0.46095495 8.51965336 0.35558381 13 4 C14.93355967 5.92533175 16.75829746 7.83809669 18.5625 9.875 C19.602191 11.02925292 20.64258194 12.18287567 21.68359375 13.3359375 C22.22097168 13.93374023 22.75834961 14.53154297 23.31201172 15.14746094 C25.04863783 17.05337921 26.81691346 18.92434504 28.59765625 20.7890625 C29.18667725 21.4092627 29.77569824 22.02946289 30.38256836 22.66845703 C31.52027458 23.86434775 32.66282102 25.05565752 33.81079102 26.24169922 C34.58894165 27.06565186 34.58894165 27.06565186 35.3828125 27.90625 C35.84059082 28.38384766 36.29836914 28.86144531 36.77001953 29.35351562 C38.31866052 31.4265674 39.12161303 33.57764154 40 36 C35.69226795 36.46197691 31.38280579 36.80348887 27.0625 37.125 C25.85013672 37.25648438 24.63777344 37.38796875 23.38867188 37.5234375 C14.44444828 38.10517562 14.44444828 38.10517562 10.22265625 34.875 C7.95402279 32.34856729 5.96718446 29.76415191 4 27 C2.96653211 25.90884251 1.92633459 24.82395351 0.875 23.75 C-1.55804784 20.18152983 -0.77716071 19.15463271 0 15 C0.06656312 12.36410042 0.09567411 9.75851404 0.0625 7.125 C0.05798828 6.43664062 0.05347656 5.74828125 0.04882812 5.0390625 C0.03716336 3.35933665 0.01923271 1.67965625 0 0 Z " fill="#FBFBFB" transform="translate(444,293)"/>
<path d="M0 0 C6.27 0 12.54 0 19 0 C19.66 2.97 20.32 5.94 21 9 C23.93698583 15.80896715 29.16788657 21.26605845 35.91796875 24.3203125 C39.49326661 26.26882717 41.35844141 28.3807904 43.875 31.5625 C45.04675781 33.01849609 45.04675781 33.01849609 46.2421875 34.50390625 C48 37 48 37 48 39 C45.46131449 39.29556422 42.94286091 39.52980518 40.390625 39.68359375 C36.93736098 39.91726145 36.93736098 39.91726145 33.421875 40.91015625 C29.16486885 41.65379645 25.81610132 42.16581677 22 40 C16.56196009 33.91457438 13.10196277 26.27182295 9.51123047 19.00976562 C7.55203589 15.10783496 5.36324191 11.37100726 3.125 7.625 C0 2.25104603 0 2.25104603 0 0 Z " fill="#F6F6F6" transform="translate(371,294)"/>
<path d="M0 0 C5.28 0 10.56 0 16 0 C11.13889604 10.03923644 5.87341573 19.70512432 0.04980469 29.22070312 C-0.85870297 30.76051796 -1.65916839 32.36311724 -2.4375 33.97265625 C-4 36 -4 36 -6.609375 36.5234375 C-7.64578125 36.47445312 -8.6821875 36.42546875 -9.75 36.375 C-10.89339844 36.33117187 -12.03679687 36.28734375 -13.21484375 36.2421875 C-14.46394531 36.16226563 -15.71304688 36.08234375 -17 36 C-18.39712623 35.91911201 -19.79426185 35.83838599 -21.19140625 35.7578125 C-24.79695206 35.53870495 -28.39855043 35.27895045 -32 35 C-28.13955751 27.85103242 -24.689398 22.89963939 -17.6875 18.625 C-9.81132912 13.80588736 -4.13675677 8.27351353 0 0 Z " fill="#FAFAFA" transform="translate(160,297)"/>
<path d="M0 0 C10.23 0 20.46 0 31 0 C31 8.25 31 16.5 31 25 C21.1 25 11.2 25 1 25 C0.16621907 21.66487626 -0.11814364 19.37555768 -0.09765625 16.015625 C-0.09515869 15.17290039 -0.09266113 14.33017578 -0.09008789 13.46191406 C-0.08098389 12.40198242 -0.07187988 11.34205078 -0.0625 10.25 C-0.041875 6.8675 -0.02125 3.485 0 0 Z " fill="#D6DCE9" transform="translate(223,344)"/>
<path d="M0 0 C2.60424116 -0.02747734 5.20818042 -0.04706373 7.8125 -0.0625 C8.53115234 -0.07087891 9.24980469 -0.07925781 9.99023438 -0.08789062 C16.03775485 -0.11453168 21.98726124 0.37497958 28 1 C28.6719902 4.91577268 29.33666742 8.8327522 30 12.75 C30.19078125 13.86117188 30.3815625 14.97234375 30.578125 16.1171875 C30.84882813 17.72207031 30.84882813 17.72207031 31.125 19.359375 C31.29257813 20.34389648 31.46015625 21.32841797 31.6328125 22.34277344 C32 25 32 25 32 29 C22.63250185 29.1820896 13.3412692 28.61326035 4 28 C3.3280098 24.08422732 2.66333258 20.1672478 2 16.25 C1.80921875 15.13882812 1.6184375 14.02765625 1.421875 12.8828125 C1.15117188 11.27792969 1.15117188 11.27792969 0.875 9.640625 C0.70742187 8.65610352 0.53984375 7.67158203 0.3671875 6.65722656 C0 4 0 4 0 0 Z " fill="#D4DAE7" transform="translate(125,340)"/>
<path d="M0 0 C2.97 0 5.94 0 9 0 C9.41773682 0.72477539 9.83547363 1.44955078 10.26586914 2.19628906 C11.85172315 4.94740768 13.43785856 7.69836382 15.02416992 10.44921875 C16.03390074 12.20040015 17.04332207 13.95175998 18.05273438 15.703125 C18.70693359 16.8375 19.36113281 17.971875 20.03515625 19.140625 C20.68887207 20.27564453 21.34258789 21.41066406 22.01611328 22.58007812 C23.35225979 24.88339344 24.69619903 27.1789431 26.05810547 29.46679688 C26.6976416 30.54509766 27.33717773 31.62339844 27.99609375 32.734375 C28.57415771 33.70084961 29.15222168 34.66732422 29.74780273 35.66308594 C31 38 31 38 31 40 C10.70001639 42.54085726 10.70001639 42.54085726 4.78369141 38.47802734 C0.41858191 33.85388167 -4 27.51966991 -4 21 C-3.34 21 -2.68 21 -2 21 C-0.27436037 16.74342225 1.14060034 13.18800157 1.125 8.5625 C1.12886719 7.41974609 1.12886719 7.41974609 1.1328125 6.25390625 C1.05084425 3.67907285 1.05084425 3.67907285 0 0 Z " fill="#F9F9F9" transform="translate(353,295)"/>
<path d="M0 0 C3.63 0 7.26 0 11 0 C11.14695312 1.37671875 11.14695312 1.37671875 11.296875 2.78125 C12.28723808 13.06662623 12.28723808 13.06662623 17 22 C18.87070842 23.16955949 18.87070842 23.16955949 20.9375 24.1875 C25 27 25 27 30 40 C20.1 40 10.2 40 0 40 C0 26.8 0 13.6 0 0 Z " fill="#FAFAFA" transform="translate(263,296)"/>
<path d="M0 0 C0.02714434 2.7084017 0.04690846 5.41652721 0.0625 8.125 C0.07087891 8.88554687 0.07925781 9.64609375 0.08789062 10.4296875 C0.10646509 14.7389644 -0.13882735 18.75516474 -1 23 C-22.95336401 25.31997326 -22.95336401 25.31997326 -34 25 C-33.52765962 21.35324788 -33.04598994 17.70778929 -32.5625 14.0625 C-32.42779297 13.02158203 -32.29308594 11.98066406 -32.15429688 10.90820312 C-32.02216797 9.91884766 -31.89003906 8.92949219 -31.75390625 7.91015625 C-31.63345947 6.99371338 -31.5130127 6.07727051 -31.38891602 5.13305664 C-31 3 -31 3 -30 2 C-28.12394667 1.77124968 -26.24023437 1.60470572 -24.35546875 1.46484375 C-23.20369141 1.37783203 -22.05191406 1.29082031 -20.86523438 1.20117188 C-19.65158203 1.11416016 -18.43792969 1.02714844 -17.1875 0.9375 C-15.38442383 0.80118164 -15.38442383 0.80118164 -13.54492188 0.66210938 C-9.01529715 0.32611379 -4.54376466 0 0 0 Z " fill="#D1D7E5" transform="translate(488,336)"/>
<path d="M0 0 C9.9 0 19.8 0 30 0 C29.18369535 8.16304651 27.92766329 15.12172396 26 23 C17.42 23 8.84 23 0 23 C0 15.41 0 7.82 0 0 Z " fill="#D6DCEA" transform="translate(263,345)"/>
<path d="M0 0 C-1.07626117 7.40788271 -2.27135661 14.71500286 -4 22 C-13.70943816 22.83779436 -23.26055028 23.12276617 -33 23 C-32.25403037 15.5403037 -30.63253871 8.31048782 -29 1 C-19.29056184 0.16220564 -9.73944972 -0.12276617 0 0 Z " fill="#D5DAE8" transform="translate(422,341)"/>
<path d="M0 0 C8.25 0 16.5 0 25 0 C25 8.58 25 17.16 25 26 C17.41 26 9.82 26 2 26 C1.67 23.56625 1.34 21.1325 1 18.625 C0.89558594 17.88072754 0.79117188 17.13645508 0.68359375 16.36962891 C-0.04434426 10.76999464 0 5.77933117 0 0 Z " fill="#D2D8E5" transform="translate(190,343)"/>
<path d="M0 0 C6.93 0.33 13.86 0.66 21 1 C21.20496094 2.57910156 21.40992187 4.15820312 21.62109375 5.78515625 C21.8932062 7.87760715 22.16534289 9.9700549 22.4375 12.0625 C22.57220703 13.10083984 22.70691406 14.13917969 22.84570312 15.20898438 C23.04389648 16.73168945 23.04389648 16.73168945 23.24609375 18.28515625 C23.36654053 19.21207275 23.4869873 20.13898926 23.61108398 21.09399414 C24.05337609 24.39882964 24.5284587 27.69921089 25 31 C18.07 30.67 11.14 30.34 4 30 C3.3285356 25.93823992 2.66264848 21.87569931 2 17.8125 C1.80921875 16.66201172 1.6184375 15.51152344 1.421875 14.32617188 C1.24140625 13.21435547 1.0609375 12.10253906 0.875 10.95703125 C0.70742187 9.93585205 0.53984375 8.91467285 0.3671875 7.86254883 C0 5 0 5 0 0 Z " fill="#D5DBE9" transform="translate(69,336)"/>
<path d="M0 0 C2.04159095 -0.0272616 4.08328963 -0.04651345 6.125 -0.0625 C7.26195313 -0.07410156 8.39890625 -0.08570313 9.5703125 -0.09765625 C12.8129156 -0.005327 15.81932612 0.38610094 19 1 C19.67336904 4.89470563 20.33751584 8.79092933 21 12.6875 C21.19078125 13.79029297 21.3815625 14.89308594 21.578125 16.02929688 C21.84882812 17.6293457 21.84882812 17.6293457 22.125 19.26171875 C22.29257813 20.24100342 22.46015625 21.22028809 22.6328125 22.22924805 C23 25 23 25 23 30 C17.06 30 11.12 30 5 30 C1.29755164 20.40729289 -0.20528301 10.27994155 0 0 Z " fill="#CED4E1" transform="translate(98,338)"/>
<path d="M0 0 C6.93 0 13.86 0 21 0 C21.80424324 9.04773645 22.09175265 17.91648779 22 27 C16.06 27 10.12 27 4 27 C3.32919812 23.25069666 2.66319722 19.50064916 2 15.75 C1.80921875 14.68652344 1.6184375 13.62304688 1.421875 12.52734375 C1.24140625 11.50253906 1.0609375 10.47773438 0.875 9.421875 C0.70742187 8.47924805 0.53984375 7.53662109 0.3671875 6.56542969 C0 4 0 4 0 0 Z " fill="#D5DBE8" transform="translate(161,342)"/>
<path d="M0 0 C0.9583374 0.00523682 1.9166748 0.01047363 2.90405273 0.01586914 C4.45576172 0.02070313 4.45576172 0.02070313 6.03881836 0.02563477 C7.12743164 0.03401367 8.21604492 0.04239258 9.33764648 0.05102539 C10.97636719 0.05779297 10.97636719 0.05779297 12.64819336 0.06469727 C15.35723144 0.07652713 18.06616248 0.09300996 20.77514648 0.11352539 C19.3343916 7.51704506 17.64472472 14.8051741 15.77514648 22.11352539 C8.18514648 22.11352539 0.59514648 22.11352539 -7.22485352 22.11352539 C-6.52842227 17.23850669 -5.74871663 12.54044339 -4.72485352 7.73852539 C-4.46704102 6.51391602 -4.20922852 5.28930664 -3.94360352 4.02758789 C-2.98780687 0.15245585 -2.98780687 0.15245585 0 0 Z " fill="#D4DAE7" transform="translate(364.224853515625,342.886474609375)"/>
<path d="M0 0 C2.64 0 5.28 0 8 0 C7.731875 0.66 7.46375 1.32 7.1875 2 C6.795625 2.99 6.40375 3.98 6 5 C5.73574219 5.62777344 5.47148437 6.25554687 5.19921875 6.90234375 C3.51503394 11.0609233 2.39235698 14.44267733 3 19 C3.804375 20.2684375 3.804375 20.2684375 4.625 21.5625 C6 24 6 24 5.5 26.3125 C5.005 27.199375 4.51 28.08625 4 29 C3.70456299 29.65830811 3.40912598 30.31661621 3.10473633 30.99487305 C1.92355592 33.32614318 0.82728636 35.1229463 -1 37 C-4.31713918 37.98492606 -7.38899007 37.76550711 -10.8125 37.5 C-11.69615234 37.46390625 -12.57980469 37.4278125 -13.49023438 37.390625 C-15.66202972 37.29670953 -17.83158115 37.15321507 -20 37 C-18.71992321 32.7859934 -17.12544885 29.19612282 -14.8828125 25.41015625 C-13.97208984 23.86231445 -13.97208984 23.86231445 -13.04296875 22.28320312 C-12.41003906 21.22037109 -11.77710938 20.15753906 -11.125 19.0625 C-9.87741846 16.94932838 -8.63001796 14.83604986 -7.3828125 12.72265625 C-6.79790039 11.73539551 -6.21298828 10.74813477 -5.61035156 9.73095703 C-3.70804217 6.50487565 -1.84510303 3.25906389 0 0 Z " fill="#F9F9F9" transform="translate(185,297)"/>
<path d="M0 0 C7.26 0 14.52 0 22 0 C20.26417574 7.81120918 18.23441251 15.32851706 16 23 C9.07 23 2.14 23 -5 23 C-3.6690424 15.21901711 -1.97809809 7.64265172 0 0 Z " fill="#D2D8E6" transform="translate(302,344)"/>
<path d="M0 0 C6.93 0 13.86 0 21 0 C20.09134866 8.17786202 18.51574633 14.2904548 16 22 C5.11 22.495 5.11 22.495 -6 23 C-5.38125 20.504375 -4.7625 18.00875 -4.125 15.4375 C-3.93437988 14.66591553 -3.74375977 13.89433105 -3.54736328 13.09936523 C-3.38993652 12.46716064 -3.23250977 11.83495605 -3.0703125 11.18359375 C-2.83465576 10.23311157 -2.83465576 10.23311157 -2.59423828 9.26342773 C-1.77997239 6.16192442 -0.88092369 3.08323291 0 0 Z " fill="#D3D8E6" transform="translate(332,344)"/>
<path d="M0 0 C-0.3376774 8.185766 -0.96846681 15.35526412 -4 23 C-9.94 23 -15.88 23 -22 23 C-20.28571429 3.28571429 -20.28571429 3.28571429 -18 1 C-15.53622997 0.76185516 -13.09455747 0.57750279 -10.625 0.4375 C-9.59632813 0.37272461 -9.59632813 0.37272461 -8.546875 0.30664062 C-5.69270692 0.13172566 -2.86012111 0 0 0 Z " fill="#D2D8E6" transform="translate(449,339)"/>
<path d="M0 0 C3.63 0 7.26 0 11 0 C11.21118012 30.10489993 11.21118012 30.10489993 10 38 C9 39 9 39 5.9375 39.0625 C4.968125 39.041875 3.99875 39.02125 3 39 C1.17328033 25.9651892 -0.57040108 13.18260284 0 0 Z " fill="#535564" transform="translate(300,391)"/>
<path d="M0 0 C0.56332031 0.30292969 1.12664062 0.60585938 1.70703125 0.91796875 C3.94536643 2.05608757 3.94536643 2.05608757 6.26171875 2.61328125 C14.00678143 4.84575503 17.23509235 9.49278597 21.3828125 16.00390625 C23 19 23 19 23 22 C6.9714078 23.52653259 6.9714078 23.52653259 2.3515625 19.94921875 C0.59577019 17.36153358 -0.72948808 14.85344481 -2 12 C-2.56074219 11.10925781 -3.12148438 10.21851563 -3.69921875 9.30078125 C-4.12847656 8.54152344 -4.55773437 7.78226562 -5 7 C-4.10237015 3.94805852 -2.32535032 2.11395484 0 0 Z " fill="#F7F7F7" transform="translate(327,314)"/>
<path d="M0 0 C1.54300781 -0.00483398 1.54300781 -0.00483398 3.1171875 -0.00976562 C18.78738589 0.09988589 18.78738589 0.09988589 23 4.3125 C22.44444444 8.86805556 22.44444444 8.86805556 21 10.3125 C19.53871049 10.2225687 18.08139099 10.06650446 16.62890625 9.8828125 C11.04788086 9.26545561 5.54815564 9.16404081 -0.0625 9.1875 C-0.99126953 9.18363281 -1.92003906 9.17976562 -2.87695312 9.17578125 C-7.33501132 9.18203817 -11.63831694 9.34604282 -16.05859375 9.9453125 C-17.35925781 10.06648437 -18.65992188 10.18765625 -20 10.3125 C-20.66 9.6525 -21.32 8.9925 -22 8.3125 C-21.625 5.6875 -21.625 5.6875 -21 3.3125 C-13.92996231 0.36330341 -7.60541604 -0.11913246 0 0 Z " fill="#0A0805" transform="translate(226,242.6875)"/>
<path d="M0 0 C1.02416016 -0.01160156 2.04832031 -0.02320313 3.10351562 -0.03515625 C17.5828556 0.0203556 17.5828556 0.0203556 21.9375 4.375 C22.0625 6.875 22.0625 6.875 21.9375 9.375 C21.6075 9.705 21.2775 10.035 20.9375 10.375 C19.32960607 10.27858857 17.72554396 10.11882037 16.125 9.9375 C5.15682366 8.92606338 -6.23799862 8.66314227 -17.1875 10 C-18.46625 10.12375 -19.745 10.2475 -21.0625 10.375 C-21.7225 9.715 -22.3825 9.055 -23.0625 8.375 C-22.6875 5.75 -22.6875 5.75 -22.0625 3.375 C-14.60417671 0.65518503 -7.90712029 -0.0899104 0 0 Z " fill="#080704" transform="translate(227.0625,221.625)"/>
<path d="M0 0 C1.02480469 -0.01611328 2.04960937 -0.03222656 3.10546875 -0.04882812 C9.93339435 -0.05316607 15.71327009 0.96342845 22.125 3.3125 C22.75 5.6875 22.75 5.6875 23.125 8.3125 C22.465 8.9725 21.805 9.6325 21.125 10.3125 C19.12890625 10.29345703 19.12890625 10.29345703 16.6875 9.9453125 C11.14285685 9.2701566 5.70560517 9.16405208 0.125 9.1875 C-0.79539063 9.18363281 -1.71578125 9.17976562 -2.6640625 9.17578125 C-8.16455032 9.18352842 -13.51812052 9.50596219 -18.9765625 10.19580078 C-19.91628906 10.25356689 -19.91628906 10.25356689 -20.875 10.3125 C-21.875 9.3125 -21.875 9.3125 -22.0625 6.875 C-21.875 4.3125 -21.875 4.3125 -19.875 2.3125 C-13.24040883 0.14438302 -6.94087138 -0.02166314 0 0 Z " fill="#080704" transform="translate(223.875,202.6875)"/>
<path d="M0 0 C1.12019531 -0.01224609 2.24039062 -0.02449219 3.39453125 -0.03710938 C9.2406044 -0.04746252 14.24132169 0.173489 19.75 2.1875 C19.79254356 4.18704746 19.79080783 6.18791636 19.75 8.1875 C18.75 9.1875 18.75 9.1875 16.06958008 9.26928711 C14.89806396 9.2513208 13.72654785 9.23335449 12.51953125 9.21484375 C11.24142578 9.20259766 9.96332031 9.19035156 8.64648438 9.17773438 C6.61017648 9.15302962 4.57402245 9.12519035 2.5378418 9.09155273 C0.57352422 9.06111121 -1.39098677 9.0441005 -3.35546875 9.02734375 C-4.53262451 9.01050537 -5.70978027 8.99366699 -6.92260742 8.97631836 C-10.35876746 9.19440321 -13.02126783 10.04597101 -16.25 11.1875 C-20.75 10.6875 -20.75 10.6875 -22.25 9.1875 C-22.29063832 7.52132885 -22.292721 5.85361905 -22.25 4.1875 C-14.42041553 0.7897558 -8.57055092 0.0048641 0 0 Z " fill="#0B0A06" transform="translate(294.25,199.8125)"/>
<path d="M0 0 C0.57878906 0.30292969 1.15757812 0.60585938 1.75390625 0.91796875 C3.90463734 2.01708258 3.90463734 2.01708258 5.90234375 2.61328125 C14.41964723 5.5395717 20.00855275 12.59183694 26 19 C21.01358627 22.32427582 14.90048532 22.42815122 9.04296875 21.64794922 C2.98164294 19.72553542 -0.712783 13.07011435 -4 8 C-2.66666667 5.33333333 -1.33333333 2.66666667 0 0 Z " fill="#F5F5F5" transform="translate(422,311)"/>
<path d="M0 0 C1.67299959 0.65061095 3.33859237 1.32033324 5 2 C5.61875 2.19722656 6.2375 2.39445312 6.875 2.59765625 C10.23867297 4.81743308 11.78274031 8.11178553 13.75 11.5625 C14.16121094 12.26052734 14.57242187 12.95855469 14.99609375 13.67773438 C18 18.82229807 18 18.82229807 18 20 C11.07 20 4.14 20 -3 20 C-7.0656304 10.63672999 -7.0656304 10.63672999 -6.77734375 7.83984375 C-5.54187796 4.9157011 -3.29973062 3.12725082 -1 1 C-0.67 0.67 -0.34 0.34 0 0 Z " fill="#FAFAFA" transform="translate(304,316)"/>
<path d="M0 0 C2.97 0 5.94 0 9 0 C9.2496045 12.50795873 8.65944275 24.59862873 7 37 C5.02 37 3.04 37 1 37 C-0.19684056 24.66826776 -0.10396237 12.37632072 0 0 Z " fill="#575968" transform="translate(257,392)"/>
<path d="M0 0 C1.2578125 3.09765625 1.2578125 3.09765625 2 7 C0.72245822 9.69173605 -0.22970035 11.26456456 -2.125 13.4375 C-2.57858887 13.96883545 -3.03217773 14.5001709 -3.49951172 15.04760742 C-5.88039914 17.56876105 -7.6970494 18.92039818 -11.0625 19.8046875 C-14.14327232 19.81254661 -16.96573528 19.51956588 -20 19 C-21.58318591 18.83193873 -23.16649885 18.66506461 -24.75 18.5 C-25.8225 18.335 -26.895 18.17 -28 18 C-26.87369114 16.87369114 -25.74521487 15.749509 -24.609375 14.6328125 C-23.4427718 13.44921993 -22.31140074 12.23056518 -21.203125 10.9921875 C-17.10890503 6.55405305 -13.87778508 4.05246988 -7.98046875 2.5703125 C-4.77279394 1.64660338 -3.5076803 0 0 0 Z " fill="#F4F4F4" transform="translate(98,310)"/>
<path d="M0 0 C0.66 0 1.32 0 2 0 C2.66 2.31 3.32 4.62 4 7 C5.32 7.33 6.64 7.66 8 8 C7.36738317 11.69026484 6.42909641 14.42725897 5 18 C-2.26 18 -9.52 18 -17 18 C-10.76029567 5.3563886 -10.76029567 5.3563886 -8.125 4.12109375 C-7.42375 3.89550781 -6.7225 3.66992188 -6 3.4375 C-3.23372636 2.53744405 -2.10771027 2.10771027 0 0 Z " fill="#F8F8F8" transform="translate(210,317)"/>
<path d="M0 0 C1.02738281 -0.01160156 2.05476563 -0.02320313 3.11328125 -0.03515625 C4.10199219 -0.03128906 5.09070313 -0.02742187 6.109375 -0.0234375 C7.44693848 -0.01836182 7.44693848 -0.01836182 8.81152344 -0.01318359 C11.68775141 0.4446861 13.08612757 1.47358679 15.25 3.375 C14.375 8.25 14.375 8.25 13.25 9.375 C11.55101614 9.45022621 9.84896065 9.45814368 8.1484375 9.4375 C7.10042969 9.42976562 6.05242187 9.42203125 4.97265625 9.4140625 C2.76431971 9.38829428 0.55598627 9.36225848 -1.65234375 9.3359375 C-8.3041725 9.26162827 -8.3041725 9.26162827 -14.8984375 10 C-16.30996094 10.185625 -16.30996094 10.185625 -17.75 10.375 C-19.75 8.375 -19.75 8.375 -19.875 5.75 C-19.83375 4.96625 -19.7925 4.1825 -19.75 3.375 C-13.0345349 0.33858157 -7.32038245 -0.08392795 0 0 Z " fill="#0C0A06" transform="translate(294.75,221.625)"/>
<path d="M0 0 C1.20628008 2.33214148 2.1654738 4.49642139 3 7 C3.66 7 4.32 7 5 7 C3.5107393 11.46778209 1.61107623 15.87822381 -2 19 C-5.34725799 19.72247007 -8.43612179 19.35293803 -11.8125 18.9375 C-12.69615234 18.85822266 -13.57980469 18.77894531 -14.49023438 18.69726562 C-16.66553038 18.49737356 -18.83173807 18.26423606 -21 18 C-16.2922562 9.88515033 -12.11136968 4.7334109 -3 2 C-2.01 1.34 -1.02 0.68 0 0 Z " fill="#F8F8F8" transform="translate(121,312)"/>
<path d="M0 0 C4.29 0 8.58 0 13 0 C15.66488164 5.32976329 16.67468766 9.02419506 16 15 C14 18 14 18 12 20 C8.58304635 19.68936785 6.49013483 19.38121598 3.75 17.25 C-0.56915086 11.69680604 -0.1817782 6.81668251 0 0 Z " fill="#585A69" transform="translate(282,296)"/>
<path d="M0 0 C5.61 0 11.22 0 17 0 C20.7 7.4 20.7 7.4 20 12 C17.95923443 14.98265738 16.71708089 15.84064869 13.1875 16.625 C8.57858935 15.72129203 5.86565309 13.70508683 3 10 C1.59114814 6.6663787 0.81600654 3.55202847 0 0 Z " fill="#565867" transform="translate(327,295)"/>
<path d="M0 0 C3.375 2.125 3.375 2.125 6 5 C6.6640625 8.6796875 6.6640625 8.6796875 7 12 C3.56265937 12.08703823 0.12560163 12.14040272 -3.3125 12.1875 C-4.77719727 12.22520508 -4.77719727 12.22520508 -6.27148438 12.26367188 C-7.67817383 12.27817383 -7.67817383 12.27817383 -9.11328125 12.29296875 C-9.97735596 12.3086792 -10.84143066 12.32438965 -11.73168945 12.34057617 C-14.47541914 11.92861805 -15.3547503 11.19489515 -17 9 C-17.0625 7.125 -17.0625 7.125 -16 5 C-10.53318377 -0.11028474 -7.39286955 -1.75424023 0 0 Z " fill="#B7BFCF" transform="translate(267,438)"/>
<path d="M0 0 C3.74954817 2.7124391 4.8446207 4.09088632 5.62890625 8.6796875 C5.75136719 9.77539062 5.87382812 10.87109375 6 12 C2.72924117 12.0580476 -0.54138524 12.09361165 -3.8125 12.125 C-4.74126953 12.14175781 -5.67003906 12.15851563 -6.62695312 12.17578125 C-7.51962891 12.18222656 -8.41230469 12.18867188 -9.33203125 12.1953125 C-10.15421143 12.20578613 -10.9763916 12.21625977 -11.82348633 12.22705078 C-14 12 -14 12 -17 10 C-17.5625 7.6875 -17.5625 7.6875 -17 5 C-11.63129516 -0.24940029 -7.36098965 -2.06624271 0 0 Z " fill="#B8C0D0" transform="translate(313,438)"/>
<path d="M0 0 C3.39488422 2.05107588 4.80323081 3.70484621 7 7 C7.125 9.6875 7.125 9.6875 7 12 C3.56265937 12.08703823 0.12560163 12.14040272 -3.3125 12.1875 C-4.77719727 12.22520508 -4.77719727 12.22520508 -6.27148438 12.26367188 C-7.67817383 12.27817383 -7.67817383 12.27817383 -9.11328125 12.29296875 C-9.97735596 12.3086792 -10.84143066 12.32438965 -11.73168945 12.34057617 C-14 12 -14 12 -15.80151367 10.6340332 C-17 9 -17 9 -17.0625 6.5625 C-14.09020756 -0.60597 -6.80411925 -1.14727219 0 0 Z " fill="#B8C0D0" transform="translate(222,438)"/>
<path d="M0 0 C4.95 0 9.9 0 15 0 C16.75668374 4.39170934 17.25409909 6.2696979 17.1875 10.75 C17.18105469 11.71421875 17.17460937 12.6784375 17.16796875 13.671875 C17 16 17 16 16 17 C10.08671484 16.76810646 7.11875981 15.21236799 3 11 C0.36503179 6.78405087 0 5.12375021 0 0 Z " fill="#585A6A" transform="translate(398,294)"/>
<path d="M0 0 C0.81082031 -0.01224609 1.62164062 -0.02449219 2.45703125 -0.03710938 C3.23691406 -0.03904297 4.01679688 -0.04097656 4.8203125 -0.04296875 C5.52687988 -0.04707764 6.23344727 -0.05118652 6.96142578 -0.05541992 C8.875 0.1875 8.875 0.1875 11.875 2.1875 C12.1875 4.6875 12.1875 4.6875 11.875 7.1875 C9.22800384 9.83449616 7.97105591 9.44499767 4.28125 9.453125 C3.16878906 9.45570313 2.05632812 9.45828125 0.91015625 9.4609375 C-0.25644531 9.45320312 -1.42304688 9.44546875 -2.625 9.4375 C-3.79160156 9.44523438 -4.95820313 9.45296875 -6.16015625 9.4609375 C-7.27261719 9.45835937 -8.38507813 9.45578125 -9.53125 9.453125 C-10.55541016 9.45086914 -11.57957031 9.44861328 -12.63476562 9.44628906 C-15.125 9.1875 -15.125 9.1875 -17.125 7.1875 C-16.75818342 4.25296739 -16.26062754 3.32312754 -14.125 1.1875 C-9.52772915 -0.18468921 -4.75548458 0.0038166 0 0 Z " fill="#0B0A06" transform="translate(294.125,241.8125)"/>
<path d="M0 0 C2.02616566 0.17589037 4.05088368 0.38802629 6.0625 0.6875 C2.74914344 8.24195296 -2.03347534 15.35948962 -9.9375 18.6875 C-12.75 18.375 -12.75 18.375 -14.9375 17.6875 C-13.77261613 8.34069373 -10.39690502 -0.05668978 0 0 Z " fill="#585A6A" transform="translate(209.9375,296.3125)"/>
<path d="M0 0 C4.95 0 9.9 0 15 0 C16.70400521 5.11201562 17.3907952 7.82196365 17 13 C15 16 15 16 12.25 16.625 C8.1286678 15.83243611 6.84920638 14.39035489 4.32421875 11.15625 C2.14494411 7.60769661 1.10890797 4.00438991 0 0 Z " fill="#595B6B" transform="translate(304,296)"/>
<path d="M0 0 C-4.54831148 7.21588657 -11.3228769 14.55534006 -19.83984375 16.72265625 C-20.55269531 16.81417969 -21.26554688 16.90570313 -22 17 C-21.78839403 11.18083586 -20.64935482 6.56051698 -17.296875 1.72265625 C-12.48895819 -1.88328136 -5.69893832 -0.58729517 0 0 Z " fill="#585A69" transform="translate(152,296)"/>
<path d="M0 0 C1.98 0 3.96 0 6 0 C6.20638953 26.17654243 6.20638953 26.17654243 5 36 C3.68 36 2.36 36 1 36 C0.67 24.12 0.34 12.24 0 0 Z " fill="#545665" transform="translate(213,393)"/>
<path d="M0 0 C2.97 0 5.94 0 9 0 C9.49578186 5.94938234 8.43777201 10.06754451 5 15 C2.84535985 17.26021272 0.6218342 19.295162 -2 21 C-2.66 21 -3.32 21 -4 21 C-4.21544006 15.76884607 -3.52370193 11.56214697 -2 6.5625 C-1.62875 5.32628906 -1.2575 4.09007812 -0.875 2.81640625 C-0.58625 1.88699219 -0.2975 0.95757812 0 0 Z " fill="#555766" transform="translate(224,297)"/>
<path d="M0 0 C1.58294782 -0.05437607 3.16644256 -0.09296271 4.75 -0.125 C5.63171875 -0.14820313 6.5134375 -0.17140625 7.421875 -0.1953125 C10.1135858 0.00860498 11.69904974 0.63448279 14 2 C11.21727504 5.7298966 8.35750033 8.53664891 4.625 11.3125 C3.70976563 12.00988281 2.79453125 12.70726562 1.8515625 13.42578125 C-1.3867313 15.21349687 -3.35865774 15.31687197 -7 15 C-6.31238981 11.34435091 -4.74550455 8.48132728 -2.9375 5.25 C-2.11572266 3.77273438 -2.11572266 3.77273438 -1.27734375 2.265625 C-0.64505859 1.14414062 -0.64505859 1.14414062 0 0 Z " fill="#575968" transform="translate(113,294)"/>
<path d="M0 0 C4.29 0 8.58 0 13 0 C14.67057063 4.17642656 15.24868781 5.66895852 15.125 9.8125 C15.10695313 10.60269531 15.08890625 11.39289063 15.0703125 12.20703125 C15.03550781 13.09455078 15.03550781 13.09455078 15 14 C12.9375 14.875 12.9375 14.875 10 15 C5.14318028 12.11991653 1.99696639 8.28608749 0 3 C0 2.01 0 1.02 0 0 Z " fill="#555766" transform="translate(422,293)"/>
<path d="M0 0 C-5.05768311 5.38398524 -11.06523427 11.2123615 -18 14 C-19.32 14 -20.64 14 -22 14 C-18.27140406 5.2999428 -9.23453936 -0.5432082 0 0 Z " fill="#555766" transform="translate(104,293)"/>
</svg>
